<svg id="globe_2" data-name="globe 2" xmlns="http://www.w3.org/2000/svg" viewBox="0 0 1000 1000"><defs><style>.cls-1{fill:#fcf2ca;}.cls-2{fill:#eadeb7;}.cls-3{fill:#ecc677;}.cls-4{fill:#19597e;}.cls-5{fill:#093c5e;}.cls-6{fill:#343d4c;}</style></defs><g id="base_2" data-name="base 2"><path class="cls-1" d="M847.76,900.07c-15.36,0-20-13.34-26.08-28.79-5.18-13.15-6.73-26.8-7.2-34.55A24,24,0,0,0,811.09,789s-3.72.07-5,0c-2.53,0-6.54-.28-6.54-7.55V759.05h-.06l-.26,0c-6.25.67-143.83,14.7-299.25,14.76s-293-14.09-299.26-14.76l-.26,0h-.06v22.44c0,7.27-4,7.52-6.54,7.55-1.23,0-5,0-5,0a24.06,24.06,0,0,0-24.05,24h0a24,24,0,0,0,20.67,23.71c-.48,7.74-2,21.39-7.21,34.54-6.07,15.45-10.71,28.79-26,28.79a29.37,29.37,0,0,0-29.39,29.39h0v41.09A29.37,29.37,0,0,0,152.31,1000H847.69a29.37,29.37,0,0,0,29.39-29.39h0V929.49a29.3,29.3,0,0,0-29.32-29.42Z"/><path class="cls-2" d="M867.67,913.22c-3.77-4.81-8.82-8.66-15.4-8.66h-704c-6.57,0-10.77,3.13-14.54,7.93Z"/><path class="cls-2" d="M827.31,800.23a20.47,20.47,0,0,0-16.12-7.93H188.62a20.47,20.47,0,0,0-16.12,7.93Z"/><path class="cls-3" d="M296.17,962.42a37.6,37.6,0,0,1-37.55-37.54V874.22a37.62,37.62,0,0,1,37.52-37.55H704a37.58,37.58,0,0,1,37.51,37.55v50.66A37.58,37.58,0,0,1,704,962.42Z"/><path class="cls-4" d="M704,838.25a35.93,35.93,0,0,1,35.93,35.94h0v50.69A35.92,35.92,0,0,1,704,960.81H296.17a35.92,35.92,0,0,1-35.93-35.93V874.22a35.93,35.93,0,0,1,35.93-35.94H704m0-3.19H296.17A39.18,39.18,0,0,0,257,874.19v50.69A39.17,39.17,0,0,0,296.14,964H704a39.15,39.15,0,0,0,39.09-39.12V874.22A39.1,39.1,0,0,0,704,835.09Z"/><polygon class="cls-5" points="286.91 854.4 289.28 859.27 294.65 860.06 290.76 863.82 291.68 869.19 286.91 866.66 282.11 869.19 283.02 863.82 279.13 860.06 284.51 859.27 286.91 854.4"/><polygon class="cls-5" points="716.44 854.4 718.84 859.27 724.22 860.06 720.33 863.82 721.24 869.19 716.44 866.66 711.64 869.19 712.59 863.82 708.7 860.06 714.07 859.27 716.44 854.4"/><polygon class="cls-5" points="500.05 934.3 502.48 939.16 507.85 939.95 503.94 943.75 504.88 949.09 500.05 946.56 495.27 949.09 496.19 943.75 492.3 939.95 497.68 939.16 500.05 934.3"/><path class="cls-6" d="M341.55,901.33c0-1.61,1.46-2.08,3.07-2.08,1.77,0,3.22.47,4.52.47-.48,1-.82,1-1.3,1h-1.61c-.47,5.31-5,10.15-10,10.15a5.27,5.27,0,0,1-5.65-5.31c0-3.54,3.38-7.08,7.58-7.59a6.14,6.14,0,0,1-2.24-4.52,6.07,6.07,0,0,1,6-6c2.09,0,3.22,1.14,3.22,3.06,0,2.25-1.29,4.52-2.24,4.52-.47,0-.82-.47-1.14-1,1.3-1.13,2.44-2.43,2.44-4a1.89,1.89,0,0,0-1.93-2.09c-2.75,0-4.21,2.75-4.21,6a5.68,5.68,0,0,0,1.62,4.36,7.81,7.81,0,0,0-6.45,7.27c0,1.92,1,4.2,3.7,4.2,4.2,0,7.9-4.52,8.53-9.2a9.5,9.5,0,0,0-3.07.48Z"/><path class="cls-6" d="M386.21,890.87c1.3,0,2.43.16,3.54.16a5.08,5.08,0,0,1-4.05,1.61c-.63,2.44-1.13,4.68-1.45,6.61A63.24,63.24,0,0,0,382.64,911a5.41,5.41,0,0,0,.16,1.77c-2.6-.31-3.39-1.29-3.39-3.69a29.09,29.09,0,0,1,1.14-7.27c.48-1.93,1.46-5.31,2.59-8.88-6,0-8.37.15-11.28.31-2.43,7.43-4.83,15.33-5.15,16.59a3.74,3.74,0,0,1-3.38,3.07c.82-4.52,1.93-8.88,5.31-19.34l-3.23.31c0-1.61,1.62-2.43,4-2.9,1.14-3.38,2.43-7.43,4.2-12.11a15.45,15.45,0,0,0,.63-2.9c0-.48-.15-.64-.63-.64-3.22,0-6,6-6,9,0,.63.16,1.3.16,1.61a2.6,2.6,0,0,1-2.91-2.75c0-4.36,6.13-9.35,9.67-9.35a2,2,0,0,1,2.24,2.24,7.94,7.94,0,0,1-.31,2.09l-3.7,12.26c.82,0,1.77-.16,2.75-.16a62.88,62.88,0,0,1,8.22.48c1.93-6.13,4-12.74,4.83-14.51.32-.82,1.3-2.59,2.59-2.59C389.91,877.16,388,884.27,386.21,890.87Z"/><path class="cls-6" d="M403.94,899.41c0,1.13-2.75,4.36-2.75,6.76,0,1,.47,2.08,1.61,2.08,1.77,0,4.84-2.59,7.74-7.58l.48.47c-2.09,5.16-6.13,8.88-9.51,8.88a3.32,3.32,0,0,1-3.54-3.38,5.94,5.94,0,0,1,.15-1.45c-2.75,3.7-5,5.66-7.26,5.66-2.09,0-3.54-1.3-3.54-4.05,0-5.81,7.08-14.82,13.36-14.82,2.6,0,4.37,1.45,4.37,3.54,0,1.61-1,2.08-2.44,2.08a5.68,5.68,0,0,0,.32-1.61c0-1.45-.63-2.75-2.44-2.75-4.51,0-10,9-10,13.72,0,1.29.47,1.93,1.29,1.93,3.07,0,7.75-7.08,10.15-10.5C402.64,898.27,403.94,898.62,403.94,899.41Z"/><path class="cls-6" d="M412.79,908.76c0-.32.47-.32,1.29-.32,5.16,0,9.83-5.65,9.83-10.65,0-2.08-.82-3.69-2.75-3.69-3.38,0-6.76,5-8.06,7.74-2.24,9.67-4.83,18.55-6,19.66-.16.15-.31.15-.63.15-.82,0-1.61-1.61-1.45-1.76,2.24-8.06,4.2-9.52,6.6-28.86,0-.63.16-.82,1-.82a2.1,2.1,0,0,1,2.24,2.24,46.39,46.39,0,0,1-1.13,6.45c1.61-3.22,4.67-7.08,8.37-7.08,2.91,0,4.84,2.24,4.84,5.47,0,5-4.68,12.1-11.44,12.1C413.93,909.74,412.79,909.23,412.79,908.76Z"/><path class="cls-6" d="M431.66,908.76c0-.32.47-.32,1.29-.32,5.15,0,9.83-5.65,9.83-10.65,0-2.08-.82-3.69-2.75-3.69-3.38,0-6.76,5-8.06,7.74-2.24,9.67-4.83,18.55-6,19.66-.16.15-.32.15-.63.15-.82,0-1.61-1.61-1.46-1.76,2.25-8.06,4.21-9.52,6.61-28.86,0-.63.16-.82,1-.82a2.1,2.1,0,0,1,2.24,2.24,45.38,45.38,0,0,1-1.14,6.45c1.62-3.22,4.68-7.08,8.38-7.08,2.91,0,4.83,2.24,4.83,5.47,0,5-4.67,12.1-11.44,12.1C432.79,909.74,431.66,909.23,431.66,908.76Z"/><path class="cls-6" d="M459.21,908.76a14.32,14.32,0,0,0,8.06-8.22l.64.48c-1.46,4.67-5.47,7.42-9.2,9-2.59,6.13-5.82,11.75-9.2,11.75-1.61,0-3.06-.82-3.06-2.59,0-4,4.52-6.29,9.35-8.69a84.82,84.82,0,0,0,2.75-8.88c-2.08,3.38-4.52,6.13-7.08,6.13a3.71,3.71,0,0,1-3.85-3.86c0-3.53,2.9-10.49,4.2-10.49.32,0,2.09.48,2.09,1.14-1.14,1.61-3.23,6.92-3.23,9.51,0,1.14.48,1.93,1.77,1.93,1.77,0,4.52-3.06,6.45-6.13.16-.82.31-1.45.47-2.24a2.61,2.61,0,0,1,2.44-2.44,2.19,2.19,0,0,1,1,.16C463.1,896.85,461.49,903,459.21,908.76Zm-3.69,3.07c-4,2.08-7.43,4-7.43,7.08a1.4,1.4,0,0,0,1.3,1.45C450.37,920.36,452.77,918.27,455.52,911.83Z"/><path class="cls-6" d="M501,912.62c-2.08,0-3.22-1-3.69-3.86-1-5.15-3.54-22.56-4.37-28.7-7.74,27.88-9,32.71-12.1,32.71,1.61-6.13,4.52-14.34,10.3-34.16a6.09,6.09,0,0,0,.32-1.93c0-.63-.16-1.14-.63-1.14-3.23,0-5.66,5.47-5.66,8.54,0,.63.16,1.29.16,1.61a2.6,2.6,0,0,1-2.91-2.75c0-4.36,6-9.36,9.67-9.36,3.86,0,4.68,7.27,5.66,15.14.82,6.45,1.61,13.06,2.08,16.28,1.3-9,6.93-27.24,7.75-29,.31-.82,1.61-2.44,3.06-2.44C507.25,882.5,501.12,905.06,501,912.62Z"/><path class="cls-6" d="M510.48,903.29a7.25,7.25,0,0,0-.16,1.77c0,1.93.82,4.05,3.85,4.05,4.21,0,8.38-3.86,10.81-8.54l.63.48c-2.59,5.81-7.58,9.51-12.42,9.51-3.85,0-6-2.43-6-5.66,0-5.81,6.61-13.87,12.26-13.87,1.46,0,3.07.63,3.07,2.91C522.42,898.93,515.94,902.79,510.48,903.29Zm.15-.82c3.39-1.29,9.68-4.68,9.68-8.88,0-.82-.16-1.14-1-1.14C516.13,892.48,511.93,897.79,510.63,902.47Z"/><path class="cls-6" d="M555.29,901.33c-1.45,3.23-3.22,4-4.83,4-1.93,0-3.39-1.3-4.05-4-2.43,4.52-6,9-8.88,9-2.09,0-2.59-2.08-2.59-4.68,0-1.29.16-2.9.31-4.36-2.08,4.21-4.83,8.54-7.74,8.54-2.08,0-3.54-2.25-3.54-4.84,0-3.7,2.75-11,4.2-11,.32,0,1.77.32,1.77,1-1.13,1.62-3.22,6.45-3.22,9.68,0,.82.16,3.22,1.61,3.22,2.25,0,5-4.84,7.27-9.2.82-4,1-4.36,1.93-4.36s1.45.32,1.45,1.14a.59.59,0,0,1-.15.47,37.07,37.07,0,0,0-1.3,10.15c0,1.45.32,2.43,1.14,2.43,1.93,0,5.31-5.31,7.42-9.83,0-5,1.3-6.13,2.44-6.13a1.89,1.89,0,0,1,1.77,1.77c0,1.3-1.61,2.09-1.61,6.45,0,1.61.15,3.7,2.24,3.7,1.3,0,2.59-1,3.86-3.54Z"/><path class="cls-6" d="M575.26,912c0,2.6,1.46,4.37,4.21,4.37,6.45,0,9-9.2,10.14-13.72.48-2.09,1.14-6,2.09-9.83-2.59,5-5.82,8.38-10.49,8.38-3.86,0-5.31-2.44-5.31-5.82,0-5.15,3.22-12.26,3.22-16.59,0-2.09-.63-3.7-2.75-3.7-3.54,0-5.15,5.15-5.15,8.38a10,10,0,0,0,.32,2.43,3,3,0,0,1-3.39-3.38c0-4,4.21-8.69,9.2-8.69a4.59,4.59,0,0,1,5,4.83c0,3.54-3.22,11-3.22,16.12,0,2.75,1,4.68,3.38,4.68,4.52,0,8.06-6.45,10.31-12.11,1.61-6.92,3.69-13.52,5.81-13.52a5,5,0,0,1,2.75,1.61c-3.38,5.31-4,8.06-8.06,23.86-2.08,8.22-4.68,18.36-14,18.36-3.7,0-6.61-1.61-6.61-4.52a3.69,3.69,0,0,1,2.91-3.54A12.68,12.68,0,0,0,575.26,912Z"/><path class="cls-6" d="M601.24,903.29a7.72,7.72,0,0,0-.15,1.77c0,1.93.82,4.05,3.85,4.05,4,0,8.38-3.86,10.81-8.54l.63.48c-2.59,5.81-7.58,9.51-12.42,9.51-3.85,0-6-2.43-6-5.66,0-5.81,6.6-13.87,12.26-13.87,1.45,0,3.07.63,3.07,2.91C613.32,898.93,606.87,902.79,601.24,903.29Zm.32-.82c3.38-1.29,9.67-4.68,9.67-8.88,0-.82-.16-1.14-1-1.14C607,892.48,602.86,897.79,601.56,902.47Z"/><path class="cls-6" d="M630.26,899.41c0,1.13-2.75,4.36-2.75,6.76,0,1,.47,2.08,1.61,2.08,1.77,0,4.83-2.59,7.74-7.58l.48.47c-2.09,5.16-6.14,8.88-9.52,8.88a3.32,3.32,0,0,1-3.54-3.38,5.58,5.58,0,0,1,.16-1.45c-2.75,3.7-5,5.66-7.27,5.66-2.08,0-3.54-1.3-3.54-4.05C613.63,901,620.71,892,627,892c2.59,0,4.36,1.45,4.36,3.54,0,1.61-1,2.08-2.43,2.08a5.48,5.48,0,0,0,.16-1.61c0-1.45-.64-2.75-2.44-2.75-4.52,0-10,9-10,13.72,0,1.29.47,1.93,1.29,1.93,3.07,0,7.75-7.08,10.15-10.5C629,898.27,630.26,898.62,630.26,899.41Z"/><path class="cls-6" d="M636,902.31a61,61,0,0,0,3.86-9.19,1.47,1.47,0,0,1-.48-1.14c0-1.93,1.45-3.22,2.09-3.22s.63.82.63,1.13-.47,1.61-.47,1.77c0,1.77,5,2.59,5,6.77,0,2.9-2.43,6.13-2.43,8.21a1.27,1.27,0,0,0,1.45,1.46c3.06,0,6.92-4.36,8.22-7.27l.63.47c-1.77,4.05-6,8.38-10.15,8.38a3.23,3.23,0,0,1-3.54-3.23c0-2.9,2.59-6.44,2.59-9,0-2.08-1.45-2.74-2.74-3.69a58.92,58.92,0,0,1-4.37,9.35Z"/><path class="cls-6" d="M653.77,907.62c0-1.14,1.61-1.93,2.75-1.93.82,0,1.29.32,1.29,1.14a2.62,2.62,0,0,1-2.59,2.09A1.31,1.31,0,0,1,653.77,907.62Zm5.66-13.37c3.54-9.35,7.9-20.63,10.65-20.63a1.09,1.09,0,0,1,1,1.13c0,2.75-10.65,23.55-14.19,28.7C656.84,901.18,658.29,897,659.43,894.25Z"/></g></svg>