<svg id="globe_2" data-name="globe 2" xmlns="http://www.w3.org/2000/svg" viewBox="0 0 1000 1000"><defs><style>.cls-1{fill:#fc7cc1;}.cls-2{fill:#fff;}.cls-3{fill:none;}</style></defs><g id="city"><rect class="cls-1" x="505.95" y="436.28" width="49.8" height="133.44"/><rect class="cls-2" x="528.33" y="476.94" width="4.42" height="19.15"/><rect class="cls-2" x="537.16" y="476.94" width="4.42" height="19.15"/><rect class="cls-2" x="545.99" y="476.94" width="4.42" height="19.15"/><rect class="cls-2" x="518.01" y="454.86" width="5.9" height="17.67"/><rect class="cls-2" x="528.33" y="454.86" width="4.42" height="17.67"/><rect class="cls-2" x="537.16" y="454.86" width="4.42" height="17.67"/><rect class="cls-2" x="518.01" y="499.03" width="5.9" height="20.63"/><rect class="cls-2" x="537.16" y="499.03" width="4.42" height="20.63"/><rect class="cls-2" x="545.99" y="499.03" width="4.42" height="20.63"/><rect class="cls-2" x="518.01" y="522.59" width="5.9" height="20.63"/><rect class="cls-2" x="528.33" y="522.59" width="4.42" height="20.63"/><rect class="cls-2" x="545.99" y="522.59" width="4.42" height="20.63"/><rect class="cls-1" x="442.61" y="340.11" width="55.53" height="229.61"/><rect class="cls-2" x="448.8" y="369.44" width="7.35" height="13.25"/><rect class="cls-2" x="460.57" y="369.44" width="7.35" height="13.25"/><rect class="cls-2" x="460.57" y="390.04" width="7.35" height="8.83"/><rect class="cls-2" x="448.8" y="406.25" width="7.35" height="11.8"/><rect class="cls-2" x="460.57" y="406.25" width="7.35" height="11.8"/><rect class="cls-2" x="448.8" y="422.43" width="7.35" height="13.25"/><rect class="cls-2" x="460.57" y="422.43" width="7.35" height="13.25"/><rect class="cls-2" x="460.57" y="438.65" width="7.35" height="11.8"/><rect class="cls-2" x="448.8" y="454.86" width="7.35" height="14.73"/><rect class="cls-2" x="460.57" y="454.86" width="7.35" height="14.73"/><rect class="cls-2" x="448.8" y="475.46" width="7.35" height="11.8"/><rect class="cls-2" x="460.57" y="475.46" width="7.35" height="11.8"/><rect class="cls-2" x="448.8" y="493.16" width="7.35" height="11.8"/><rect class="cls-2" x="460.57" y="493.16" width="7.35" height="11.8"/><rect class="cls-2" x="460.57" y="507.86" width="7.35" height="14.73"/><rect class="cls-2" x="448.8" y="527.01" width="7.35" height="14.73"/><rect class="cls-2" x="460.57" y="527.01" width="7.35" height="14.73"/><rect class="cls-2" x="460.57" y="546.15" width="7.35" height="10.32"/><rect class="cls-2" x="485.62" y="369.44" width="5.9" height="13.25"/><rect class="cls-2" x="470.88" y="390.04" width="8.83" height="8.83"/><rect class="cls-2" x="485.62" y="390.04" width="5.9" height="8.83"/><rect class="cls-2" x="485.62" y="406.25" width="5.9" height="11.8"/><rect class="cls-2" x="470.88" y="422.43" width="8.83" height="13.25"/><rect class="cls-2" x="485.62" y="422.43" width="5.9" height="13.25"/><rect class="cls-2" x="470.88" y="438.65" width="8.83" height="11.8"/><rect class="cls-2" x="470.88" y="454.86" width="8.83" height="14.73"/><rect class="cls-2" x="485.62" y="454.86" width="5.9" height="14.73"/><rect class="cls-2" x="485.62" y="475.46" width="5.9" height="11.8"/><rect class="cls-2" x="470.88" y="493.16" width="8.83" height="11.8"/><rect class="cls-2" x="485.62" y="493.16" width="5.9" height="11.8"/><rect class="cls-2" x="470.88" y="507.86" width="8.83" height="14.73"/><rect class="cls-2" x="485.62" y="507.86" width="5.9" height="14.73"/><rect class="cls-2" x="485.62" y="527.01" width="5.9" height="14.73"/><rect class="cls-2" x="470.88" y="546.15" width="8.83" height="10.32"/><rect class="cls-2" x="485.62" y="546.15" width="5.9" height="10.32"/><rect class="cls-1" x="622.59" y="451.9" width="41.23" height="117.82"/><rect class="cls-2" x="625.55" y="459.28" width="33.88" height="4.42"/><rect class="cls-2" x="625.55" y="469.56" width="33.88" height="5.9"/><rect class="cls-2" x="625.55" y="482.84" width="33.88" height="2.93"/><rect class="cls-2" x="625.55" y="491.68" width="33.88" height="5.9"/><rect class="cls-2" x="625.55" y="503.44" width="33.88" height="4.42"/><rect class="cls-2" x="625.55" y="516.72" width="33.88" height="2.93"/><rect class="cls-2" x="625.55" y="525.56" width="33.88" height="2.93"/><rect class="cls-2" x="625.55" y="538.81" width="33.88" height="2.93"/><path class="cls-3" d="M328.31,520.68l5.14-5.14,2.37,2.37,31.38-30.65c-.3-.72-.59-1.61-.59-1.61h-44.5v2.93h-6.92c.14,1.48.3,3.39.6,5l7.08-1.78,2.64,9.85-7.09,1.91c.6,1.49,1.19,2.94,1.92,4.42l6.32-3.53,5.14,8.84L325.48,517A40.87,40.87,0,0,0,328.31,520.68Z"/><path class="cls-3" d="M340.7,444.84l-2.93,2.94L369,479.15c.59-.43,1.78-.72,1.78-.89v-44h-2.93v-7.08c-1.49.13-3.23.29-4.85.59l1.78,6.49-9.85,2.64-1.78-6.49c-1.49.59-3.1,1.18-4.42,1.78l3.4,5.73-8.84,5-3.39-5.73a41.05,41.05,0,0,0-3.82,2.93Z"/><path class="cls-3" d="M316,474.44a29.25,29.25,0,0,0-.72,5.44h6.92v2.93h44.79c.13,0,.43-1.32.72-1.78L336,449.52,333.35,452l-4.71-4.71a35.14,35.14,0,0,0-2.93,3.82l5.73,3.39-5.14,8.84-5.9-3.4c-.72,1.48-1.32,2.94-1.91,4.42l6.49,1.78-2.63,10Z"/><path class="cls-3" d="M367.79,541.15v-6.79h2.94V490a16.34,16.34,0,0,1-2.51-1.48l-31.08,30.91,3.4,3.23-5.14,5.14a35.14,35.14,0,0,0,3.82,2.93l3.69-6.19,8.83,5-3.69,6.33c1.49.72,2.94,1.31,4.42,1.91l1.91-6.92,9.85,2.63-2.07,6.92C364.1,540.72,366.31,541,367.79,541.15Z"/><path class="cls-3" d="M375.31,489c-.73.43-.13.89-3.1,1v44.33h5.9V541c1.48-.13,3.1-.43,4.71-.59L381,533.47l9.86-2.64,1.91,6.79a41.23,41.23,0,0,0,4.41-1.91l-3.52-6.2,8.83-5,3.53,6a42.42,42.42,0,0,0,3.82-2.93l-5-5,2.21-2.64Z"/><path class="cls-3" d="M378.11,427.31v6.92h-5.9v44c2.93.13,1.78.3,2.21.43L406.68,447l-2.21-2.37,4.72-4.58a36.35,36.35,0,0,0-3.83-2.94l-3.23,5.74-8.83-5,3.23-5.61c-1.48-.72-2.93-1.31-4.41-1.91l-1.78,6.33L380.48,434l1.62-6.32C380.91,427.61,379.56,427.31,378.11,427.31Z"/><path class="cls-3" d="M423.75,485.78H378.54a11.44,11.44,0,0,1-.89,2.21L409,518.77l2.94-3.1,5,4.84a36.45,36.45,0,0,0,2.93-3.82l-6.2-3.53,5.14-8.83,6.2,3.53c.73-1.48,1.32-2.93,1.91-4.42L420,501.53l2.64-9.72,6.92,1.61c.29-1.48.43-3.39.59-4.84h-6.49v-2.8Z"/><path class="cls-3" d="M416.54,447.35,412,451.93l-3.23-3.23-31.68,31.67c.6.6.89,2.38,1.19,2.38h45.51v-2.94H430a52.11,52.11,0,0,0-.59-5.3L423,476l-2.64-9.86,6.33-1.77a41.4,41.4,0,0,0-1.91-4.42l-5.74,3.23-5.14-8.83,5.74-3.23C418.61,449.85,417.56,448.5,416.54,447.35Z"/><path class="cls-1" d="M379.56,546.45c32.4-3.82,55.83-30.35,55.83-62.29a63.05,63.05,0,0,0-126.1,0c0,32,23.14,58.47,55.54,62.29v10H325.08v13.25h94.26V556.47H379.56Zm-25-15.59-1.91,6.92c-1.48-.59-2.93-1.18-4.41-1.91l3.69-6.33-8.83-5-3.7,6.19a43.88,43.88,0,0,1-3.82-2.93l5.14-5.14-3.23-3.23,30.78-30.92c.73.73,2.51,1.19,2.51,1.49v44.49h-2.93v6.79c-1.49-.13-3.69-.43-5.44-.73l1.91-6.92Zm-28-26.36L320.2,508c-.72-1.48-1.32-2.93-1.91-4.41l7.09-1.91L322.74,492l-7.08,1.78c-.3-1.61-.43-3.52-.6-5H322v-2.93h44.5s.29.89.59,1.62l-31.38,30.91-2.37-2.51-5.14,5a35.14,35.14,0,0,1-2.93-3.82l6.32-3.69Zm-7.94-40.21c.59-1.48,1.18-2.93,1.91-4.42l5.9,3.4,5.14-8.83-5.73-3.4a41.05,41.05,0,0,1,2.93-3.82l4.71,4.71,2.64-2.64L367.76,481c-.3.42-.59,1.78-.72,1.78H322.11v-2.94h-6.92a29.32,29.32,0,0,1,.73-5.44l6.49,1.49,2.64-9.86Zm24.58-21.23,8.84-5-3.4-5.74a27.18,27.18,0,0,1,4.58-1.78L355,437l9.86-2.63-1.91-6.5c1.61-.29,3.39-.42,4.84-.59v7.09h2.93v44c0,.13-1.18.43-1.78.89l-31.5-31.38L340.5,445l-4.71-4.71a36.35,36.35,0,0,1,3.83-2.94Zm47.3-6.32,1.78-6.33a41.23,41.23,0,0,1,4.41,1.91l-3.23,5.6,8.84,5,3.23-5.73a43.88,43.88,0,0,1,3.82,2.93l-4.71,4.58,2.37,2.38-32.69,31.67c-.43-.3.72-.43-2.21-.43v-44H378v-6.92a30.26,30.26,0,0,1,4.12.59l-1.62,6.33Zm28.44,26.49,5.73-3.23c.73,1.49,1.32,2.94,1.92,4.42l-6.33,1.78,2.63,9.72,6.33-1.18a33.07,33.07,0,0,1,.6,5.3h-6V483H378.24c-.3,0-.72-1.78-1.19-2.38l31.68-31.67L412,452l4.71-4.71a35.14,35.14,0,0,1,2.93,3.82l-5.73,3.23Zm-9.16,64.53a36.35,36.35,0,0,1-3.83,2.94l-3.52-6-8.83,5,3.52,6.19c-1.48.73-2.93,1.32-4.41,1.91L390.9,531,381,533.63l1.78,6.92c-1.48.3-3.23.43-4.71.6v-6.79h-5.9V490c2.93-.13,2.37-.43,3.1-1L407,520.09l-2.51,2.63Zm24.32-39.05H430c-.13,1.48-.3,3.23-.59,4.85l-6.92-1.78-2.64,9.85,6.92,1.91c-.59,1.48-1.19,2.93-1.91,4.42l-6.2-3.53-5.14,8.83,6.2,3.53a39.49,39.49,0,0,1-2.94,3.82l-5-5-2.94,2.94-31.37-30.49a7.9,7.9,0,0,0,.89-2.21h45.51v2.94H430l4.05-.07v0Z"/><rect class="cls-1" x="280.89" y="525.56" width="36.81" height="44.2"/><rect class="cls-2" x="285.3" y="532.91" width="4.42" height="10.32"/><rect class="cls-2" x="301.52" y="532.91" width="2.93" height="10.32"/><rect class="cls-2" x="308.87" y="532.91" width="4.42" height="10.32"/><rect class="cls-2" x="285.3" y="546.15" width="4.42" height="10.32"/><rect class="cls-2" x="292.68" y="546.15" width="4.42" height="10.32"/><rect class="cls-2" x="308.87" y="546.15" width="4.42" height="10.32"/><path class="cls-1" d="M270.57,432.75V422.43h-8.83v10.32h-28v137h39.78v-137ZM247,555H236.69V544.7H247Zm0-14.73H236.69v-11.8H247Zm0-16.22H236.69v-8.83H247Zm0-13.25H236.69V500.51H247Zm0-16.21H236.69V484.29H247Zm0-29.46H236.69V454.83H247ZM247,449H236.69v-8.83H247ZM258.8,555H250V544.7h8.83Zm0-14.73H250v-11.8h8.83Zm0-29.47H250V500.51h8.83Zm0-16.21H250V484.29h8.83Zm0-14.73H250v-11.8h8.83Zm0-14.73H250V454.83h8.83Zm0-16.19H250v-8.83h8.83Zm11.77,91.33h-8.83v-11.8h8.83Zm0-16.22h-8.83v-8.83h8.83Zm0-13.25h-8.83V500.51h8.83Zm0-30.94h-8.83v-11.8h8.83Zm0-14.73h-8.83V454.83h8.83Z"/><rect class="cls-2" x="236.69" y="440.13" width="10.32" height="8.83"/><rect class="cls-2" x="249.97" y="440.13" width="8.83" height="8.83"/><rect class="cls-2" x="236.69" y="454.86" width="10.32" height="10.32"/><rect class="cls-2" x="261.74" y="454.86" width="8.83" height="10.32"/><rect class="cls-2" x="249.97" y="454.86" width="8.83" height="10.32"/><rect class="cls-2" x="261.74" y="468.11" width="8.83" height="11.8"/><rect class="cls-2" x="249.97" y="468.11" width="8.83" height="11.8"/><rect class="cls-2" x="236.69" y="484.29" width="10.32" height="10.32"/><rect class="cls-2" x="249.97" y="484.29" width="8.83" height="10.32"/><rect class="cls-2" x="236.69" y="500.51" width="10.32" height="10.32"/><rect class="cls-2" x="261.74" y="500.51" width="8.83" height="10.32"/><rect class="cls-2" x="249.97" y="500.51" width="8.83" height="10.32"/><rect class="cls-2" x="236.69" y="515.24" width="10.32" height="8.83"/><rect class="cls-2" x="261.74" y="515.24" width="8.83" height="8.83"/><rect class="cls-2" x="236.69" y="528.49" width="10.32" height="11.8"/><rect class="cls-2" x="261.74" y="528.49" width="8.83" height="11.8"/><rect class="cls-2" x="249.97" y="528.49" width="8.83" height="11.8"/><rect class="cls-2" x="236.69" y="544.7" width="10.32" height="10.32"/><rect class="cls-2" x="249.97" y="544.7" width="8.83" height="10.32"/><path class="cls-1" d="M607.85,393V342.91H602V295.78H591.64V276.63h-5.87v19.15H574v47.13h-5.9V393h-5.9V569.72h54.52V393Zm-17.66,60.38v17.67h-4.42V453.38ZM599,471.05h-2.93V453.38H599Zm0,7.38v19.15h-2.93V478.43Zm-13.25,0h4.42v19.15h-4.42Zm-4.41-7.38h-4.42V453.38h4.42Zm-4.42,7.38h4.42v19.15h-4.42Zm-8.83,56V510.82H571v23.57Zm8.83,0V510.82h4.42v23.57Zm8.83,0V510.82h4.42v23.57Zm10.32,0V510.82H599v23.57Zm7.35,0V510.82h4.41v23.57Z"/><polygon class="cls-2" points="571.04 510.82 568.11 510.82 568.11 515.54 568.11 534.39 571.04 534.39 571.04 510.82"/><rect class="cls-2" x="576.94" y="510.82" width="4.42" height="23.56"/><rect class="cls-2" x="585.77" y="510.82" width="4.42" height="23.56"/><rect class="cls-2" x="596.09" y="510.82" width="2.93" height="23.56"/><rect class="cls-2" x="603.44" y="510.82" width="4.42" height="23.56"/><rect class="cls-2" x="576.94" y="478.43" width="4.42" height="19.15"/><rect class="cls-2" x="585.77" y="478.43" width="4.42" height="19.15"/><rect class="cls-2" x="596.09" y="478.43" width="2.93" height="19.15"/><rect class="cls-2" x="576.94" y="453.38" width="4.42" height="17.67"/><rect class="cls-2" x="585.77" y="453.38" width="4.42" height="17.67"/><rect class="cls-2" x="596.09" y="453.38" width="2.93" height="17.67"/><rect class="cls-2" x="576.94" y="429.82" width="4.42" height="17.67"/><rect class="cls-2" x="585.77" y="429.82" width="4.42" height="17.67"/><rect class="cls-2" x="596.09" y="429.82" width="2.93" height="17.67"/><rect class="cls-2" x="576.94" y="404.77" width="4.42" height="19.15"/><rect class="cls-2" x="585.77" y="404.77" width="4.42" height="19.15"/><rect class="cls-2" x="596.09" y="404.77" width="2.93" height="19.15"/><rect class="cls-2" x="578.42" y="373.85" width="5.9" height="17.67"/><rect class="cls-2" x="594.6" y="373.85" width="4.42" height="17.67"/><rect class="cls-2" x="578.42" y="350.29" width="5.9" height="19.15"/><rect class="cls-2" x="594.6" y="350.29" width="4.42" height="19.15"/><rect class="cls-2" x="587.26" y="320.83" width="2.93" height="17.67"/><rect class="cls-2" x="579.87" y="320.83" width="4.42" height="17.67"/><rect class="cls-2" x="587.26" y="300.2" width="2.93" height="16.21"/><rect class="cls-2" x="594.6" y="320.83" width="2.93" height="17.67"/><path class="cls-1" d="M725,569.72V480.9c0-39.19-52.43-65.09-52.43-65.09V569.72Z"/><rect class="cls-2" x="680.03" y="512.31" width="5.9" height="22.08"/><rect class="cls-2" x="690.35" y="512.31" width="5.9" height="22.08"/><rect class="cls-2" x="710.98" y="512.31" width="4.42" height="22.08"/><rect class="cls-2" x="680.03" y="484.29" width="5.9" height="19.15"/><rect class="cls-2" x="700.66" y="484.29" width="5.9" height="19.15"/><rect class="cls-2" x="710.98" y="484.29" width="4.42" height="19.15"/><rect class="cls-2" x="680.03" y="451.9" width="5.9" height="22.08"/><rect class="cls-2" x="690.35" y="451.9" width="5.9" height="22.08"/><path class="cls-1" d="M756.62,455.72c3.83-1.61,6.33-4.58,6.33-7.81,0-4.71-3.39-8.7-12.23-9.29v-32.4h-4.41v32.26c-5.9.43-12.07,4.42-12.07,9.3,0,3.23,2.81,6.19,6.79,7.81l3.53,47.13-8.11,65.55-2.8,1.48H764.3l-3-1.48L753.23,503l3.39-47.29"/></g></svg>