<svg id="globe_2" data-name="globe 2" xmlns="http://www.w3.org/2000/svg" viewBox="0 0 1000 1000"><defs><style>.cls-1{fill:#fc7cc1;}.cls-2{fill:#fff;}.cls-3{fill:none;}</style></defs><g id="citySF"><rect class="cls-1" x="491.65" y="436.28" width="49.8" height="133.44"/><rect class="cls-2" x="514.03" y="476.94" width="4.42" height="19.15"/><rect class="cls-2" x="522.86" y="476.94" width="4.42" height="19.15"/><rect class="cls-2" x="531.7" y="476.94" width="4.42" height="19.15"/><rect class="cls-2" x="503.71" y="454.86" width="5.9" height="17.67"/><rect class="cls-2" x="514.03" y="454.86" width="4.42" height="17.67"/><rect class="cls-2" x="522.86" y="454.86" width="4.42" height="17.67"/><rect class="cls-2" x="503.71" y="499.03" width="5.9" height="20.63"/><rect class="cls-2" x="522.86" y="499.03" width="4.42" height="20.63"/><rect class="cls-2" x="531.7" y="499.03" width="4.42" height="20.63"/><rect class="cls-2" x="503.71" y="522.59" width="5.9" height="20.63"/><rect class="cls-2" x="514.03" y="522.59" width="4.42" height="20.63"/><rect class="cls-2" x="531.7" y="522.59" width="4.42" height="20.63"/><path class="cls-1" d="M483.84,569c0-176.93-12-220.69-26.77-220.69S430.33,392.07,430.29,569Z"/><rect class="cls-2" x="447.61" y="376.6" width="7.09" height="12.78"/><rect class="cls-2" x="447.61" y="396.46" width="7.09" height="8.52"/><rect class="cls-2" x="447.61" y="412.09" width="7.09" height="11.38"/><rect class="cls-2" x="436.27" y="427.7" width="7.09" height="12.78"/><rect class="cls-2" x="447.61" y="427.7" width="7.09" height="12.78"/><rect class="cls-2" x="447.61" y="443.33" width="7.09" height="11.38"/><rect class="cls-2" x="436.27" y="458.97" width="7.09" height="14.21"/><rect class="cls-2" x="447.61" y="458.97" width="7.09" height="14.21"/><rect class="cls-2" x="436.27" y="478.83" width="7.09" height="11.38"/><rect class="cls-2" x="447.61" y="478.83" width="7.09" height="11.38"/><rect class="cls-2" x="436.27" y="495.9" width="7.09" height="11.38"/><rect class="cls-2" x="447.61" y="495.9" width="7.09" height="11.38"/><rect class="cls-2" x="447.61" y="510.07" width="7.09" height="14.21"/><rect class="cls-2" x="436.27" y="528.53" width="7.09" height="14.21"/><rect class="cls-2" x="447.61" y="528.53" width="7.09" height="14.21"/><rect class="cls-2" x="447.61" y="547" width="7.09" height="9.95"/><rect class="cls-2" x="457.56" y="396.46" width="8.52" height="8.52"/><rect class="cls-2" x="457.56" y="427.7" width="8.52" height="12.78"/><rect class="cls-2" x="471.77" y="427.7" width="5.69" height="12.78"/><rect class="cls-2" x="457.56" y="443.33" width="8.52" height="11.38"/><rect class="cls-2" x="457.56" y="458.97" width="8.52" height="14.21"/><rect class="cls-2" x="471.77" y="458.97" width="5.69" height="14.21"/><rect class="cls-2" x="471.77" y="478.83" width="5.69" height="11.38"/><rect class="cls-2" x="457.56" y="495.9" width="8.52" height="11.38"/><rect class="cls-2" x="471.77" y="495.9" width="5.69" height="11.38"/><rect class="cls-2" x="457.56" y="510.07" width="8.52" height="14.21"/><rect class="cls-2" x="471.77" y="510.07" width="5.69" height="14.21"/><rect class="cls-2" x="471.77" y="528.53" width="5.69" height="14.21"/><rect class="cls-2" x="457.56" y="547" width="8.52" height="9.95"/><rect class="cls-2" x="471.77" y="547" width="5.69" height="9.95"/><rect class="cls-1" x="630.24" y="451.9" width="41.23" height="117.82"/><rect class="cls-2" x="633.2" y="459.28" width="33.88" height="4.42"/><rect class="cls-2" x="633.2" y="469.56" width="33.88" height="5.9"/><rect class="cls-2" x="633.2" y="482.84" width="33.88" height="2.93"/><rect class="cls-2" x="633.2" y="491.68" width="33.88" height="5.9"/><rect class="cls-2" x="633.2" y="503.44" width="33.88" height="4.42"/><rect class="cls-2" x="633.2" y="516.72" width="33.88" height="2.93"/><rect class="cls-2" x="633.2" y="525.56" width="33.88" height="2.93"/><rect class="cls-2" x="633.2" y="538.81" width="33.88" height="2.93"/><path class="cls-3" d="M316,520.68l5.14-5.14,2.38,2.37,31.37-30.65c-.29-.72-.59-1.61-.59-1.61H309.82v2.93H302.9c.13,1.48.29,3.39.59,5l7.09-1.78,2.63,9.85-7.08,1.91c.59,1.49,1.18,2.94,1.91,4.42l6.33-3.53,5.14,8.84L313.18,517A40.87,40.87,0,0,0,316,520.68Z"/><path class="cls-3" d="M328.41,444.84l-2.94,2.94,31.21,31.37c.6-.43,1.78-.72,1.78-.89v-44h-2.93v-7.08c-1.48.13-3.23.29-4.85.59l1.78,6.49-9.85,2.64-1.78-6.49c-1.48.59-3.1,1.18-4.42,1.78l3.4,5.73-8.83,5-3.4-5.73a41.05,41.05,0,0,0-3.82,2.93Z"/><path class="cls-3" d="M303.65,474.44a29.25,29.25,0,0,0-.72,5.44h6.92v2.93h44.79c.13,0,.43-1.32.72-1.78l-31.67-31.51L321.06,452l-4.72-4.71a36.45,36.45,0,0,0-2.93,3.82l5.73,3.39L314,463.37l-5.9-3.4c-.72,1.48-1.31,2.94-1.91,4.42l6.49,1.78-2.63,10Z"/><path class="cls-3" d="M355.5,541.15v-6.79h2.93V490a16.34,16.34,0,0,1-2.51-1.48l-31.07,30.91,3.39,3.23-5.14,5.14a36.14,36.14,0,0,0,3.82,2.93l3.69-6.19,8.84,5-3.7,6.33c1.49.72,2.94,1.31,4.42,1.91l1.91-6.92,9.86,2.63-2.08,6.92C351.8,540.72,354,541,355.5,541.15Z"/><path class="cls-3" d="M363,489c-.72.43-.13.89-3.1,1v44.33h5.9V541c1.48-.13,3.1-.43,4.71-.59l-1.78-6.92,9.86-2.64,1.91,6.79a42.3,42.3,0,0,0,4.42-1.91l-3.53-6.2,8.83-5,3.53,6a41.05,41.05,0,0,0,3.82-2.93l-5-5,2.21-2.64Z"/><path class="cls-3" d="M365.81,427.31v6.92h-5.9v44c2.94.13,1.78.3,2.21.43L394.39,447l-2.21-2.37,4.71-4.58a36.23,36.23,0,0,0-3.82-2.94l-3.23,5.74-8.84-5,3.23-5.61c-1.48-.72-2.93-1.31-4.41-1.91L378,436.67,368.18,434l1.62-6.32C368.61,427.61,367.26,427.31,365.81,427.31Z"/><path class="cls-3" d="M411.46,485.78H366.24a11.44,11.44,0,0,1-.89,2.21l31.38,30.78,2.93-3.1,5,4.84a36.45,36.45,0,0,0,2.93-3.82l-6.19-3.53,5.14-8.83,6.19,3.53c.73-1.48,1.32-2.93,1.91-4.42l-6.92-1.91,2.64-9.72,6.92,1.61c.3-1.48.43-3.39.59-4.84h-6.49v-2.8Z"/><path class="cls-3" d="M404.24,447.35l-4.58,4.58-3.23-3.23-31.67,31.67c.59.6.89,2.38,1.18,2.38h45.52v-2.94h6.19a52.11,52.11,0,0,0-.59-5.3L410.73,476l-2.63-9.86,6.32-1.77a39.47,39.47,0,0,0-1.91-4.42l-5.73,3.23-5.14-8.83,5.73-3.23C406.32,449.85,405.26,448.5,404.24,447.35Z"/><path class="cls-1" d="M367.26,546.45c32.4-3.82,55.83-30.35,55.83-62.29a63,63,0,0,0-126.09,0c0,32,23.13,58.47,55.53,62.29v10H312.78v13.25H407V556.47H367.26Zm-25-15.59-1.91,6.92c-1.49-.59-2.94-1.18-4.42-1.91l3.69-6.33-8.83-5-3.69,6.19a42.57,42.57,0,0,1-3.83-2.93l5.15-5.14-3.23-3.23L356,488.51c.72.73,2.5,1.19,2.5,1.49v44.49h-2.93v6.79c-1.48-.13-3.69-.43-5.44-.73l1.91-6.92Zm-28-26.36L307.91,508c-.73-1.48-1.32-2.93-1.92-4.41l7.09-1.91L310.44,492l-7.08,1.78c-.3-1.61-.43-3.52-.6-5h6.93v-2.93h44.49s.29.89.59,1.62L323.4,518.34,321,515.83l-5.14,5A36.45,36.45,0,0,1,313,517l6.33-3.69Zm-7.94-40.21c.59-1.48,1.19-2.93,1.91-4.42l5.9,3.4,5.14-8.83-5.73-3.4a41.05,41.05,0,0,1,2.93-3.82l4.71,4.71,2.64-2.64L355.46,481c-.29.42-.59,1.78-.72,1.78H309.82v-2.94H302.9a28.66,28.66,0,0,1,.72-5.44l6.49,1.49,2.64-9.86Zm24.59-21.23,8.83-5-3.4-5.74a27,27,0,0,1,4.59-1.78l1.78,6.49,9.85-2.63-1.91-6.5c1.61-.29,3.39-.42,4.84-.59v7.09h2.94v44c0,.13-1.19.43-1.78.89l-31.51-31.38,3.1-2.93-4.72-4.71a36.35,36.35,0,0,1,3.83-2.94Zm47.29-6.32,1.78-6.33a42.3,42.3,0,0,1,4.42,1.91l-3.23,5.6,8.83,5,3.23-5.73a41.05,41.05,0,0,1,3.82,2.93l-4.71,4.58,2.37,2.38L362,478.76c-.43-.3.72-.43-2.21-.43v-44h5.9v-6.92a30.26,30.26,0,0,1,4.12.59l-1.62,6.33Zm28.44,26.49,5.74-3.23c.72,1.49,1.32,2.94,1.91,4.42l-6.33,1.78,2.64,9.72,6.33-1.18a34.59,34.59,0,0,1,.59,5.3h-6V483H365.94c-.29,0-.72-1.78-1.18-2.38l31.67-31.67,3.23,3.1,4.71-4.71a35.14,35.14,0,0,1,2.93,3.82l-5.73,3.23Zm-9.16,64.53a36.23,36.23,0,0,1-3.82,2.94l-3.53-6-8.83,5,3.53,6.19c-1.49.73-2.94,1.32-4.42,1.91L378.6,531l-9.86,2.64,1.78,6.92c-1.48.3-3.23.43-4.71.6v-6.79h-5.9V490c2.94-.13,2.38-.43,3.1-1l31.67,31.08-2.5,2.63Zm24.32-39.05h-4.12c-.13,1.48-.29,3.23-.59,4.85l-6.92-1.78-2.64,9.85,6.92,1.91c-.59,1.48-1.18,2.93-1.91,4.42l-6.19-3.53-5.15,8.83,6.2,3.53a41.05,41.05,0,0,1-2.93,3.82l-5-5-2.94,2.94-31.37-30.49a7.9,7.9,0,0,0,.89-2.21h45.51v2.94h6.2l4-.07v0Z"/><rect class="cls-1" x="266.59" y="525.56" width="36.81" height="44.2"/><rect class="cls-2" x="271" y="532.91" width="4.42" height="10.32"/><rect class="cls-2" x="287.22" y="532.91" width="2.93" height="10.32"/><rect class="cls-2" x="294.57" y="532.91" width="4.42" height="10.32"/><rect class="cls-2" x="271" y="546.15" width="4.42" height="10.32"/><rect class="cls-2" x="278.39" y="546.15" width="4.42" height="10.32"/><rect class="cls-2" x="294.57" y="546.15" width="4.42" height="10.32"/><path class="cls-1" d="M256.27,432.75V422.43h-8.83v10.32h-28v137h39.78v-137ZM232.71,555H222.39V544.7h10.32Zm0-14.73H222.39v-11.8h10.32Zm0-16.22H222.39v-8.83h10.32Zm0-13.25H222.39V500.51h10.32Zm0-16.21H222.39V484.29h10.32Zm0-29.46H222.39V454.83h10.32Zm0-16.19H222.39v-8.83h10.32ZM244.51,555h-8.84V544.7h8.84Zm0-14.73h-8.84v-11.8h8.84Zm0-29.47h-8.84V500.51h8.84Zm0-16.21h-8.84V484.29h8.84Zm0-14.73h-8.84v-11.8h8.84Zm0-14.73h-8.84V454.83h8.84Zm0-16.19h-8.84v-8.83h8.84Zm11.76,91.33h-8.83v-11.8h8.83Zm0-16.22h-8.83v-8.83h8.83Zm0-13.25h-8.83V500.51h8.83Zm0-30.94h-8.83v-11.8h8.83Zm0-14.73h-8.83V454.83h8.83Z"/><rect class="cls-2" x="222.39" y="440.13" width="10.32" height="8.83"/><rect class="cls-2" x="235.67" y="440.13" width="8.83" height="8.83"/><rect class="cls-2" x="222.39" y="454.86" width="10.32" height="10.32"/><rect class="cls-2" x="247.44" y="454.86" width="8.83" height="10.32"/><rect class="cls-2" x="235.67" y="454.86" width="8.83" height="10.32"/><rect class="cls-2" x="247.44" y="468.11" width="8.83" height="11.8"/><rect class="cls-2" x="235.67" y="468.11" width="8.83" height="11.8"/><rect class="cls-2" x="222.39" y="484.29" width="10.32" height="10.32"/><rect class="cls-2" x="235.67" y="484.29" width="8.83" height="10.32"/><rect class="cls-2" x="222.39" y="500.51" width="10.32" height="10.32"/><rect class="cls-2" x="247.44" y="500.51" width="8.83" height="10.32"/><rect class="cls-2" x="235.67" y="500.51" width="8.83" height="10.32"/><rect class="cls-2" x="222.39" y="515.24" width="10.32" height="8.83"/><rect class="cls-2" x="247.44" y="515.24" width="8.83" height="8.83"/><rect class="cls-2" x="222.39" y="528.49" width="10.32" height="11.8"/><rect class="cls-2" x="247.44" y="528.49" width="8.83" height="11.8"/><rect class="cls-2" x="235.67" y="528.49" width="8.83" height="11.8"/><rect class="cls-2" x="222.39" y="544.7" width="10.32" height="10.32"/><rect class="cls-2" x="235.67" y="544.7" width="8.83" height="10.32"/><path class="cls-1" d="M732.6,569.72V480.9c0-39.19-52.43-65.09-52.43-65.09V569.72Z"/><rect class="cls-2" x="687.68" y="512.31" width="5.9" height="22.08"/><rect class="cls-2" x="698" y="512.31" width="5.9" height="22.08"/><rect class="cls-2" x="718.63" y="512.31" width="4.42" height="22.08"/><rect class="cls-2" x="687.68" y="484.29" width="5.9" height="19.15"/><rect class="cls-2" x="708.31" y="484.29" width="5.9" height="19.15"/><rect class="cls-2" x="718.63" y="484.29" width="4.42" height="19.15"/><rect class="cls-2" x="687.68" y="451.9" width="5.9" height="22.08"/><rect class="cls-2" x="698" y="451.9" width="5.9" height="22.08"/><polygon class="cls-1" points="623.71 569 605.26 424.08 608.49 351.84 596.06 351.84 585.84 271.56 575.62 351.84 563.2 351.84 566.43 424.08 547.98 569 623.71 569"/><polygon class="cls-2" points="608.38 489.55 563.31 489.55 562.78 493.73 608.91 493.73 608.38 489.55"/><polygon class="cls-2" points="609.62 499.29 562.07 499.29 561.36 504.87 610.33 504.87 609.62 499.29"/><polygon class="cls-2" points="611.22 511.86 560.47 511.86 560.12 514.63 611.57 514.63 611.22 511.86"/><polygon class="cls-2" points="612.28 520.22 559.4 520.22 558.69 525.8 612.99 525.8 612.28 520.22"/><polygon class="cls-2" points="613.7 531.36 557.99 531.36 557.46 535.54 614.23 535.54 613.7 531.36"/><polygon class="cls-2" points="615.3 543.93 556.39 543.93 556.03 546.71 615.65 546.71 615.3 543.93"/><polygon class="cls-2" points="616.37 552.29 555.32 552.29 554.97 555.07 616.72 555.07 616.37 552.29"/><polygon class="cls-2" points="597.67 405.41 574.02 405.41 573.49 409.59 598.2 409.59 597.67 405.41"/><polygon class="cls-2" points="598.91 415.14 572.78 415.14 572.07 420.73 599.62 420.73 598.91 415.14"/><polygon class="cls-2" points="600.51 427.71 571.18 427.71 570.83 430.49 600.86 430.49 600.51 427.71"/><polygon class="cls-2" points="601.57 436.07 570.12 436.07 569.41 441.66 602.28 441.66 601.57 436.07"/><polygon class="cls-2" points="602.99 447.21 568.7 447.21 568.17 451.39 603.52 451.39 602.99 447.21"/><polygon class="cls-2" points="604.59 459.79 567.1 459.79 566.75 462.56 604.94 462.56 604.59 459.79"/><polygon class="cls-2" points="605.65 468.15 566.03 468.15 565.68 470.92 606.01 470.92 605.65 468.15"/><polygon class="cls-2" points="591.46 356.64 580.23 356.64 579.87 359.42 591.82 359.42 591.46 356.64"/><polygon class="cls-2" points="592.52 365 579.16 365 578.45 370.59 593.24 370.59 592.52 365"/><polygon class="cls-2" points="593.94 376.14 577.75 376.14 577.21 380.32 594.48 380.32 593.94 376.14"/><polygon class="cls-2" points="595.54 388.72 576.14 388.72 575.79 391.49 595.9 391.49 595.54 388.72"/><polygon class="cls-2" points="596.61 397.08 575.08 397.08 574.73 399.85 596.96 399.85 596.61 397.08"/><polygon class="cls-2" points="607.25 480.69 564.44 480.69 564.08 483.46 607.61 483.46 607.25 480.69"/><path class="cls-1" d="M798.65,535.93v-81h-5V437.44h-3.42V428.2h-2V419h0s0-.08,0-.12a2.91,2.91,0,0,0-2.66-2.89v-8.35h-.54V416a2.9,2.9,0,0,0-2.65,2.89s0,.08,0,.12h0v9.23h-2v9.24H777v17.47h-5v81H741.73v33.79h87.19V535.93Z"/><circle class="cls-2" cx="785.32" cy="487.99" r="9.24"/><rect class="cls-2" x="776.09" y="459.38" width="18.47" height="9.94"/><path class="cls-2" d="M765.64,543.35h0a7.15,7.15,0,0,1,7.15,7.15v19.22a0,0,0,0,1,0,0h-14.3a0,0,0,0,1,0,0V550.5A7.15,7.15,0,0,1,765.64,543.35Z"/><path class="cls-2" d="M785.32,543.35h0a7.15,7.15,0,0,1,7.15,7.15v19.22a0,0,0,0,1,0,0h-14.3a0,0,0,0,1,0,0V550.5A7.15,7.15,0,0,1,785.32,543.35Z"/><path class="cls-2" d="M805,543.35h0a7.15,7.15,0,0,1,7.15,7.15v19.22a0,0,0,0,1,0,0h-14.3a0,0,0,0,1,0,0V550.5A7.15,7.15,0,0,1,805,543.35Z"/></g></svg>