<svg id="globe_2" data-name="globe 2" xmlns="http://www.w3.org/2000/svg" viewBox="0 0 1000 1000"><defs><style>.cls-1{fill:#eaeaea;}.cls-2{fill:#fff;}.cls-3{fill:#f3e9d4;}.cls-4{fill:#f2f2f2;}.cls-5{fill:#c5e2df;}.cls-6{fill:#7cbfe0;}.cls-7{fill:#f4f4f4;}.cls-8{fill:#e8e8e8;}</style></defs><g id="globe_2-2" data-name="globe 2"><path class="cls-1" d="M500,875.94c188.17,0,348.59-118.71,410.57-285.29H89.43c62,166.61,222.4,285.29,410.57,285.29"/><path class="cls-2" d="M500,19c231,0,418.94,188,418.94,419S731,856.94,500,856.94,81.06,669,81.06,438,269,19,500,19m0-19C258.13,0,62,196.1,62,438s196.1,438,438,438S938,679.87,938,438,741.9,0,500,0Z"/><path class="cls-3" d="M829.69,306.27c2.5-2.3,6.8-1.73,9.64,1.33"/><path class="cls-4" d="M892,591.22l.48-.57h-.57a8.52,8.52,0,0,0-1.36-3s-6.42-7.4-15-3.2a10.19,10.19,0,0,0-3.73,3c-.88-1-6.89-6.86-14.79-3a10.09,10.09,0,0,0-3.7,3c-.88-1-6.89-6.86-14.79-3a10.19,10.19,0,0,0-3.73,3c-.88-1-6.89-6.86-14.79-3a10.09,10.09,0,0,0-3.7,3c-.88-1-6.88-6.86-14.79-3a10.19,10.19,0,0,0-3.73,3c-.88-1-6.88-6.86-14.79-3a10.06,10.06,0,0,0-3.69,3c-.89-1-6.89-6.86-14.79-3a10.11,10.11,0,0,0-3.73,3c-.89-1-6.89-6.86-14.79-3a10,10,0,0,0-3.7,3c-.89-1-6.89-6.86-14.79-3a10.11,10.11,0,0,0-3.73,3c-.89-1-6.89-6.86-14.79-3a10,10,0,0,0-3.7,3c-.89-1-6.89-6.86-14.79-3a10.19,10.19,0,0,0-3.73,3c-.89-1-6.89-6.86-14.79-3a10.09,10.09,0,0,0-3.7,3c-.88-1-6.89-6.86-14.79-3a10.19,10.19,0,0,0-3.73,3c-.88-1-6.89-6.86-14.79-3a10.09,10.09,0,0,0-3.7,3c-.88-1-6.89-6.86-14.79-3a10.19,10.19,0,0,0-3.73,3c-.88-1-6.89-6.86-14.79-3a10.09,10.09,0,0,0-3.7,3c-.88-1-6.89-6.86-14.79-3a10.19,10.19,0,0,0-3.73,3c-.88-1-6.89-6.86-14.79-3a10.06,10.06,0,0,0-3.69,3c-.89-1-6.89-6.86-14.79-3a10.11,10.11,0,0,0-3.73,3c-.89-1-6.89-6.86-14.79-3a10,10,0,0,0-3.7,3c-.89-1-6.89-6.86-14.79-3a10.11,10.11,0,0,0-3.73,3c-.89-1-6.89-6.86-14.79-3a10,10,0,0,0-3.7,3c-.89-1-6.89-6.86-14.79-3a10.11,10.11,0,0,0-3.73,3c-.89-1-6.89-6.86-14.79-3a10,10,0,0,0-3.7,3c-.88-1-6.89-6.86-14.79-3a10.4,10.4,0,0,0-3.7,3c-.88-1-6.89-6.86-14.79-3a10.09,10.09,0,0,0-3.7,3c-.88-1-6.89-6.86-14.79-3a10.37,10.37,0,0,0-3.69,3c-.89-1-6.89-6.86-14.79-3a10,10,0,0,0-3.7,3c-.89-1-6.89-6.86-14.79-3a10.32,10.32,0,0,0-3.7,3c-.89-1-6.89-6.86-14.79-3a10,10,0,0,0-3.7,3c-.88-1-6.89-6.86-14.79-3a10.4,10.4,0,0,0-3.7,3c-.88-1-6.89-6.86-14.79-3a10.09,10.09,0,0,0-3.7,3c-.88-1-6.89-6.86-14.79-3a10.37,10.37,0,0,0-3.69,3c-.89-1-6.89-6.86-14.8-3a10.06,10.06,0,0,0-3.69,3c-.89-1-6.89-6.86-14.79-3a10.32,10.32,0,0,0-3.7,3c-.89-1-6.89-6.86-14.79-3a10,10,0,0,0-3.7,3c-.88-1-6.89-6.86-14.79-3a10.4,10.4,0,0,0-3.7,3c-.88-1-6.89-6.86-14.79-3a10.09,10.09,0,0,0-3.7,3c-.88-1-6.89-6.86-14.79-3a10.37,10.37,0,0,0-3.69,3c-.89-1-6.89-6.86-14.8-3a10.06,10.06,0,0,0-3.69,3c-.89-1-6.89-6.86-14.79-3a9.34,9.34,0,0,0-4.43,4,15.54,15.54,0,0,0-15-7.4c-8.19.83-9.42,6.2-7.65,9.58h-.16c62.8,79.61,168.2,86.69,390.72,86.75h2.4c217.25,0,322.84-6.86,386.18-81.25,2.74-1,4.55-2.56,4.29-5"/><path class="cls-3" d="M654.32,585.15a1.1,1.1,0,1,1-.5-1.49,1.06,1.06,0,0,1,.5,1.49Z"/><path class="cls-3" d="M644.46,582.08a1.08,1.08,0,1,1-1,1.93,1.06,1.06,0,0,1-.47-1.45h0A1.07,1.07,0,0,1,644.46,582.08Z"/><path class="cls-3" d="M639,581.17a1.08,1.08,0,1,1-1.45.47h0a1.06,1.06,0,0,1,1.45-.47Z"/><path class="cls-3" d="M633.46,580.25a1.08,1.08,0,1,1-1,1.93,1.12,1.12,0,0,1-.47-1.46h0a1.07,1.07,0,0,1,1.45-.47Z"/><path class="cls-3" d="M622.47,578.45a1.08,1.08,0,0,1-1,1.93,1.11,1.11,0,0,1-.48-1.46h0A1.05,1.05,0,0,1,622.47,578.45Z"/><path class="cls-3" d="M611.94,578.1a1.08,1.08,0,0,1-1.48.44"/><path class="cls-5" d="M230.1,180.21c3.1,0,4.39,2.87,4.74,6.38A443.08,443.08,0,0,1,449.56,37.45h0c-.41,0,24.62-7.43,30.62-8.75"/><path class="cls-6" d="M480.18,28.73C296.38,39,144.87,170.22,104.16,344.17q-4,17.29-6.61,35.11a415.44,415.44,0,0,0,2,130A405.66,405.66,0,0,0,119,581a14.63,14.63,0,0,1,7.65,2.53,402.48,402.48,0,0,1-20.89-75.35,409.65,409.65,0,0,1-2-128c1.68-11.6,3.86-23.23,6.51-34.55A405.29,405.29,0,0,1,250.87,123.13c55.9-44.88,120.79-77.34,190.31-87.95C253.33,70.92,111.3,239.75,111.3,438a405,405,0,0,0,26.87,145.57,10.49,10.49,0,0,1,3-.41,13.79,13.79,0,0,1,9.45,4.29,10.14,10.14,0,0,1,3.69-3,12.51,12.51,0,0,1,4.21-1.23A445.93,445.93,0,0,1,145.88,392.4c-2.69-.95-4.55-3.1-4.55-5.66,0-3.1,2.81-5.69,6.51-6.07a440.06,440.06,0,0,1,76.57-180.21,9.37,9.37,0,0,1-3.32-5.08"/><path class="cls-7" d="M163.32,637a408.3,408.3,0,0,0,65.26,86.5,442.57,442.57,0,0,1-46.33-77.4,208.29,208.29,0,0,1-18.93-9.1m-28.57-19.34a410.51,410.51,0,0,0,45.07,72.09c15.74,18.61,34.73,33.27,45.6,40.92h.83c-2.19-1.86-4.46-4-6.89-6.35h-.57a411.54,411.54,0,0,1-35.37-40.17c-2.12-2.56-3.38-4.17-3.38-4.17h.19a403.34,403.34,0,0,1-34-53.6q-5.92-4.12-11.44-8.72"/><path class="cls-8" d="M141.2,583.13a10.54,10.54,0,0,0-3,.41A405.71,405.71,0,0,0,163.35,637a201,201,0,0,0,18.9,9.07,441.66,441.66,0,0,1-23.7-62.83,12.46,12.46,0,0,0-4.2,1.23,10.09,10.09,0,0,0-3.7,3c-.7-.69-4.3-4.29-9.45-4.29M119,581q7,18.76,15.74,36.63c3.67,3.06,7.49,6,11.41,8.72a399.83,399.83,0,0,1-19.5-42.82A15,15,0,0,0,119,581"/></g></svg>