<svg id="globe_2" data-name="globe 2" xmlns="http://www.w3.org/2000/svg" viewBox="0 0 1000 1000"><defs><style>.cls-1{fill:#fff;}.cls-2{fill:#009447;}.cls-3{fill:#006838;}.cls-4{fill:#48c8f4;}.cls-5{fill:#a57049;}.cls-6{fill:#612e24;}.cls-7{fill:#a87947;}.cls-8{fill:#b34425;}.cls-9{fill:#fcb415;}.cls-10{fill:#ef403d;}.cls-11{fill:#91288d;}.cls-12{fill:#9e2063;}.cls-13{fill:#1b76bc;}.cls-14{fill:#e39825;}.cls-15{fill:#d91b5c;}.cls-16{fill:#6a1954;}.cls-17{fill:#00a99d;}.cls-18{fill:#1f4384;}.cls-19{fill:#4ec3c7;}.cls-20{fill:#f47827;}.cls-21{fill:#ed2027;}.cls-22{fill:#3d083b;}.cls-23{fill:#22356b;}.cls-24{fill:#f15b25;}.cls-25{fill:#33a3dc;}.cls-26{fill:#064d26;}.cls-27{fill:#f8ec0a;}.cls-28{fill:#d6df28;}.cls-29{fill:#df0884;}.cls-30{fill:#8b5a37;}</style></defs><g id="Layer_14" data-name="Layer 14"><path class="cls-1" d="M637.86,246.7a94.69,94.69,0,0,0-47.41-82.18A96.28,96.28,0,0,0,543,151.83H457a95.43,95.43,0,0,0-47.44,12.66,93.66,93.66,0,0,0-34.75,34.77,96.3,96.3,0,0,0-12.66,47.44v85.72a95.48,95.48,0,0,0,12.66,47.44,93.9,93.9,0,0,0,34.75,34.75,95,95,0,0,0,41.82,12.66H543a95.38,95.38,0,0,0,47.44-12.66,93.46,93.46,0,0,0,34.75-34.75,96.27,96.27,0,0,0,12.66-47.44V246.7Z"/><polygon class="cls-2" points="499.97 203.69 542.71 160.95 499.97 160.95 499.97 203.69"/><polygon class="cls-3" points="542.71 160.95 499.97 203.69 542.71 203.69 542.71 160.95"/><polygon class="cls-4" points="456.99 160.95 499.97 203.69 499.97 160.95 456.99 160.95"/><polygon class="cls-5" points="414.28 375.43 456.99 418.15 456.99 375.43 414.28 375.43"/><polygon class="cls-6" points="456.99 418.15 499.97 375.43 456.99 375.43 456.99 418.15"/><polygon class="cls-7" points="499.97 375.43 456.99 418.15 499.97 418.15 499.97 375.43"/><polygon class="cls-8" points="499.97 375.43 542.71 418.15 542.71 375.43 499.97 375.43"/><polygon class="cls-9" points="542.71 418.15 499.97 375.43 499.97 418.15 542.71 418.15"/><polygon class="cls-10" points="542.71 418.15 585.72 375.43 542.71 375.43 542.71 418.15"/><polygon class="cls-11" points="414.28 203.69 456.99 160.95 456.99 203.69 414.28 203.69"/><polygon class="cls-12" points="414.28 289.71 456.99 246.7 414.28 246.7 414.28 289.71"/><polygon class="cls-13" points="456.99 160.95 499.97 203.69 456.99 203.69 456.99 160.95"/><polygon class="cls-14" points="414.28 289.71 371.24 332.42 371.24 289.71 414.28 289.71"/><polygon class="cls-10" points="414.28 203.69 371.24 246.7 414.28 246.7 414.28 203.69"/><polygon class="cls-15" points="371.24 246.7 414.28 289.71 414.28 246.7 371.24 246.7"/><polygon class="cls-16" points="456.99 246.7 414.28 289.71 456.99 289.71 456.99 246.7"/><polygon class="cls-13" points="585.72 289.71 542.71 246.7 542.71 289.71 585.72 289.71"/><polygon class="cls-17" points="542.71 246.7 585.72 289.71 585.72 246.7 542.71 246.7"/><polygon class="cls-18" points="499.97 289.71 542.71 246.7 499.97 246.7 499.97 289.71"/><polygon class="cls-19" points="628.44 246.7 585.72 289.71 585.72 246.7 628.44 246.7"/><polygon class="cls-3" points="585.72 289.71 628.44 246.7 628.44 289.71 585.72 289.71"/><polygon class="cls-20" points="414.28 289.71 456.99 332.42 456.99 289.71 414.28 289.71"/><polygon class="cls-9" points="456.99 332.42 414.28 289.71 414.28 332.42 456.99 332.42"/><polygon class="cls-9" points="414.28 375.43 371.24 332.42 414.28 332.42 414.28 375.43"/><polygon class="cls-8" points="371.24 246.7 414.28 289.71 371.24 289.71 371.24 246.7"/><polygon class="cls-21" points="542.71 332.42 499.97 289.71 499.97 332.42 542.71 332.42"/><polygon class="cls-16" points="542.71 332.42 585.72 289.71 542.71 289.71 542.71 332.42"/><polygon class="cls-22" points="585.72 375.43 542.71 332.42 585.72 332.42 585.72 375.43"/><polygon class="cls-17" points="585.72 289.71 628.44 332.42 628.44 289.71 585.72 289.71"/><polygon class="cls-13" points="628.44 332.42 585.72 289.71 585.72 332.42 628.44 332.42"/><polygon class="cls-20" points="371.24 332.42 414.28 289.71 414.28 332.42 371.24 332.42"/><polygon class="cls-14" points="414.28 375.43 456.99 332.42 414.28 332.42 414.28 375.43"/><polygon class="cls-7" points="456.99 332.42 414.28 375.43 456.99 375.43 456.99 332.42"/><polygon class="cls-16" points="585.72 375.43 542.71 332.42 542.71 375.43 585.72 375.43"/><polygon class="cls-23" points="542.71 332.42 585.72 289.71 585.72 332.42 542.71 332.42"/><polygon class="cls-24" points="542.71 332.42 499.97 375.43 542.71 375.43 542.71 332.42"/><polygon class="cls-15" points="499.97 375.43 542.71 332.42 499.97 332.42 499.97 375.43"/><polygon class="cls-25" points="628.44 332.42 585.72 375.43 585.72 332.42 628.44 332.42"/><polygon class="cls-19" points="585.72 203.69 542.71 160.95 542.71 203.69 585.72 203.69"/><polygon class="cls-26" points="585.72 203.69 542.71 246.7 585.72 246.7 585.72 203.69"/><polygon class="cls-2" points="628.44 246.7 585.72 203.69 585.72 246.7 628.44 246.7"/><polygon class="cls-2" points="542.71 160.95 542.71 160.95 542.71 203.69 542.71 203.69 542.71 160.95 585.72 203.69 585.72 203.69 542.71 160.95"/><path class="cls-19" d="M585.72,203.69h0l43,43h0a85.59,85.59,0,0,0-11.47-43Z"/><path class="cls-27" d="M585.72,172.45V204h31.51A85.06,85.06,0,0,0,585.72,172.45Z"/><path class="cls-28" d="M585.72,172.45a85.26,85.26,0,0,0-43-11.47l43,43Z"/><path class="cls-29" d="M414.28,203.69h0l-43,43h0a85.5,85.5,0,0,1,11.48-43Z"/><path class="cls-15" d="M414.28,172.45V204H382.74A82.79,82.79,0,0,1,414.28,172.45Z"/><path class="cls-21" d="M414.28,172.45a84.45,84.45,0,0,1,43-11.47l-43,42.71Z"/><path class="cls-6" d="M414.28,375.43h0l-43-43h0a85.47,85.47,0,0,0,11.48,43Z"/><path class="cls-30" d="M414.28,406.67V375.46H382.74A84.28,84.28,0,0,0,414.28,406.67Z"/><path class="cls-7" d="M414.28,406.67a85.27,85.27,0,0,0,43,11.48l-43-42.72Z"/><path class="cls-4" d="M585.72,375.43h0l43-43h0a85.56,85.56,0,0,1-11.47,43Z"/><path class="cls-11" d="M585.72,406.67V375.46h31.51A86.66,86.66,0,0,1,585.72,406.67Z"/><path class="cls-29" d="M585.72,406.67a85.27,85.27,0,0,1-43,11.48l43-43Z"/><polygon class="cls-2" points="542.71 246.7 542.71 246.7 542.71 246.7 585.72 203.69 585.72 203.69 542.71 246.7"/><polygon class="cls-10" points="414.28 203.69 456.99 246.68 456.99 203.69 414.28 203.69"/><polygon class="cls-29" points="456.99 246.68 414.28 203.69 414.28 246.68 456.99 246.68"/><path class="cls-1" d="M405.12,452.63v8.82h15.31v6.19H405.12v12.07h-7.66v-33h25v6.19H405.1v-.27Z"/><path class="cls-1" d="M448.43,479.44,442,470.31h-7.07v9.13h-7.67v-33h14.42c8.83,0,14.42,4.73,14.42,12.07,0,5-2.35,8.56-6.78,10.31l7.37,10.62Zm-7.37-26.81h-6.18V464.1h6.18c4.73,0,7.07-2.05,7.07-5.89C448.13,454.7,445.79,452.63,441.06,452.63Z"/><path class="cls-1" d="M461.39,446.44h7.67v33h-7.67Z"/><path class="cls-1" d="M476.43,446.44h15c10.91,0,18.28,6.48,18.28,16.5s-7.37,16.5-18.28,16.5h-15v-33Zm14.71,26.81c6.48,0,10.91-3.83,10.91-10.31,0-6.18-4.43-10.31-10.91-10.31h-7.07V473h7.07v.29Z"/><path class="cls-1" d="M536.23,472.36H520.92L518,479.44h-8l14.71-33h7.67l14.71,33h-8Zm-2.35-5.88-5.29-12.67-5.29,12.67Z"/><path class="cls-1" d="M561,467.64v11.77H553.3V467.64l-12.67-21.2h8.27l8.82,14.72,8.83-14.72h7.37Z"/><path class="cls-1" d="M573.36,476.2l2.64-5.89a19.37,19.37,0,0,0,10.91,3.54c4.43,0,6.48-1.46,6.48-3.54,0-6.18-19.14-2.05-19.14-14.15,0-5.59,4.43-10.31,13.85-10.31a21.51,21.51,0,0,1,11.47,2.94l-2.35,5.89A18.08,18.08,0,0,0,588.1,452c-4.43,0-6.18,1.76-6.18,3.84,0,6.18,19.14,1.75,19.14,14.14,0,5.59-4.73,10.32-14.15,10.32C581.59,480,576.3,478.54,573.36,476.2Z"/></g></svg>