<?xml version="1.0" encoding="UTF-8"?><svg version="1.1" xmlns="http://www.w3.org/2000/svg" xmlns:xlink="http://www.w3.org/1999/xlink" viewBox="0 0 1500 1500" width="1500" height="1500" x="0px" y="0px">
              
              <!-- ITEM 0 -->
<g>
    <defs>
        
        <clipPath id="clip-path-id-viewbox-item-0">
            <rect x="0.0" y="0.0" width="85.546" height="222.796"/>
        </clipPath>
    </defs>
    <g transform="translate(510.0 31.0) rotate(7.071310798494467 279.5 729.5) scale(6.5344960605989755 6.5485915366523635)">
      <g clip-path="url(#clip-path-id-viewbox-item-0)" transform="translate(-0.0 -0.0)">
      
<path style="fill:#FFFFFF;" d="M37.529,13.996c-0.235-0.755-8.75,13-5.25,59l2,7C34.279,79.996,43.529,33.246,37.529,13.996z"/>
<path style="fill:#FFFFFF;" d="M28.779,63.496c0,0-6.5-11-15-11.5c0,0,4.5,11.75,18.5,21"/>
<path style="fill:#FFFFFF;" d="M40.029,101.996c0,0,0.5-22.75,3.75-23.25s-2.25,27.5-2.25,27.5L40.029,101.996z"/>
<path style="fill:#FFFFFF;" d="M44.779,126.496c0,0-1.75-10.5-6-8.5s6.75,14,6.75,14L44.779,126.496z"/>
<path style="fill:#FFFFFF;" d="M51.696,183.33c0,0-1.167-10-5.667-16.333s-8.417-2.333-5.083,4.333  c3.059,6.118,10.75,14.833,10.75,23.333"/>
<path style="fill:#FFFFFF;" d="M51.529,180.33c0,0,2.127-13.876,3.5-31.667c1.167-19.667,2.175-36.962,11.667-48.5  c8.5-10.333,17.167-5.5,18,4.167s-8.833,28-17.333,41.833c-8.5,13.833-16,31.333-15,44.833"/>
<g>
	
		<ellipse transform="matrix(0.9046 -0.4262 0.4262 0.9046 -8.1101 6.7487)" style="fill:#333333;" cx="11.025" cy="21.497" rx="4.087" ry="23.139"/>
	<path style="fill:#333333;" d="M20.528,43.014c-0.802,0-2.396-0.746-5.544-5.201c-2.577-3.647-5.453-8.749-8.1-14.366   C2.836,14.855-2.084,1.552,0.954,0.12c3.019-1.425,10.163,10.832,14.212,19.426c2.646,5.616,4.749,11.083,5.92,15.392   c1.913,7.038,0.48,7.713,0.01,7.935C20.978,42.929,20.797,43.014,20.528,43.014z M1.515,0.979c-0.055,0-0.103,0.01-0.143,0.029   c-1.358,0.64,0.419,9.328,6.398,22.022c2.623,5.566,5.469,10.616,8.014,14.218c2.949,4.172,4.464,4.944,4.894,4.738   c0.431-0.203,0.802-1.861-0.538-6.79c-1.157-4.256-3.238-9.666-5.86-15.231C7.694,5.985,2.761,0.979,1.515,0.979z"/>
</g>
<path style="fill:#333333;" d="M52.03,222.796c-0.007,0-0.015,0-0.021,0c-0.441-0.012-0.79-0.38-0.778-0.821  C54.19,112.962,18.671,39.578,18.312,38.85c-0.195-0.396-0.032-0.876,0.364-1.071c0.398-0.196,0.876-0.031,1.071,0.363  c0.36,0.732,36.053,74.444,33.082,183.875C52.818,222.453,52.462,222.796,52.03,222.796z"/>
<path style="fill:#333333;" d="M34.28,80.796c-0.355,0-0.671-0.235-0.77-0.58l-2-7c-0.015-0.052-0.024-0.105-0.028-0.159  c-1.78-23.4-0.396-38.146,1.08-46.395c1.438-8.037,3.598-13.254,4.774-13.479c0.396-0.079,0.836,0.188,0.957,0.576l0,0  c5.991,19.223-2.85,64.477-3.229,66.394c-0.072,0.362-0.383,0.629-0.752,0.644C34.302,80.796,34.29,80.796,34.28,80.796z   M33.072,72.855l1.04,3.642c1.893-10.669,7.24-44.137,3.101-60.667C35.053,20.378,30.356,37.051,33.072,72.855z"/>
<path style="fill:#333333;" d="M32.279,73.797c-0.151,0-0.305-0.043-0.44-0.133C17.785,64.379,13.22,52.772,13.032,52.283  c-0.098-0.254-0.059-0.54,0.102-0.759c0.16-0.22,0.426-0.333,0.692-0.326c8.824,0.519,15.367,11.428,15.642,11.892  c0.225,0.38,0.099,0.87-0.281,1.095s-0.871,0.099-1.096-0.281c-0.06-0.1-5.677-9.455-12.991-10.93  c1.589,3.246,6.672,12.121,17.621,19.355c0.368,0.244,0.47,0.74,0.226,1.108C32.793,73.67,32.538,73.797,32.279,73.797z"/>
<path style="fill:#333333;" d="M41.53,107.046c-0.337,0-0.641-0.212-0.754-0.534l-1.5-4.25c-0.032-0.091-0.048-0.187-0.046-0.284  c0.154-7.042,0.896-23.479,4.428-24.023c0.436-0.066,0.844,0.075,1.155,0.399c0.586,0.611,2.139,4.439-2.498,28.045  c-0.069,0.354-0.367,0.617-0.728,0.644C41.568,107.046,41.548,107.046,41.53,107.046z M40.832,101.868l0.466,1.318  c1.958-10.612,3.337-21.715,2.46-23.564C42.408,80.738,41.089,90.645,40.832,101.868z"/>
<path style="fill:#333333;" d="M45.53,132.796c-0.219,0-0.435-0.09-0.59-0.259c-0.888-0.969-8.652-9.577-7.878-13.506  c0.157-0.801,0.634-1.409,1.377-1.758c0.944-0.444,1.905-0.438,2.776,0.02c3.026,1.586,4.227,8.311,4.354,9.072  c0.001,0.008,0.003,0.016,0.004,0.023l0.75,5.5c0.047,0.346-0.137,0.684-0.453,0.832C45.761,132.772,45.645,132.796,45.53,132.796z   M39.83,118.544c-0.226,0-0.46,0.059-0.71,0.176c-0.283,0.133-0.43,0.319-0.489,0.62c-0.385,1.956,2.84,6.619,5.744,10.113  l-0.387-2.836c-0.312-1.861-1.548-6.876-3.517-7.908C40.26,118.599,40.049,118.544,39.83,118.544z"/>
<path style="fill:#333333;" d="M51.696,195.463c-0.441,0-0.8-0.358-0.8-0.8c0-5.865-3.825-11.865-7.2-17.158  c-1.328-2.083-2.582-4.051-3.466-5.817c-1.853-3.707-1.769-7.124,0.205-8.309c0.66-0.396,3.056-1.336,6.247,3.154  c4.566,6.427,5.76,16.288,5.809,16.704c0.051,0.439-0.264,0.836-0.702,0.887c-0.429,0.053-0.836-0.263-0.888-0.702  c-0.011-0.098-1.197-9.875-5.523-15.963c-1.784-2.51-3.35-3.167-4.119-2.709c-0.864,0.519-1.312,2.792,0.403,6.221  c0.846,1.691,2.078,3.625,3.384,5.672c3.492,5.478,7.45,11.687,7.45,18.019C52.495,195.105,52.137,195.463,51.696,195.463z"/>
<path style="fill:#333333;" d="M52.362,191.796c-0.415,0-0.766-0.32-0.797-0.741c-0.245-3.305,0.007-6.763,0.604-10.245  c-0.17,0.228-0.459,0.357-0.761,0.31c-0.437-0.067-0.736-0.475-0.67-0.912c0.021-0.139,2.139-14.054,3.493-31.607l0.006-0.097  c1.182-19.925,2.201-37.132,11.84-48.85c4.01-4.874,8.589-6.959,12.57-5.724c3.774,1.172,6.396,5.131,6.845,10.331  c0.871,10.092-9.008,28.584-17.448,42.321c-4.875,7.934-16.085,28.14-14.884,44.355c0.032,0.44-0.298,0.824-0.738,0.857  C52.402,191.796,52.381,191.796,52.362,191.796z M76.334,95.183c-2.891,0-6.085,1.919-9.021,5.488  c-9.309,11.316-10.314,28.282-11.479,47.928l-0.006,0.111c-1.078,13.971-2.637,25.644-3.248,29.957  c2.823-13.399,10.327-26.783,14.101-32.923c6.807-11.077,18.095-31.179,17.218-41.345c-0.392-4.539-2.585-7.965-5.726-8.94  C77.578,95.274,76.963,95.183,76.334,95.183z"/>
<path style="fill:#333333;" d="M52.531,179.797c-0.044,0-0.088-0.004-0.132-0.011c-0.436-0.072-0.73-0.484-0.658-0.92  c4.66-28.09,11.567-49.424,16.542-62.375c5.398-14.055,9.763-21.574,9.807-21.648c0.223-0.381,0.712-0.51,1.094-0.287  c0.382,0.223,0.51,0.713,0.287,1.094c-0.172,0.294-17.283,30.021-26.151,83.477C53.254,179.519,52.914,179.797,52.531,179.797z"/>
<path style="fill:#333333;" d="M65.781,127.046c-0.24,0-0.478-0.107-0.636-0.312c-0.269-0.351-0.203-0.853,0.147-1.122l17.25-13.25  c0.352-0.271,0.853-0.203,1.122,0.147c0.269,0.351,0.203,0.853-0.147,1.122l-17.25,13.25  C66.121,126.993,65.95,127.046,65.781,127.046z"/>
<path style="fill:#333333;" d="M62.281,137.797c-0.251,0-0.497-0.118-0.653-0.337c-0.256-0.36-0.171-0.859,0.189-1.115  l16.375-11.625c0.36-0.256,0.859-0.171,1.115,0.189c0.256,0.36,0.171,0.859-0.189,1.115l-16.375,11.625  C62.602,137.748,62.441,137.797,62.281,137.797z"/>

      </g>
    </g>
</g>

              </svg>