<?xml version="1.0" encoding="UTF-8"?><svg version="1.1" xmlns="http://www.w3.org/2000/svg" xmlns:xlink="http://www.w3.org/1999/xlink" viewBox="0 0 1500 1500" width="1500" height="1500" x="0px" y="0px">
              
              <!-- ITEM 0 -->
<g>
    <defs>
        
        <clipPath id="clip-path-id-viewbox-item-0">
            <rect x="0.0" y="0.0" width="63.708" height="213.35"/>
        </clipPath>
    </defs>
    <g transform="translate(681.0 337.0) rotate(6.20693413025074 171.0 579.5) scale(5.368242606893954 5.432388094680103)">
      <g clip-path="url(#clip-path-id-viewbox-item-0)" transform="translate(-0.0 -0.0)">
      
<path style="fill:#FFFFFF;" d="M25.408,140.05c0,0,2-16.25,9.75-35s16.75-21.5,19.5-18.5s2,13-11.75,31.5s-16.25,29.25-18,45.75"/>
<path style="fill:#FFFFFF;" d="M25.408,140.05c0,0,0.736-19.929-9.75-33.5c-8.5-11-17.75,2-14,14.75  c4.671,15.882,24,52.25,23.5,73.5"/>
<ellipse transform="matrix(0.3455 -0.9384 0.9384 0.3455 -4.9898 71.3187)" style="fill:#333333;" cx="48.633" cy="39.237" rx="35.119" ry="8.453"/>
<path style="fill:#333333;" d="M26.907,213.35c-0.408,0-0.757-0.311-0.796-0.725c-4.398-46.571-1.303-83.182,2.068-105.694  c3.656-24.419,8.427-38.015,8.475-38.149c0.147-0.417,0.602-0.634,1.021-0.486c0.416,0.148,0.634,0.605,0.486,1.021  c-0.189,0.534-18.841,54.396-10.457,143.157c0.041,0.44-0.282,0.83-0.722,0.872C26.958,213.349,26.932,213.35,26.907,213.35z"/>
<path style="fill:#333333;" d="M24.909,164.6c-0.028,0-0.057-0.001-0.085-0.005c-0.439-0.046-0.758-0.44-0.712-0.88  c1.623-15.303,3.764-26.782,18.154-46.143c6.069-8.167,10.197-15.538,11.938-21.316c1.279-4.25,1.229-7.676-0.137-9.166  c-0.612-0.669-1.626-0.918-2.862-0.7c-3.896,0.689-9.963,6.033-15.309,18.965c-7.62,18.437-9.676,34.631-9.695,34.792  c-0.054,0.438-0.447,0.755-0.892,0.696c-0.438-0.054-0.75-0.453-0.696-0.892c0.021-0.164,2.103-16.573,9.805-35.208  c7.038-17.028,14.415-19.559,16.509-19.929c1.789-0.316,3.323,0.108,4.32,1.194c3.177,3.466,2.02,14.062-11.698,32.518  c-14.182,19.082-16.203,29.865-17.846,45.357C25.66,164.295,25.313,164.6,24.909,164.6z"/>
<path style="fill:#333333;" d="M25.158,195.6c-0.006,0-0.013,0-0.019,0c-0.442-0.01-0.792-0.377-0.781-0.819  c0.34-14.446-8.624-36.039-15.826-53.39c-3.312-7.977-6.171-14.865-7.642-19.866c-2.529-8.601,0.656-16.872,5.22-19.202  c3.321-1.695,7.035-0.335,10.181,3.737c10.542,13.643,9.947,33.193,9.917,34.019c-0.018,0.442-0.438,0.774-0.829,0.77  c-0.441-0.016-0.786-0.387-0.771-0.829c0.008-0.197,0.599-19.805-9.583-32.981c-2.67-3.454-5.581-4.625-8.188-3.29  c-3.91,1.996-6.684,9.602-4.412,17.325c1.446,4.917,4.291,11.77,7.584,19.703c7.261,17.49,16.296,39.257,15.948,54.042  C25.947,195.254,25.592,195.6,25.158,195.6z"/>
<path style="fill:#333333;" d="M30.408,98.8c0,0,0.75-17.25,0-28.75s-2.752-16.378-5.167-14.5c-4.5,3.5,2.667,55.25,2.667,55.25  L30.408,98.8z"/>
<path style="fill:#333333;" d="M59.158,10.35c-0.105,0-0.212-0.021-0.315-0.065c-0.406-0.174-0.594-0.645-0.42-1.05l3.75-8.75  c0.175-0.408,0.643-0.593,1.051-0.42c0.406,0.174,0.594,0.645,0.42,1.05l-3.75,8.75C59.763,10.169,59.468,10.35,59.158,10.35z"/>

      </g>
    </g>
</g>

<!-- ITEM 1 -->
<g>
    <defs>
        
        <clipPath id="clip-path-id-viewbox-item-1">
            <rect x="0.0" y="0.0" width="78.454" height="216.838"/>
        </clipPath>
    </defs>
    <g transform="translate(305.0 440.0) rotate(-13.932637854690894 197.0 546.0) scale(5.022051138246616 5.036017672179231)">
      <g clip-path="url(#clip-path-id-viewbox-item-1)" transform="translate(-0.0 -0.0)">
      
<path style="fill:#FFFFFF;" d="M51.476,125.288c0,0-6.25-19-12.5-26s-10.845-3.626-9,7.75c3,18.5,25,33,29.5,55.75"/>
<path style="fill:#FFFFFF;" d="M49.309,117.872c0,0-3.167-21.167-2.667-35.833s6.075-15.077,7.833-11.667  c5.5,10.667-3.167,45.333-1.667,59.167"/>
<path style="fill:#FFFFFF;" d="M56.726,147.038c0,0-1-11.5,3.5-22.25s14.175-14.227,16.75-4.5c4.5,17-15,57-11.25,88.75"/>
<g>
	<path style="fill:#333333;" d="M32.726,65.497c0,0-1-11.208,8.302-18.125C41.028,47.372,42.765,58.654,32.726,65.497z"/>
	<path style="fill:#333333;" d="M32.726,66.297c-0.116,0-0.233-0.025-0.342-0.077c-0.257-0.121-0.43-0.37-0.455-0.652   c-0.042-0.476-0.93-11.736,8.621-18.838c0.227-0.167,0.522-0.204,0.781-0.098c0.26,0.106,0.444,0.341,0.487,0.619   c0.018,0.118,1.694,11.862-8.643,18.908C33.041,66.25,32.884,66.297,32.726,66.297z M40.348,48.943   c-5.824,5.058-6.736,11.973-6.84,14.982C39.857,58.854,40.431,51.927,40.348,48.943z"/>
</g>
<g>
	<path style="fill:#333333;" d="M38.791,84.896c0,0-8.816,0.517-15.411-12.647C23.381,72.25,34.733,73.445,38.791,84.896z"/>
	<path style="fill:#333333;" d="M38.629,85.7c-1.446,0-9.69-0.571-15.963-13.092c-0.132-0.261-0.109-0.573,0.057-0.814   c0.166-0.239,0.446-0.368,0.742-0.34c0.118,0.012,11.901,1.384,16.08,13.175c0.084,0.237,0.052,0.5-0.087,0.709   c-0.14,0.209-0.369,0.341-0.62,0.356C38.811,85.697,38.739,85.7,38.629,85.7z M24.861,73.339   c4.742,8.509,10.348,10.297,12.726,10.666C34.389,76.476,27.866,74.068,24.861,73.339z"/>
</g>
<g>
	
		<ellipse transform="matrix(0.8983 -0.4393 0.4393 0.8983 -9.9203 8.6676)" style="fill:#333333;" cx="13.765" cy="25.766" rx="5.324" ry="27.875"/>
	<path style="fill:#333333;" d="M25.525,51.528c-1.625,0-3.966-2.023-6.974-6.034c-3.239-4.318-6.834-10.398-10.121-17.12   C2.21,15.657-2.254,1.886,1.249,0.173c1.612-0.793,4.218,1.18,7.729,5.863c3.239,4.318,6.834,10.398,10.121,17.12   c6.22,12.718,10.685,26.489,7.182,28.202C26.05,51.472,25.798,51.528,25.525,51.528z M2.021,1.231   c-0.094,0-0.171,0.017-0.232,0.046C0.022,2.141,2.114,12.663,9.534,27.835c3.255,6.655,6.807,12.665,10,16.923   c3.696,4.928,5.639,5.775,6.208,5.497c1.767-0.864-0.326-11.386-7.746-26.558c-3.255-6.655-6.807-12.665-10-16.922   C4.698,2.378,2.795,1.231,2.021,1.231z"/>
</g>
<path style="fill:#333333;" d="M65.975,216.838c-0.419,0-0.771-0.326-0.798-0.75c-5.92-94.727-40.57-166.484-40.92-167.198  c-0.194-0.396-0.029-0.876,0.367-1.07c0.399-0.195,0.877-0.029,1.07,0.367c0.351,0.716,35.139,72.742,41.08,167.802  c0.027,0.441-0.308,0.821-0.749,0.848C66.009,216.838,65.991,216.838,65.975,216.838z"/>
<path style="fill:#333333;" d="M59.475,163.589c-0.374,0-0.708-0.264-0.784-0.645c-2.295-11.605-9.19-21-15.858-30.086  c-6.258-8.526-12.169-16.58-13.646-25.691c-1.032-6.369-0.131-10.734,2.475-11.976c2.143-1.019,4.949,0.247,7.912,3.565  c6.289,7.043,12.406,25.5,12.663,26.283c0.139,0.42-0.09,0.872-0.51,1.01c-0.417,0.138-0.872-0.089-1.01-0.51  c-0.062-0.188-6.271-18.922-12.337-25.717c-2.378-2.663-4.632-3.854-6.03-3.187c-1.458,0.695-2.64,3.76-1.583,10.276  c1.415,8.73,7.216,16.633,13.355,25c6.772,9.227,13.774,18.768,16.14,30.723c0.085,0.434-0.196,0.854-0.63,0.94  C59.578,163.583,59.526,163.589,59.475,163.589z"/>
<path style="fill:#333333;" d="M52.808,130.339c-0.403,0-0.75-0.304-0.794-0.714c-0.617-5.69,0.441-14.706,1.563-24.25  c1.569-13.361,3.349-28.505,0.188-34.636c-0.394-0.765-1.151-1.506-2.123-1.288c-1.752,0.394-3.903,3.934-4.199,12.615  c-0.492,14.424,2.626,35.477,2.657,35.688c0.065,0.437-0.235,0.844-0.673,0.909c-0.438,0.073-0.844-0.236-0.909-0.673  c-0.032-0.212-3.171-21.407-2.675-35.979c0.4-11.73,3.943-13.783,5.448-14.122c1.526-0.341,3.057,0.487,3.896,2.116  c3.386,6.565,1.654,21.303-0.021,35.556c-1.11,9.453-2.159,18.381-1.562,23.891c0.048,0.439-0.27,0.834-0.709,0.882  C52.865,130.337,52.836,130.339,52.808,130.339z"/>
<path style="fill:#333333;" d="M65.725,209.839c-0.4,0-0.745-0.299-0.794-0.707c-2.023-17.133,2.628-36.483,6.731-53.555  c3.53-14.69,6.58-27.377,4.54-35.084c-0.832-3.142-2.509-4.956-4.721-5.109c-3.699-0.241-8.018,3.74-10.518,9.713  c-4.367,10.433-3.451,21.759-3.441,21.872c0.038,0.44-0.288,0.828-0.728,0.866c-0.421,0.036-0.827-0.287-0.866-0.728  c-0.042-0.478-0.965-11.821,3.559-22.628c2.762-6.596,7.769-10.996,12.104-10.691c1.709,0.118,4.78,1.092,6.158,6.296  c2.144,8.097-0.95,20.966-4.531,35.868c-4.072,16.941-8.688,36.143-6.697,52.993c0.052,0.438-0.263,0.836-0.701,0.888  C65.787,209.837,65.756,209.839,65.725,209.839z"/>

      </g>
    </g>
</g>

              </svg>