<?xml version="1.0" encoding="UTF-8"?><svg version="1.1" xmlns="http://www.w3.org/2000/svg" xmlns:xlink="http://www.w3.org/1999/xlink" viewBox="0 0 1500 1500" width="1500" height="1500" x="0px" y="0px">
              
              <!-- ITEM 0 -->
<g>
    <defs>
        
        <clipPath id="clip-path-id-viewbox-item-0">
            <rect x="0.0" y="0.0" width="247.791" height="585.967"/>
        </clipPath>
    </defs>
    <g transform="translate(650.0 29.0) rotate(14.351143349506813 312.0 739.0) scale(2.518251268205867 2.5223263426097375)">
      <g clip-path="url(#clip-path-id-viewbox-item-0)" transform="translate(-0.0 -0.0)">
      <title>floral</title><g id="Слой_2-i0" data-name="Слой 2"><g id="Слой_175-i0" data-name="Слой 175"><path d="M61.268,23.145c1.609,0,1.923-1.088,1.924-2.338s-.313-2.087-1.924-2.087-2,.838-2,2.089.411,2.688,2.022,2.688C61.368,23.488,61.268,23.145,61.268,23.145Z" fill="#102b4c"/><path d="M244.968,320.2c-1.22-.148-2.412-.431-3.626-.477s-2.433.193-3.649.249-2.482-.331-3.69-.174-2.307.964-3.5,1.222-2.577-.2-3.745.16-2.359.755-3.494,1.208-2,1.528-3.1,2.073-2.33.819-3.379,1.452-1.879,1.25-2.874,1.965c.286-1.168.9-2.068,1.153-3.243s-.254-2.509-.026-3.69.683-2.317.881-3.5-.037-2.432.131-3.623.738-2.323.877-3.518-.155-2.427-.047-3.625.565-2.361.644-3.561-.043-2.442.006-3.644c.176-.177.917-.189,1.051-.452.582-1.137.854-2.428,1.535-3.487s1.675-1.924,2.4-2.958,1.335-2.157,2.042-3.207,1.561-2.02,2.184-3.128a29.122,29.122,0,0,0,1.433-3.538c.478-1.2.646-2.483,1-3.708s1.125-2.371,1.357-3.628.106-2.58.218-3.858.217-2.549.212-3.835.168-2.578.05-3.86a2.748,2.748,0,0,0-.838-1.6,2.387,2.387,0,0,0-3.555-1.2c-.988.716-1.986,1.432-2.894,2.226s-2,1.466-2.834,2.341-1.44,2-2.188,2.953-1.146,2.164-1.8,3.18-1.041,2.165-1.6,3.24-1.607,1.913-2.06,3.038-1.128,2.2-1.471,3.367-.028,2.5-.256,3.691-.195,2.387-.307,3.6-1.034,2.379-1.027,3.6c.006,1.2.765,2.391.889,3.607.131,1.283.519,2.266,1.52,2.515-.038,1.153.291,2.11.224,3.26s-.118,2.307-.215,3.455-.067,2.317-.192,3.462-.041,2.328-.2,3.47-1.2,2.156-1.381,3.294-.212,2.3-.423,3.429-.187,2.682-.425,3.809c-.457-1.087-1.126-2.458-1.645-3.521s-1.132-2.058-1.708-3.09-.938-2.181-1.568-3.18-1.279-1.987-1.958-2.952-1.241-2.03-1.967-2.959-1.571-1.778-2.342-2.669-1.943-1.42-2.756-2.27-1.565-1.757-2.419-2.565-1.494-1.871-2.387-2.632a4.618,4.618,0,0,0-6.267,2.368,16.414,16.414,0,0,0,.713,3.571,22.481,22.481,0,0,0,.813,3.531,34.345,34.345,0,0,0,.99,3.576c.547,1.092,1.636,1.9,2.259,2.95.636,1.065,1.54,1.93,2.2,2.926.7,1.059.967,2.358,1.629,3.314.636.917,1.176,1.906,1.847,2.792s1.625,1.556,2.334,2.413,1.111,1.987,1.855,2.813,1.807,1.363,2.586,2.158,1.763,1.365,2.575,2.128,1.5,1.763,2.339,2.493c-.347,1.143-.867,2.31-1.244,3.443s-.316,2.425-.722,3.548-1.47,2-1.9,3.115-.588,2.337-1.052,3.438-.94,2.2-1.432,3.287-1.345,2-1.865,3.081-1.09,2.116-1.638,3.178-.814,2.267-1.389,3.315-1.5,1.889-2.1,2.921-1.173,2.071-1.8,3.088-.587,2.458-1.241,3.459-2.064,1.489-2.744,2.472-1.352,1.956-2.057,2.921-.978,2.268-1.708,3.215a1.618,1.618,0,0,0-.642,1.128c-.27.343-.9.546-1.177.887.12-1.205.008-2.423.022-3.627s-.045-2.394-.118-3.6-.209-2.385-.352-3.586.2-2.461.007-3.655-.287-2.406-.514-3.594-.941-2.273-1.183-3.456.043-2.473-.2-3.654-.746-2.311-.972-3.493c-.215-1.121-.786-2.232-.924-3.382.113-1.5.7-3.022.538-4.482a24.31,24.31,0,0,0-.879-4.4c-.174-1.161-1-2.164-1.284-3.3s-.078-2.435-.521-3.521a22.07,22.07,0,0,0-1.894-3.423,23.621,23.621,0,0,0-2.341-3.09,19.4,19.4,0,0,0-2.168-2.342,10.96,10.96,0,0,0-2.16-2.245c-.909-.633-1.755-1.643-2.8-1.734-.969-.083-1.927.809-3.017,1.322a1.905,1.905,0,0,0-.835,2.464c.405,1.411.028,3.027.5,4.406.192,1.165,1.017,2.163,1.284,3.295s.846,2.18,1.192,3.293.713,2.2,1.141,3.287.607,2.267,1.115,3.322,1.189,2,1.776,3.015.941,2.155,1.6,3.127,1.134,2.076,1.867,3,1.367,1.931,2.164,2.8c.121.134.19.085.334.18.093.55.211,1.029.322,1.572.238,1.174,1.1,2.222,1.347,3.4s.33,2.385.568,3.56.57,2.34.779,3.519.656,2.343.815,3.528.189,2.419.278,3.613-.2,2.421-.2,3.62.047,2.4-.071,3.6a33.494,33.494,0,0,1-.856,3.5,30.516,30.516,0,0,1-.531,3.583,2.621,2.621,0,0,0-.073,1.245c-.774.839-2.085,1.245-2.873,2.071s-1.5,1.719-2.3,2.533-1.675,1.545-2.487,2.348-1.063,2.178-1.886,2.97-1.729,1.5-2.561,2.28-2.118,1.072-2.958,1.844-1.151,2.128-2,2.891-2.21.951-3.066,1.706-1.784,1.422-2.646,2.17-1.732,2.227-2.6,2.969c.238-1.224.662-2.848.786-4.075s.638-2.454.668-3.694-.454-2.478-.5-3.722-.444-2.437-.546-3.679c-.1-1.225.4-2.515.265-3.754-.136-1.222-.506-2.428-.662-3.667-.154-1.221.121-2.5-.036-3.744-.153-1.21-.969-2.374-1.107-3.638-.134-1.226-.146-2.483-.3-3.732s-.233-2.486-.439-3.717.034-2.581-.261-3.786a34.867,34.867,0,0,0-1.185-3.6,25.289,25.289,0,0,0-1.8-3.333,19.827,19.827,0,0,0-2.254-2.991,17.7,17.7,0,0,0-2.587-2.694,2.655,2.655,0,0,0-4.014.949,2.074,2.074,0,0,0-1.565,2.162c-.012,1.263-.3,2.522-.222,3.772s.291,2.5.452,3.746.17,2.529.419,3.758.487,2.486.824,3.695,1.221,2.248,1.644,3.432.776,2.377,1.285,3.529.752,2.425,1.342,3.538,1.3,2.154,1.973,3.224,1.5,2.013,2.243,3.034a3.312,3.312,0,0,0,1.49.911c.131,1.139-.528,2.459-.432,3.588s.573,2.244.615,3.377.214,2.285.182,3.421.155,2.317.027,3.451-.262,2.3-.5,3.421a32.587,32.587,0,0,1-1.131,3.271,31.861,31.861,0,0,1-1.178,3.328c-.978.812-2.137,1.521-3.117,2.329s-1.868,1.734-2.851,2.537c-.879.72-1.708,1.506-2.593,2.211s-2.129.966-3.019,1.664-1.746,1.42-2.639,2.115c-1.385.607-2.452,1.8-3.793,2.567-.9.518-1.751.751-1.713,1.547-.912.722-1.367,1.827-2.267,2.56s-1.961,1.271-2.847,2.021-1.981,1.267-2.849,2.038-1.645,1.652-2.49,2.45-1.345,1.941-2.162,2.768-1.794,1.487-2.577,2.348-1.954,1.387-2.7,2.284-.688,2.408-1.389,3.342-1.546,1.717-2.2,2.688c-.672,1-1.939,1.62-2.564,2.645s-.943,2.248-1.523,3.3-1.035,2.175-1.569,3.251-1.033,2.171-1.52,3.269-.887,2.233-1.327,3.351-.962,2.206-1.355,3.341-1.167,2.16-1.512,3.311.056,2.513-.241,3.678-.812,2.688-1.06,3.864c-.2-1.137-.164-2.746-.363-3.884s-.852-2.2-1.046-3.335-.2-2.309-.391-3.448-.438-2.268-.624-3.408-.406-2.274-.588-3.414.138-2.36-.04-3.5-.989-2.184-1.163-3.325.049-2.344-.12-3.486-.092-2.32-.258-3.462-.473-2.265-.634-3.408-.771-2.224-.928-3.368-.087-2.319-.24-3.464a2.716,2.716,0,0,0-.681-1.215c-.186-1.333-.136-2.711-.3-4.045s-.454-2.656-.6-3.992-.108-2.693-.239-4.031-.217-2.674-.332-4.014a1.223,1.223,0,0,0,.074-.159c.405-1.154,1.055-2.213,1.48-3.358s.431-2.448.877-3.585.528-2.427.994-3.557.913-2.276,1.4-3.4,1.371-2.106,1.876-3.219c1.15-.151,2.356-.155,3.478-.392s2.344-.246,3.444-.572,2-1.306,3.075-1.722,2.309-.48,3.343-.985,1.95-1.26,2.94-1.852,1.992-1.166,2.929-1.842,1.8-1.436,2.68-2.19,1.893-1.357,2.706-2.184,1.754-1.55,2.5-2.443a3.866,3.866,0,0,0,.278-3.151c-.293-.93-1.182-1.287-2.374-1.127-.963.13-1.856-.487-2.8-.311a2.531,2.531,0,0,0-2.779.266c-.416.283-.515,1.232-.934,1.51-1.052.276-2.171.407-3.2.748s-2.145.429-3.149.837-1.889,1.067-2.866,1.542-2.184.888-3.128,1.429c.564-1.048,1.219-2.243,1.8-3.281s.941-2.207,1.539-3.235,1.816-1.688,2.432-2.707,1.283-2,1.916-3,1.309-1.978,1.959-2.974c.185-.283-.22-.882-.159-1.155.675-1.064,1.184-2.243,1.861-3.305s1.339-2.135,2.019-3.195,2.064-1.666,2.749-2.723,1.383-2.1,2.072-3.157,1.254-2.187,1.951-3.236,1.113-2.284,1.817-3.329,1.435-2.069,2.147-3.108,1.632-1.932,2.353-2.965,1.253-2.2,1.985-3.222,1.317-2.156,2.06-3.173c.693-.95,1.766-1.616,2.479-2.552s1.349-1.927,2.078-2.852,1.4-1.893,2.135-2.81,1.635-1.7,2.38-2.613.992-2.231,1.739-3.14,2.122-1.306,2.866-2.217.816-2.37,1.553-3.287,1.751-1.612,2.477-2.538,1.133-2.094,1.843-3.032,2.02-1.432,2.71-2.385,1.313-1.963,1.978-2.934,1.365-1.929,2-2.92c.619-.966,1.091-2.029,1.654-3.014s1.283-1.921,1.8-2.934.586-2.259,1.049-3.3,1.372-1.91,1.784-2.972.748-2.175,1.109-3.255-.011-2.389.3-3.487,1.061-2.052,1.324-3.163c.33-.1.4-.538.711-.788.912-.722,2.1-1.107,2.995-1.849s1.8-1.492,2.67-2.259,1.931-1.355,2.779-2.15,1.141-2.17,1.956-3,1.505-1.758,2.28-2.623,1.5-1.747,2.231-2.654,1.952-1.431,2.625-2.381.945-2.159,1.554-3.154,1.24-1.949,1.776-2.987,1.323-1.94,1.779-3.02c.449-1.064.362-2.329.731-3.445.437-1.317.066-1.857-.869-2.308s-2.311-1.021-3.193-.332-1.494,1.706-2.4,2.38c-.892.663-1.947,1.122-2.85,1.793s-1.558,1.653-2.442,2.341-1.883,1.239-2.733,1.963-1.7,1.472-2.5,2.251-1.275,1.863-1.992,2.715a29.839,29.839,0,0,0-2.972,3.752c.063-1.2.566-2.492.594-3.7s-.656-2.421-.656-3.626.668-2.42.644-3.625-.277-2.409-.32-3.613-.424-2.4-.482-3.6-.486-2.386-.553-3.589c-.071-1.263.446-2.553.342-3.8-.1-1.259-.186-2.522-.36-3.759s-.176-2.549-.456-3.771-1.213-2.267-1.633-3.46a28.392,28.392,0,0,0-1.228-3.56,2.491,2.491,0,0,0-3.516-1.039c-1.046.646-1.168,1.979-.453,3.386.527,1.038.181,2.438.545,3.525s1.248,2.039,1.484,3.168.474,2.277.613,3.425.125,2.315.2,3.467-.317,2.327-.271,3.476-.006,2.317.044,3.46c.05,1.11.843,2.191.88,3.3s-.549,2.239-.528,3.351.707,2.217.707,3.329-.031,2.232-.055,3.343-.1,2.231-.154,3.341-.534,2.2-.621,3.306c-.1,1.252.032,2.521-.124,3.746-.159,1.244-.655,2.43-.874,3.646-.222,1.233-.02,2.553-.3,3.759s-1.205,2.265-1.553,3.455-.794,2.345-1.206,3.518-.13,2.618-.6,3.769-1.108,2.251-1.643,3.378-1.779,1.88-2.371,2.98-1.01,2.263-1.656,3.335-1.281,2.113-1.978,3.155-1.354,2.069-2.095,3.081c-.772,1.054-1.121,2.427-1.913,3.465s-1.9,1.837-2.705,2.864-1.528,1.6-2.345,2.623c.269-1.147.056-1.921.245-3.085s.82-2.26.935-3.435-.31-2.373-.261-3.553.451-2.337.441-3.518-.494-2.33-.557-3.509-.158-2.332-.267-3.507-.031-2.354-.181-3.524.235-2.415.051-3.578-.915-2.238-1.128-3.395-.2-2.364-.435-3.514-.664-2.272-.919-3.415c-.356-1.594-1.565-1.824-2.783-1.462a1.962,1.962,0,0,0-1.466,2.663c.022.1-.63.092-.608.192a3.176,3.176,0,0,0-.926,1.2c-.456,1.142-.641,2.394-1.047,3.549s-.605,2.387-.963,3.558-.978,2.278-1.287,3.463-.5,2.413-.755,3.611-.717,2.37-.926,3.578.266,2.522.108,3.739-.7,2.387-.8,3.609-.509,2.435-.565,3.661.709,2.471.7,3.7-.878,2.469-.833,3.7.95,2.405,1.045,3.63-.464,2.509-.319,3.729.947,2.344,1.141,3.558.214,2.5.456,3.7c-.786,1.014-1.3,2.289-2.074,3.314s-1.771,1.872-2.519,2.915c-.663.924-1.529,1.7-2.183,2.632s-1,2.069-1.651,3-1.169,1.952-1.808,2.892-1.349,1.829-1.981,2.773-1.924,1.451-2.551,2.4-.964,2.088-1.586,3.04-.985,2.07-1.6,3.025-1.627,1.656-2.241,2.612-.952,1.976-1.563,2.934a31.3,31.3,0,0,0,.532-3.388c.024-1.16-.452-2.322-.539-3.492-.085-1.152-.574-2.245-.755-3.407-.166-1.065.064-2.248-.134-3.392-.188-1.092.027-2.3-.226-3.405s-1.258-1.994-1.608-3.055a23.739,23.739,0,0,0-.884-3.254,14.719,14.719,0,0,0-2.175-2.548,2.313,2.313,0,0,0-4,.78c-.356,1.069-.545,2.286-.852,3.527-.278,1.127-.134,2.384-.352,3.613-.206,1.163-1.148,2.253-1.283,3.474-.131,1.189.275,2.444.227,3.659s-.01,2.407.038,3.611-.071,2.439.091,3.623a31.745,31.745,0,0,0,.311,3.663,23.331,23.331,0,0,0,1.638,3.3,18.743,18.743,0,0,0,1.473,3.365,15.285,15.285,0,0,0,2.763,2.433c-.135.214-.278.469-.413.683-.192.3-.555.468-.609.76-.639,1.056-.651,2.46-1.271,3.526s-1.562,1.944-2.163,3.021-.956,2.285-1.538,3.373-1.255,2.122-1.818,3.219-1.2,2.154-1.746,3.261-.91,2.3-1.434,3.412-1.11,2.2-1.616,3.325-1.488,2.042-1.974,3.176-.643,1.985-1.109,3.127c-.058-1.18-.567-1.932-.613-3.113s.742-2.389.707-3.569-.3-2.353-.32-3.534-.072-2.36-.084-3.541-.438-2.361-.44-3.542.64-2.36.649-3.541-.51-2.367-.491-3.548.524-2.352.552-3.533-.451-2.375-.413-3.556.113-2.361.159-3.541-.16-2.374-.105-3.554.243-2.355.306-3.534.664-2.329.736-3.508-.5-2.4-.422-3.578.792-2.313.879-3.491-.523-2.41-.429-3.587.555-2.326.655-3.5.5-2.328.607-3.5.384-2.335.5-3.511-.149-2.388-.031-3.563.5-2.323.618-3.5-.02-2.378.108-3.552c.005-.007.091.055.1.049.138-.062.281-.048.4-.141.317-.026.551-.349.863-.521,1.007-.557,2.135-.922,3.1-1.556s1.64-1.659,2.557-2.357,2.187-.958,3.06-1.711,1.334-1.957,2.165-2.755,1.96-1.3,2.753-2.131,1.091-2.117,1.849-2.982,1.912-1.4,2.638-2.282,1.4-1.842,2.1-2.747a31.728,31.728,0,0,0,1.988-3.127,33.726,33.726,0,0,0,1.559-3.367c.646-1.006,1.257-2.027,1.8-3.091s1.426-1.972,1.872-3.083,1.037-2.193,1.385-3.338.019-2.468.268-3.638.87-2.272,1.021-3.458-.293-2.416-.24-3.609.438-2.375.394-3.567-.411-2.356-.555-3.539c-.185-1.515-1.157-1.927-2.357-1.987-1.26-.062-2.542.276-2.442,1.957a21.1,21.1,0,0,1,0,2.889,26.89,26.89,0,0,1,.053,3.1,2.181,2.181,0,0,0-1.065,1.65c-.083.807-.629,1.539-.722,2.327a28.963,28.963,0,0,1-1.643,3.359c-.62,1.08-1.351,2.091-2.085,3.117s-1.315,2.145-2.119,3.115-2.011,1.562-2.858,2.488-1.663,1.872-2.529,2.769-1.546,2.01-2.411,2.9c-.825.846-1.9,1.466-2.7,2.329s-1.34,1.988-2.114,2.878-1.443,1.877-2.17,2.805-1.535,1.919-2.2,2.894c.149-1.2.618-2.452.771-3.652s.1-2.426.26-3.626.054-2.434.213-3.633.745-2.343.906-3.542.311-2.4.474-3.6-.108-2.458.057-3.657.206-2.414.373-3.612.477-2.381.645-3.578a2.843,2.843,0,0,0,.032-.643c.054-.549.2-1.094.262-1.643.136-.971.595-1.9.732-2.87s-.051-1.986.086-2.955c.047-.337-.258-.648-.32-.94.149-1.154.909-2.261,1.07-3.413s-.257-2.39-.083-3.539.495-2.281.679-3.43.71-2.241.905-3.388-.062-2.374.144-3.518.7-2.238.918-3.381.317-2.309.541-3.45,1.032-2.166,1.263-3.306-.174-2.411.063-3.549.652-2.241.9-3.378,1.061-2.149,1.31-3.284-.183-2.423.072-3.558.847-2.193,1.105-3.327.225-2.335.486-3.468.707-2.224.971-3.357.514-2.268.78-3.4.947-2.186,1.221-3.329-.24-2.472.037-3.614,1.105-2.148,1.382-3.29.613-2.269.888-3.411.495-2.3.765-3.442-.045-2.422.218-3.567.689-2.25.942-3.4.534-2.286.776-3.435.42-2.309.647-3.462.8-2.239,1.007-3.394.138-2.36.329-3.518.722-2.265.891-3.428-.058-2.377.086-3.542.18-2.434.3-3.6c.643-.958,1.467-1.92,2.149-2.838s1.856-1.448,2.577-2.338c.875-.9,1.312-2.209,2.2-3.085s2.182-1.354,3.084-2.209a2.516,2.516,0,0,0,.545-1.671c.872-.874,1.447-2.07,2.349-2.912s2.235-1.217,3.164-2.03,1.594-1.938,2.546-2.726,1.82-1.688,2.792-2.452,2.394-.938,3.381-1.682,1.963-1.488,2.962-2.215,1.556-2.068,2.563-2.781,2.157-1.23,3.172-1.934,2.21-1.144,3.228-1.841,1.958-1.514,2.978-2.208,1.862-1.654,2.88-2.348,2.509-.709,3.524-1.408c.918-.633,1.595-1.618,2.51-2.261s1.582-1.622,2.488-2.276,2.069-.951,2.962-1.62,1.524-1.68,2.4-2.367,1.694-1.442,2.555-2.151,1.96-1.529,2.8-2.263a29.411,29.411,0,0,0,3.082,1.921,26.929,26.929,0,0,0,3.195,1.116,30.419,30.419,0,0,0,3.349.491c1.1.135,2.232.321,3.364.35.89.023,2.181-.419,3.616-.391,1.146.022,2.4.618,3.626.531a17.57,17.57,0,0,0,3.578-.729,5.874,5.874,0,0,0,3.222-1.823,2.586,2.586,0,0,0-.241-3.265,5.548,5.548,0,0,0-2.555-2.326,22.733,22.733,0,0,0-3.446-.912c-1.109-.227-2.383.232-3.589.086-1.17-.143-2.276-1.145-3.444-1.224-1.224-.084-2.458.594-3.577.563-1.317-.036-2.8-.316-3.809-.3.891-.966,1.793-2.189,2.627-3.2s2.2-1.619,2.971-2.684,1.074-2.472,1.768-3.591a2.192,2.192,0,0,0,1.1-1.046c.722-1.392,1.718-2.457,2.406-3.864,1.087.185,1.927.538,3.024.673s2.251-.12,3.352-.07a31.043,31.043,0,0,0,3.3-.473,23.634,23.634,0,0,0,3.29-.159,22.336,22.336,0,0,0,3.347-.777c1.067-.4,2.13-.838,3.161-1.344.941-.34,2-.441,2.923-.852s1.734-1.065,2.636-1.526,1.557-1.338,2.438-1.836c1.074-.607,1.667-1.412,1.461-2.337a2.732,2.732,0,0,0-2.649-2.764c-1.248-.008-2.552-.239-3.881-.208-1.268.028-2.563.265-3.872.35-1.28.082-2.574.216-3.864.371s-2.648-.045-3.912.2c-1.28.248-2.357,1.329-3.585,1.689a36.468,36.468,0,0,0-3.954,1.191c.5-1.153.91-2.651,1.393-3.812s1.336-2.173,1.8-3.344.939-2.338,1.379-3.518.753-2.405,1.17-3.593.768-2.458,1.163-3.653c1.155.031,2.395.275,3.58.244,1.163-.03,2.361.077,3.534-.026s2.375-.125,3.531-.311,2.3-.628,3.432-.911a34.883,34.883,0,0,0,3.39-1.02,28.8,28.8,0,0,0,3.217-1.476,25.287,25.287,0,0,0,3.167-1.63,22.446,22.446,0,0,0,2.742-2.294,21.925,21.925,0,0,0,2.024-2.937,2.038,2.038,0,0,0-.18-2.7c-.645-.713-1.778-1.587-2.731-1.427-1.154.2-2.233.83-3.383,1.039s-2.374.08-3.518.315-2.288.551-3.423.826-2.323.44-3.444.767-2.025,1.358-3.125,1.751-2.162.837-3.235,1.308-1.954.428-2.989.985c.348-1.2.773-2.02,1.1-3.231s.3-2.516.6-3.734.923-2.361,1.2-3.583.566-2.451.822-3.679.116-2.545.349-3.778c1.2-.214,2.329-.964,3.595-1.309,1.2-.328,2.389-.669,3.6-1.113,1.185-.434,2.534-.464,3.688-1.007s2.513-.761,3.595-1.411c1.1-.663,1.682-2.081,2.666-2.854,1.019-.8,2.44-1.136,3.284-2.052a18.339,18.339,0,0,0,2-3.288,2.587,2.587,0,0,0-2.124-3.865,15.415,15.415,0,0,0-3.266.171A24.456,24.456,0,0,0,220.7,42.4c-1,.387-1.838,1.136-2.805,1.59-.983.462-2.182.448-3.129.9-1.195.571-2.061,1.731-3.191,2.384s-2.5,1.1-3.568,1.855c.107-1.418.06-2.92.119-4.34s.374-2.825.387-4.248c.136-.139.055-.371.169-.556.636-1.03,1.494-1.93,2.041-2.993s.969-2.219,1.431-3.324.353-2.419.724-3.561,1.518-2.066,1.8-3.237.235-2.42.418-3.611.662-2.361.75-3.566-.765-2.424-.77-3.635c0-1.349-.391-1.945-1.378-2.155a2.57,2.57,0,0,0-2.688.989c-.7.911-1.522,1.716-2.121,2.671s-1.053,2.021-1.56,3.032-.874,2.089-1.283,3.146-1.286,1.976-1.594,3.07-.432,2.258-.636,3.379S203.6,32.46,203.5,33.6s.183,2.267.182,3.412c0,.06.137.134.141.191-.015.122-.418.216-.416.348.017,1.314.289,2.63.267,3.941s-.637,2.6-.7,3.914-.184,2.6-.286,3.91c-.057.376.095.878.036,1.254-.418-1.045-.365-2.366-.864-3.377s-1.227-1.952-1.786-2.912c-.585-1.005-1.3-1.911-1.91-2.811a25.593,25.593,0,0,0-2.236-2.49,22.318,22.318,0,0,0-2.3-2.406,21.332,21.332,0,0,0-2.592-2.136c-.935-.562-2.2-.483-3.255-.917-1.176-.484-1.982-.466-2.473.344a2.9,2.9,0,0,0,.273,2.774c0,.377-.213.881-.032,1.293.467,1.06.483,2.328.948,3.408s1.249,2.011,1.746,3.068,1.088,2.081,1.662,3.094a29.067,29.067,0,0,0,2.273,2.676,16.125,16.125,0,0,0,2.543,2.917c1.009.849,2.012,1.731,2.963,2.608a10.9,10.9,0,0,1,2.254,3.185,2.585,2.585,0,0,0,1.3,1c-.246,1.194-1.008,2.3-1.276,3.487s.069,2.518-.222,3.7-.588,2.369-.9,3.546-.8,2.55-1.138,3.721c-.337-1.082-.758-2.39-1.167-3.436a28.287,28.287,0,0,0-1.06-3.258c-.528-.975-1.848-1.443-2.555-2.355-.775-1-1.217-2.247-2.069-3.168s-1.991-1.549-2.916-2.4-1.606-1.973-2.589-2.764-2.249-1.177-3.277-1.911c-1.506-1.075-3.042-.632-3.525.741-.515.4-.217,1.182-.147,2.065.012.138-.258.3-.244.436a2.469,2.469,0,0,0-.222,1.6c.178.649.49,1.246.72,1.855a27.5,27.5,0,0,0,.786,3.646,27.377,27.377,0,0,0,2.023,3.145,28.742,28.742,0,0,0,1.662,3.321,31.756,31.756,0,0,0,2.576,2.672,35.023,35.023,0,0,0,2.478,2.756c.921.8,2.237,1.111,3.246,1.837.992.714,1.657,1.934,2.722,2.574.331.2.38.071.727.1-.4,1.2,0,2.537-.414,3.726s-1.646,2.084-2.086,3.265-.334,2.567-.8,3.739-.686,2.446-1.171,3.61-1.364,2.408-1.873,3.561a31.615,31.615,0,0,0-1.465-3.479,29.436,29.436,0,0,0-1.208-3.341,31.423,31.423,0,0,0-2.268-2.741,33.44,33.44,0,0,0-2.107-2.82c-.784-.879-1.434-1.881-2.306-2.693s-1.935-1.35-2.871-2.09-1.408-1.985-2.4-2.655a2.843,2.843,0,0,0-1.584-.976c-.395-.138-.992.3-1.387.164-1.221-.424-2.2-.447-2.7.443A2.6,2.6,0,0,0,166.5,81.94a17.944,17.944,0,0,0,.77,3.459,20.529,20.529,0,0,0,.894,3.406,25.14,25.14,0,0,0,1.435,3.243,32.3,32.3,0,0,0,2.383,2.632c.707.919,1.4,1.867,2.2,2.722s1.758,1.536,2.623,2.314,1.5,1.881,2.41,2.586c.941.723,1.93,1.389,2.885,2.016,1,.66,1.97,1.094,2.957,1.636-.51,1.171-1.095,2.143-1.692,3.252s-.869,2.433-1.554,3.495-1.657,1.94-2.419,2.952-1.327,2.189-2.155,3.15-1.779,1.506-2.662,2.419c-.255-1.2-.939-2.076-1.274-3.289-.331-1.2-.553-2.414-.974-3.588s-.851-2.332-1.376-3.455a31.9,31.9,0,0,0-1.6-3.373,25.03,25.03,0,0,0-2.23-2.995,20.329,20.329,0,0,0-2.862-2.366,17.829,17.829,0,0,0-2.907-2.308,18.44,18.44,0,0,0-3.577-.993c-2.126-.588-2.859,1.178-2.468,2.82-.585.534-1.666,1.4-1.4,2.424.3,1.133.452,2.331.8,3.454s1.593,1.935,2.023,3.027a31.231,31.231,0,0,0,1.4,3.186,24.242,24.242,0,0,0,1.616,3.1,22.436,22.436,0,0,0,2.08,2.714,28.839,28.839,0,0,0,2.737,2.057c.892.706,1.646,1.6,2.6,2.236s1.982,1.139,2.956,1.733c-.012.027.018.176.007.2-.917.812-2.209,1.18-3.158,1.96s-1.641,1.865-2.613,2.615-1.684,1.851-2.674,2.576-2.3,1.012-3.3,1.718-2,1.416-3.014,2.108-1.877,1.613-2.89,2.3-2.383.865-3.394,1.545-1.692,1.894-2.7,2.578c-.956.65-1.774,1.5-2.727,2.154s-2.16.94-3.108,1.6-1.633,1.692-2.573,2.364-1.874,1.346-2.805,2.031-2.208.907-3.128,1.607-1.53,1.8-2.436,2.515-1.847,1.384-2.738,2.12-2,1.213-2.874,1.971-1.417,1.878-2.269,2.66-1.9,1.345-2.728,2.152-1.475,1.785-2.276,2.619-1.757,1.514-2.528,2.377-1.709,1.579-2.447,2.471c-.03.031.146.173.116.2.016-.569-.448-1.239-.44-1.808.229-.343.959-.641.994-1.139.029-.415.314-.755.343-1.169.144-.442-.2-1.012-.277-1.471.078-1.123-.158-2.263-.082-3.386s.259-2.239.332-3.362.537-2.223.606-3.346-.418-2.28-.354-3.4.325-2.236.384-3.36.164-2.289.217-3.413c1.231-.3,2.587-.325,3.788-.713s2.125-1.533,3.293-2.012,2.658-.255,3.786-.825,1.955-1.691,3.034-2.354,2.01-1.486,3.031-2.239c.645-.476,2.127-.462,3.149-1.253a24.709,24.709,0,0,0,2.166-2.531,8.259,8.259,0,0,0,1.75-2.707,3.105,3.105,0,0,0-.2-3.039,3.964,3.964,0,0,0-2.532-2.023c-.967-.143-2.063.7-3.171.9a24,24,0,0,0-3.082.671c-1.187.383-2.183.928-2.933,1.208-1.069.4-2.181.623-3.194,1.12s-1.965,1.106-2.928,1.7-1.9,1.212-2.8,1.9-2.072,1.6-2.91,2.372c.031-1.209.67-2.751.69-3.959s-.47-2.425-.462-3.634-.014-2.416-.02-3.625-.158-2.414-.178-3.622-.02-2.472-.055-3.68a3.922,3.922,0,0,0,1.211-.178c1.124-.3,2.221-.726,3.355-1.143,1.1-.405,2.3-.607,3.382-1.124a35.11,35.11,0,0,0,2.968-1.973,30.926,30.926,0,0,0,3.092-1.767,25.96,25.96,0,0,0,2.519-2.511c.831-.857,2.03-1.438,2.706-2.408s.6-2.387,1.092-3.474c.482-1.069,1.446-1.985,1.714-3.163a3.089,3.089,0,0,0-2.628-3.627,9.025,9.025,0,0,0-3.162.814A14.646,14.646,0,0,0,127,98.363c-.906.542-1.46,1.656-2.3,2.284-.878.653-1.838,1.161-2.645,1.761-.983.73-1.651,1.843-2.6,2.612s-2.071,1.315-2.988,2.122-1.8,1.164-2.691,2.006c-.077-1.25-.6-2.15-.7-3.4s.237-2.534.119-3.782-.451-2.472-.591-3.718-.145-2.507-.308-3.75-.7-2.428-.892-3.669c-.12-.791.188-1.552.059-2.341.843-.883,1.245-2.069,2.036-2.986s1.423-1.953,2.168-2.91,1.923-1.591,2.618-2.586,1.464-1.954,2.108-2.984.781-2.355,1.372-3.418,1.583-1.905,2.12-3,1.311-2.082,1.794-3.2.664-2.361,1.093-3.5c.65-1.728-1.354-3.456-3.071-2.828-1.1.4-2.466.219-3.369.815-.946.625-1.428,1.851-2.217,2.644a25.628,25.628,0,0,0-1.969,2.69c-.663.875-1.379,1.715-2.013,2.665-.552.826-1.56,1.37-2.122,2.216s-1.264,1.609-1.771,2.477a29.62,29.62,0,0,0-1.068,3.019c-.253-1.156-.273-2.482-.546-3.634s-.737-2.259-1.03-3.406-.431-2.336-.743-3.478-1.088-2.152-1.419-3.288-.051-2.458-.4-3.588-1.2-2.153-1.57-3.278a2.919,2.919,0,0,0,1.054-.884c.749-.372,1.544-.823,1.555-1.752.645-1.039,1.458-1.958,2.072-3.015s.871-2.321,1.431-3.4,1.313-2.091,1.8-3.208.6-2.388.987-3.546a32.77,32.77,0,0,0,.96-3.515,28.589,28.589,0,0,0,.823-3.578,27.556,27.556,0,0,0-.216-3.664c-.065-1.189-.874-1.676-1.862-1.977s-2.323-.606-2.959.526c-.564,1-1.176,2-1.8,3.037-.6,1-.487,2.446-1.09,3.475s-1.763,1.718-2.317,2.762-.9,2.209-1.372,3.285a31.826,31.826,0,0,0-1.7,3.183,21.652,21.652,0,0,0-.268,3.585c-.393-1.034-.657-2.1-1.076-3.12s-1.293-1.85-1.743-2.859-.712-2.1-1.2-3.092-1.22-1.848-1.749-2.818-.729-2.122-1.3-3.067-.816-2.1-1.44-3.017c.014-.036-.044.291-.031.254.426-1.162.56-2.4.922-3.534.376-1.175.2-2.474.5-3.626.311-1.188.681-2.314.908-3.49.231-1.2.987-2.295,1.126-3.493s-.245-2.437-.2-3.653c.04-1.2.355-2.4.294-3.622-.059-1.188-.569-2.343-.728-3.569-.152-1.172.034-2.417-.214-3.634A2.7,2.7,0,0,0,90.279.665a17.588,17.588,0,0,0-1.953,2.813,19.493,19.493,0,0,0-1.9,2.862,23.265,23.265,0,0,0-.934,3.3,29.362,29.362,0,0,0-.364,3.39c-.157,1.117-.727,2.206-.783,3.347s.485,2.276.5,3.412-.467,1.917-.393,3.043c-1.026-.573-2.035-.459-3.165-.974-1.086-.5-2.146-1.066-3.3-1.485-1.135-.412-2.207-1.045-3.378-1.361s-2.4-.427-3.585-.626c-1.214-.2-2.389-.892-3.579-.947a23.711,23.711,0,0,0-3.684.3,18.163,18.163,0,0,0-3.637.677c-.837.277-1.018,1.327-1.25,1.982-.544.58-1.528,1.2-1.5,2.135.035,1.406,1.284,2.374,2.374,3.076A20.261,20.261,0,0,0,63.086,27.5c1.016.386,2.078.735,3.118,1.032s2.234.039,3.294.264,2.1.533,3.172.7,2.175.06,3.251.194c1.056.131,2.148.29,3.254.433,1.08.14,2.121.838,3.212.907a20.88,20.88,0,0,0,3.117.069c.776.986,1.76,1.581,2.46,2.617s1.51,2.021,2.142,3.1.956,2.336,1.527,3.451.729,2.413,1.246,3.555,1.667,2.3,2.139,3.461a32.257,32.257,0,0,0-3.6-1.784c-1.175-.371-2.537-.014-3.758-.248a33.749,33.749,0,0,0-3.619-.708,33.506,33.506,0,0,0-3.69-.058,32.211,32.211,0,0,0-3.723-.025c-1.266.193-2.335.988-3.475,1.341-1.35.417-2.362,1.194-2.236,2.288.134,1.157,1.169,2.606,2.443,2.625a14.151,14.151,0,0,0,3.329,2.093,26.864,26.864,0,0,0,3.829,1.261c1.257.448,2.477,1.026,3.746,1.425,1.175.37,2.413.437,3.583.727,1.19.294,2.4.336,3.591.535s2.354.511,3.573.6c1.2.089,2.52.134,3.752.1.226.692.424,1.623.645,2.313.344,1.078.508,2.213.834,3.3s.332,2.257.64,3.346.863,2.106,1.154,3.2.266,2.265.539,3.363.645,2.167.9,3.27.854,2.182,1.092,3.288c-1.05-.752-2.266-1.346-3.363-1.978-1.177-.678-2.417-1.128-3.467-1.685-.977-.519-1.665-1.622-2.666-2.047s-2.222-.353-3.263-.68a30.694,30.694,0,0,0-3.162-.844,29.423,29.423,0,0,0-3.231-.571,29.665,29.665,0,0,0-3.274.266c-1.377.036-2.061.621-2.257,1.676-.209,1.119.048,2.548,1.175,2.984.087.089.026.273.134.358,1,.781,2.324,1.111,3.366,1.8s1.986,1.59,3.08,2.2,2.468.684,3.605,1.218,2.214,1.163,3.384,1.628,2.156,1.422,3.35,1.826,2.43.681,3.642,1.033,2.475.48,3.7.789c.261.318.161.706.491.83.165.961.661,1.749.815,2.712s.344,1.921.482,2.887c.184,1.293.706,2.544.862,3.838s-.228,2.653-.1,3.95.761,2.553.867,3.853.044,2.864.127,4.165c-.856-.8-2.193-1.417-3.107-2.134s-1.53-1.845-2.505-2.481-1.995-1.222-3.025-1.769-2.194-.8-3.27-1.254-2.071-1.092-3.185-1.45-2.2-.815-3.344-1.072-2.326-.246-3.49-.4c-.245-.033-.475.128-.7.154a2.238,2.238,0,0,0-2.08,1.505,1.82,1.82,0,0,0,.35,2.4c.8.843,1.7,1.534,2.587,2.307s1.222,2.2,2.165,2.89,1.955,1.333,2.95,1.947,2.442.415,3.48.949,2.007,1.151,3.081,1.6,1.927,1.521,3.029,1.891,2.328.442,3.453.726,2.338.25,3.48.442c.113.02.4.161.508.167.041,1.144-.516,2.324-.49,3.468s.829,2.276.841,3.42-.48,2.293-.481,3.438.1,2.289.09,3.434-.046,2.289-.07,3.433.124,2.715.09,3.859c-.937-.754-1.907-2.17-2.914-2.877s-2.117-1.252-3.168-1.868a35.1,35.1,0,0,0-3.29-1.625,27.935,27.935,0,0,0-3.347-1.573,21.3,21.3,0,0,0-3.673-.467,17.136,17.136,0,0,0-3.633.316c-.41.041-.745.394-1.12.62-.914.07-2.338.008-2.659,1.153-.3,1.064.575,2.14,1.1,3.152a9.715,9.715,0,0,0,1.894,2.529,20.816,20.816,0,0,0,2.641,1.822c.991.705,1.919,1.283,2.688,1.726a20.1,20.1,0,0,0,3.423,1.879,33.362,33.362,0,0,0,3.857.757,39.421,39.421,0,0,0,3.8,1.125,32.675,32.675,0,0,0,3.766.335c-.057,1.245.4,2.325.338,3.569s-.683,2.46-.755,3.7.084,2.5.007,3.746.029,2.5-.052,3.744-.54,2.463-.624,3.706.148,2.537.061,3.78c-.358.394-1.181.893-1.175,1.585.008,1.083.642,2.165.616,3.246s.131,2.179.075,3.259-.834,1.993-.916,3.072c-.887,1.007-1.262,2.327-2.122,3.363s-2.053,1.8-2.878,2.86-1.833,2-2.62,3.091-1.162,2.092-1.905,3.209c.118-1.163-.034-1.964,0-3.129s.388-2.33.347-3.5-.278-2.32-.388-3.486-.225-2.317-.394-3.478c-.16-1.093-.441-2.278-.6-3.533-.144-1.154-.213-2.362-.421-3.556a32.109,32.109,0,0,0-.871-3.466,17.712,17.712,0,0,0-1.179-3.371,10.014,10.014,0,0,0-2.351-2.632,2.369,2.369,0,0,0-4.034.9c-.372,1.118-.83,2.226-1.144,3.376s-.38,2.35-.622,3.512-.265,2.353-.425,3.526-.256,2.343-.319,3.521.068,2.348.116,3.526c.048,1.193-.6,2.444-.421,3.61a28.971,28.971,0,0,0,1.251,3.379,25.539,25.539,0,0,0,.894,3.458,24.567,24.567,0,0,0,2.077,2.909,23.671,23.671,0,0,0,2.214,2.772c.333.694.041,1.783.413,2.466.266.488,1.052.643,1.517.833-.537,1-1.363,1.88-1.856,2.9s-.639,2.206-1.083,3.244-1.373,1.905-1.762,2.965c-.41,1.114.04,2.51-.291,3.643s-.57,2.269-.824,3.422-1.232,2.176-1.408,3.344.138,2.406.038,3.584-.345,2.349-.368,3.531-.249,2.381-.2,3.563.791,2.311.918,3.487-.1,2.392.1,3.559.732,2.257,1,3.409.464,2.311.806,3.445.842,2.2,1.251,3.309.2,2.474.676,3.558,1.79,1.764,2.331,2.818c.016.031-.317.283-.3.313-.241,1.158-.436,2.327-.671,3.487s-.2,2.372-.428,3.533-1.2,2.18-1.423,3.343.179,2.44-.03,3.6-1.05,2.22-1.249,3.386.5,2.482.311,3.65-.639,2.292-.816,3.463-.788,2.277-.953,3.449-.582,2.313-.734,3.487.312,2.425.174,3.6-.03,2.381-.155,3.559c-.169,1.209-1.054,2.325-1.222,3.535s.467,2.531.3,3.741-.446,2.4-.612,3.614-.718,2.368-.882,3.579-.411,2.41-.572,3.622.093,2.476-.065,3.688-1.061,2.327-1.216,3.539.6,2.539.447,3.752-.623,2.384-.771,3.6-.423,2.41-.567,3.624-.684,2.381-.824,3.595.133,2.475,0,3.69-.26,2.43-.389,3.645-.272,2.428-.4,3.644-.014,2.454-.132,3.67-.338,2.422-.45,3.639.121,2.463.015,3.68-.418,2.416-.516,3.633-.243,2.431-.334,3.65-.714,2.4-.8,3.618-.251,2.435-.327,3.654.409,2.826.341,4.046c-1.034-.773-2.218-1.9-3.214-2.712s-1.662-2.009-2.623-2.864-1.8-1.7-2.727-2.6c-.239-.661-1.1-1.014-1.349-1.673.216-.263.688-.576.8-.986a27.244,27.244,0,0,0,.867-3.718c.167-1.259-.358-2.557-.329-3.823s.584-2.528.526-3.8-.778-2.483-.877-3.748-.131-2.534-.221-3.8c-.078-1.087.668-2.233.6-3.326s-.3-2.184-.4-3.269-.5-2.152-.688-3.224.048-2.3-.287-3.338-1.368-1.805-1.888-2.788a2.006,2.006,0,0,0-2.256-1.264,3.151,3.151,0,0,0-2.225,1.749c-.435,1.035-1.168,1.976-1.521,3.034s-.394,2.242-.663,3.325-.488,2.2-.669,3.3-.346,2.223-.433,3.339-.072,2.244-.063,3.367.459,2.2.566,3.323a33.8,33.8,0,0,0,.743,3.892c.279,1.308.445,2.962.83,4.239-.749-.963-1.8-2.157-2.511-3.148s-1.27-2.088-1.941-3.1-1.29-2.066-1.921-3.11-1.168-2.135-1.758-3.2-1.424-2-1.972-3.094-.643-2.39-1.148-3.5-.884-2.256-1.346-3.386-1.141-2.159-1.558-3.306-1.164-2.177-1.536-3.34-.964-2.268-1.29-3.445-.2-2.473-.479-3.662c-.042-.18-.32-.4-.387-.55.444-1.113.763-2.306,1.233-3.408s1.509-1.956,2-3.048,1.214-2.067,1.736-3.147.382-2.483.93-3.55,1.134-2.118,1.707-3.171a2.306,2.306,0,0,0-.724-3.293c-1.082-.651-2.965-.741-3.743.688-.58,1.068-.387,2.542-.94,3.619s-1.391,2.013-1.919,3.1-1.41,2.023-1.912,3.126-.293,2.521-.769,3.635-1.829,1.871-2.279,3-.157,2.544-.58,3.679-1.315,2.105-1.712,3.25-.468,2.4-.839,3.558-.823,2.284-1.167,3.447-.361,2.415-.678,3.585-1.419,2.141-1.71,3.318-.56,2.371-.824,3.554-.042,2.611-.28,3.8c-.461-1.125-1.095-2.31-1.594-3.407s-1.078-2.164-1.63-3.236-.756-2.353-1.37-3.391-1.578-1.871-2.265-2.865-1.371-1.984-2.138-2.922-1.764-1.634-2.614-2.5-1.674-1.687-2.608-2.475c-.913-.771-1.473-2.028-2.485-2.725-.979-.675-2.25-.937-3.33-1.537-1.709-.95-2.841.378-3.206,1.832-.787.593-1.242,1.195-.881,2.228.391,1.119.346,2.383.815,3.453s1.034,2.12,1.58,3.156,1.425,1.884,2.039,2.885,1.358,1.894,2.029,2.86.986,2.176,1.7,3.109,1.078,2.16,1.832,3.064,2.014,1.374,2.8,2.254,1.247,2.045,2.049,2.906,2.005,1.341,2.818,2.191,1.377,1.938,2.2,2.782,1.372,1.733,2.188,2.577c-.159,1.182.01,2.257-.124,3.442s.226,2.416.118,3.6-.274,2.362-.356,3.551-.924,2.335-.982,3.527.291,2.4.259,3.594.045,2.385.038,3.578-.315,2.387-.3,3.58.044,2.389.087,3.581.52,2.364.588,3.555-.352,2.415-.259,3.6.287,1.931.4,3.118c-.409-1.056-.251-1.837-.666-2.89s-1.176-1.972-1.6-3.022-.707-2.159-1.138-3.206-.733-2.151-1.173-3.194c-.485-1.153-1.418-2.11-2.015-3.215s-.819-2.425-1.473-3.5-1.73-1.879-2.394-2.94-1.573-1.99-2.2-3.067-.634-2.51-1.18-3.63a29.809,29.809,0,0,1-1.464-3.384c0-.561.125-1.035.158-1.607A2.861,2.861,0,0,0,9.7,355.347c-.021-.124-.164.078-.182-.047a2.475,2.475,0,0,0-2.559-2.171,3.583,3.583,0,0,0-2.777,2.184c-.531.4-.427,1.246-.488,2.078-.089,1.219.154,2.437.135,3.652s-.846,2.454-.8,3.668.685,2.409.8,3.619.07,2.451.257,3.653.914,2.3,1.169,3.493.035,2.493.356,3.668,1.2,2.175,1.585,3.33.385,2.442.834,3.575.793,2.317,1.3,3.423,1.617,1.909,2.188,2.986.852,2.3,1.482,3.344.846,2.362,1.532,3.37,2.092,1.494,2.832,2.463,1.516,1.875,2.309,2.8,1.034,2.342,1.877,3.224,1.766,1.7,2.656,2.534,1.981,1.445,2.916,2.23,1.919,1.525,2.9,2.257c.268,1.136.829,2.216,1.119,3.347s-.077,2.438.236,3.562,1.146,2.1,1.482,3.219.643,2.241,1,3.352.387,2.333.767,3.437,1.048,2.106,1.451,3.2.577,2.279,1,3.367,1.375,1.961,1.821,3.04.162,2.468.63,3.538,1.105,2.071,1.594,3.131,1.36,1.94,1.87,2.99.8,2.211,1.329,3.251,1.295,1.956,1.848,2.985,1.061,2.189,1.634,3.206c-1.333-.481-2.833-.724-4.177-1.182a32,32,0,0,0-3.955-1.593,31.41,31.41,0,0,0-3.795.006c-1.255-.093-2.482-.784-3.744-.811s-2.542.668-3.8.619-2.556-.109-3.8-.267c-1.982-.251-2.607,1.641-1.785,3.125a11.861,11.861,0,0,0,2.163,2.8,14.4,14.4,0,0,0,2.863,2.1c1.026.606,1.843,1.683,3.012,2.115a27.928,27.928,0,0,0,3.528,1.042,36.265,36.265,0,0,0,3.611.723c1.208.144,2.461.088,3.677.133,1.231.044,2.456-.348,3.657-.388,1.25-.042,2.477.064,3.653-.053,1.271-.126,2.306.062,3.439-.129.841,1.319,1.977,2.24,2.855,3.536.676,1,1.435,1.936,2.131,2.92s1.379,1.973,2.095,2.942,1.032,2.244,1.767,3.2,1.952,1.533,2.706,2.473,1.164,2.162,1.937,3.087,1.692,1.728,2.484,2.636,1.415,1.971,2.225,2.864,2.008,1.426,2.836,2.3,1.158,2.235,2,3.094,2.084,1.329,2.946,2.171,1.608,1.806,2.487,2.631,1.969,1.417,2.865,2.224,1.842,1.548,2.753,2.338,1.944,1.422,2.872,2.193c.371.308.476.845.873.924.267,1.3.1,2.7.371,4s1.156,2.475,1.434,3.775c.245,1.148-.136,2.432.113,3.58s.91,2.206,1.164,3.353,1,2.182,1.26,3.327.211,2.36.479,3.5.109,2.39.386,3.531,1.08,2.153,1.367,3.292.543,2.284.841,3.42.378,2.329.688,3.462.595,2.273.919,3.4.677,2.25,1.015,3.375.33,2.359.684,3.479.636,2.27,1.006,3.385,1.332,2.03,1.72,3.138.879,2.177,1.286,3.279.761,2.219,1.188,3.313.815,2.2,1.264,3.287.541,2.324,1.012,3.4,1.363,1.963,1.857,3.029.986,2.127,1.5,3.183.52,2.371,1.063,3.414c.754,1.451,2.432.991,3.516.328,1.051-.643,1.718-1.544.987-2.948-.565-1.088-1.037-2.225-1.573-3.324s-.955-2.259-1.465-3.37-1.426-2.052-1.91-3.175-.9-2.288-1.357-3.422-.823-2.314-1.26-3.457-.5-2.429-.91-3.581-.626-2.37-1.019-3.529-.647-2.357-1.021-3.523-1.242-2.23-1.6-3.4a31.077,31.077,0,0,0,1.913-2.945c.66-.944,1.681-1.65,2.252-2.662s1.088-2.043,1.576-3.1.543-2.27.961-3.352.786-2.158,1.148-3.257.754-2.182,1.072-3.289,1.38-2.036,1.667-3.146c.292-1.134.559-2.27.826-3.378.275-1.138-.36-2.48-.123-3.625s.663-2.245.864-3.4.543-2.279.708-3.437.871-2.255,1-3.417-.655-2.415-.561-3.581.773-2.291.832-3.459-.036-2.346-.011-3.516-.093-2.34-.1-3.511.088-2.335.046-3.5c.181-.39.162-.856.346-1.245a2.254,2.254,0,0,0-1.051-3.081c-1.087-.689-2.687-1-3.395.5-.507,1.071-.48,2.387-.962,3.466s-1.279,2.025-1.736,3.116-1.264,2.05-1.695,3.151-.317,2.417-.723,3.527-.973,2.168-1.353,3.288-.911,2.2-1.265,3.326-.3,2.382-.631,3.519-1.08,2.159-1.381,3.3-.5,2.319-.778,3.471-.015,2.421-.262,3.579-1,2.212-1.215,3.376-.5,2.32-.691,3.488-.1,2.383-.261,3.555-.276,2.025-.414,3.2c-.315-1.233-.319-2.231-.623-3.467s-.978-2.381-1.27-3.62-.076-2.593-.36-3.834-1.376-2.3-1.652-3.541-.578-2.481-.848-3.724-.585-2.479-.851-3.723c-.271-1.268-.275-2.594-.539-3.863s-.556-2.534-.816-3.8-.681-2.509-.935-3.78-.594-2.572-.844-3.844c.017-1.2.536-2.435.605-3.629s-.118-2.419,0-3.609.109-2.416.282-3.6.364-2.388.589-3.563.44-2.376.717-3.541,1.335-2.131,1.664-3.282.381-2.383.76-3.519.785-2.263,1.215-3.381.95-2.2,1.429-3.3.859-2.242,1.388-3.317,1.129-2.113,1.706-3.165,1.573-1.843,2.2-2.868.867-2.275,1.537-3.271c.656-.975,1.393-1.883,2.095-2.81s1.421-1.857,2.17-2.748,1.586-1.715,2.376-2.572,1.521-1.776,2.347-2.6,1.533-1.78,2.389-2.575,1.9-1.386,2.778-2.155,1.846-1.429,2.744-2.178,1.711-1.592,2.623-2.323,1.837-1.44,2.758-2.16,1.809-1.476,2.734-2.19c1.117-.5,2.348-.657,3.493-1.06s2.182-1.157,3.356-1.483,2.274-1,3.465-1.262,2.432-.333,3.634-.55,2.515.3,3.721.11,2.4-.39,3.6-.561,2.322-.978,3.527-1.149,2.451-.07,3.652-.257,2.421-.837,3.616-1.057a2.968,2.968,0,0,0,1.086.767,29.532,29.532,0,0,0,3.62.945,31.311,31.311,0,0,0,3.737.769c1.255.008,2.458-.96,3.7-1.1s2.543.172,3.771-.1,2.293-1.029,3.493-1.421c1.181-.386,2.444-.538,3.609-1.027.933-.392,2-1.016,3.21-1.51,1.054-.429,2.484-.212,3.564-.747a23.067,23.067,0,0,0,3.04-1.952c1.017-.728,1.454-1.993,2.086-2.913a4.876,4.876,0,0,0,.8-3.153c-.028-1.355-.64-2.929-2.017-2.934-1.172,0-2.344.405-3.511.436s-2.316.49-3.479.565-2.308.27-3.466.4-2.437-.531-3.586-.337-2.327.428-3.461.7-2.314.523-3.426.88-1.908,1.576-2.989,2.028-2.394.364-3.432.917-2.095,1.075-3.079,1.729a33.975,33.975,0,0,0-2.838,1.949c-1.21.253-2.319.465-3.538.678s-2.43.414-3.652.6-2.421.516-3.644.7-2.4.69-3.621.874-2.392.679-3.609.884-2.482-.058-3.692.182c.559-.455,1.161-.755,1.714-1.216s1.019-.96,1.557-1.411a2.274,2.274,0,0,0,1.937-1.174c.059-.118.242.032.3-.086.916-.772,1.32-2.119,2.23-2.9s2.267-1.038,3.173-1.819,1.5-1.925,2.4-2.714,1.756-1.631,2.649-2.427,1.759-1.626,2.644-2.431,1.884-1.49,2.761-2.3,1.823-1.559,2.691-2.383,1.638-1.753,2.5-2.587,1.792-1.6,2.638-2.441,1.425-1.956,2.258-2.815,2.148-1.262,2.967-2.134,1.036-2.3,1.84-3.189,2.155-1.287,2.943-2.187,1.492-1.882,2.262-2.8,1.216-2.254,1.967-3.185c1.277-.176,2.7-.048,3.953-.306s2.38-1.027,3.612-1.369,2.709.074,3.919-.349,2.124-1.614,3.307-2.115,2.514-.34,3.666-.914a21.088,21.088,0,0,0,3.645.348,23.8,23.8,0,0,0,3.761.124,27,27,0,0,0,3.653-.892c1.217-.255,2.606.041,3.8-.365a36.788,36.788,0,0,0,3.509-1.433c1.132-.523,2.193-1.256,3.28-1.882s2.108-1.376,3.138-2.081,2.228-1.241,3.2-2.013c.991-.785,1.486-2.147,2.4-2.974.945-.855,2.04-1.512,2.893-2.388a2.7,2.7,0,0,0-.384-4.1,10.834,10.834,0,0,0-3.639-1.36c-1.246-.232-2.533.23-3.824.351a22.558,22.558,0,0,0-3.788.414c-1.235.33-2.532.531-3.724.96-1.237.446-2.228,1.487-3.373,1.92-1.049.4-2.228.417-3.225.872-1.018.465-1.941,1.086-2.9,1.626a31.827,31.827,0,0,0-2.628,2.012c-.9.64-2.306.662-3.133,1.408a26.155,26.155,0,0,0-2.348,2.338c-.79.485-1.165,1.476-1.943,1.987-.152.1-.235.306-.357.424-1.24.627-2.663.863-3.931,1.388s-2.594.908-3.9,1.335-2.764,1.213-4.107,1.542c.715-.974,1.357-2.33,2.049-3.321s1.63-1.809,2.3-2.818,1.659-1.81,2.3-2.836.886-2.293,1.5-3.336,1.342-2.014,1.929-3.074,1.058-2.173,1.616-3.249.69-2.346,1.217-3.437,1.421-1.994,1.917-3.1.766-2.293,1.229-3.416c.413-1,1.4-1.766,1.788-2.772s.5-2.123.864-3.138.938-1.963,1.279-2.986.678-1.971,1-3a1.321,1.321,0,0,0,.64-.352c1.23-.064,2.44-.105,3.664-.223s2.47-.211,3.687-.387,2.377-.75,3.585-.986,2.313-.881,3.507-1.181,2.479-.227,3.656-.593c1.138-.354,2.444-.362,3.636-.77,1.15-.394,2.233-1.076,3.377-1.549s2.39-.778,3.47-1.353a26.308,26.308,0,0,0,3.2-1.946c1-.737,1.3-2.232,2.11-3.142.774-.865,1.681-1.73,1.315-2.547S246.038,320.331,244.968,320.2Zm-114.517,7.116c.01.006.3.081.312.087-.026.1-.249.43-.275.526C130.5,327.829,130.435,327.42,130.451,327.318ZM93.487,206.194c.5-1.165,1.2-2.247,1.761-3.389s.942-2.377,1.558-3.491,1.684-1.956,2.349-3.04.84-2.479,1.548-3.535,2.083-1.64,2.83-2.669,1.079-1.871,1.86-2.872c-.163,1.171-.018,1.973-.2,3.142s-.733,2.277-.941,3.443-.485,2.314-.711,3.477-.706,2.267-.948,3.426.263,2.475.009,3.631-.756,2.258-1.021,3.411-.124,2.4-.4,3.555-.959,2.206-1.237,3.356-.154,2.4-.436,3.552-.918,2.214-1.2,3.363-.38,2.345-.659,3.493-1.156,2.155-1.431,3.3-.132,2.4-.4,3.55c-.3,1.3-.917,2.53-1.214,3.831s-.443,2.639-.736,3.942-.609,2.379-.9,3.683c-.4-1.088-.692-1.949-1.021-3.058s-.872-2.176-1.126-3.305.01-2.361-.168-3.5-.618-2.253-.719-3.406-.109-2.316-.132-3.474.231-2.305.287-3.462.033-2.309.17-3.46.321-2.285.538-3.424.531-2.241.829-3.362.884-2.126,1.261-3.224S93.031,207.263,93.487,206.194Zm-57.5,174.1c.33-.588.939-1.022,1.29-1.594-.582,1.127-1.059,2.485-1.792,3.643C35.791,381.754,35.662,380.875,35.987,380.3Zm21.227,86.042a2.66,2.66,0,0,0,.532-1.331c-.007-.138-.248-.265-.255-.4-.031-.633.2-1.312-.16-1.728-.158-.257-.859-.349-1.01-.608-.053-1.7.868-4.269.735-5.447-.166-1.455-.38-2.942-.674-4.376s-1.263-2.709-1.689-4.111c-.335-1.1-.347-2.532-.812-3.837a13.813,13.813,0,0,0-1.7-3.552,5.9,5.9,0,0,0-3.217-2.476,2.665,2.665,0,0,0-2.947,2.851c.037,1.425-.118,2.888.035,4.282-.521-1.12-1.51-2.1-2.007-3.23s-.6-2.436-1.068-3.577-1.323-2.136-1.77-3.286-.545-2.44-.968-3.6-1.013-2.265-1.411-3.434-.2-2.533-.571-3.71-1.141-2.232-1.487-3.417-.37-2.459-.691-3.651S35.3,415.35,35,414.151s-.381-2.443-.649-3.648-.763-2.359-1-3.57-.72-2.38-.935-3.6.07-2.513-.117-3.734-.659-2.4-.819-3.622-.25-2.463-.382-3.691a11.033,11.033,0,0,0,3.11-1.312,16.052,16.052,0,0,0,2.427-2.344A25.247,25.247,0,0,0,38.715,386c.639-.924,1.288-1.857,1.84-2.8.582-1,1.362-1.863,1.869-2.792.575-1.053.9-2.282,1.445-3.4.532-1.091.688-2.364,1.149-3.5s.635-2.34.986-3.507,1.226-2.212,1.43-3.409a23.676,23.676,0,0,0,.618-3.668c.009-1.155-1.152-1.751-2.022-2.072a2.29,2.29,0,0,0-2.416.6c-.889.749-2.335.872-3.17,1.665s-1.169,2.116-1.955,2.959-1.989,1.341-2.723,2.233-1.1,2.085-1.778,3.022-1.3,1.9-1.923,2.882-1.384,2.152-1.949,3.168c-.016-1.182-.434-2.62-.424-3.8s.92-2.348.957-3.531-.082-2.363-.019-3.545-.464-2.4-.375-3.581.391-2.346.506-3.524.166-2.365.307-3.541.57-2.311.738-3.484a2.065,2.065,0,0,0,.124-.777c.142-.951.448-1.87.606-2.821.194-1.162.291-2.336.51-3.492s-.047-2.415.2-3.565.618-2.283.89-3.427.909-2.2,1.207-3.34.75-2.233,1.073-3.364.48-2.31.829-3.434.7-2.61,1.078-3.725c.353,1.154.857,2.607,1.252,3.745s.316,2.459.753,3.582,1.412,2.032,1.891,3.138,1.244,2.071,1.763,3.158.594,2.392,1.153,3.46,1.016,2.2,1.614,3.245,1.5,1.913,2.139,2.937.929,2.275,1.6,3.275,1.7,1.756,2.412,2.731,1.656,1.758,2.4,2.706,1.3,2.039,2.081,2.959,1.453,1.93,2.266,2.821,1.986,1.428,2.832,2.289,1.222,2.191,2.1,3.02,1.984,1.406,2.891,2.2,1.824,1.57,2.76,2.333,1.646,1.811,2.609,2.54,1.811,1.355,2.8,2.048c-.052,1.178.195,2.206.152,3.385s-.473,2.346-.508,3.524-.019,2.362-.044,3.541.763,2.372.748,3.551-.923,2.351-.929,3.53.01,2.363.015,3.542.579,2.355.594,3.535.224,2.352.25,3.532-.211,2.363-.174,3.542.252,2.349.3,3.528.128,2.352.188,3.53.15,2.351.222,3.529-.369,2.387-.284,3.564.052,2.364.149,3.54.684,2.309.793,3.483-.315,2.4-.192,3.576.646,2.159.783,3.331c-.706-1.1-1.637-1.892-2.393-2.963s-1.038-2.49-1.843-3.524-1.622-2.076-2.477-3.072c-.683-.8-1.9-1.254-2.7-2.165-.718-.825-1.044-2.071-1.839-2.929-.762-.822-1.646-1.577-2.467-2.377s-1.67-1.581-2.536-2.3a29.4,29.4,0,0,0-3.023-1.64,19.4,19.4,0,0,0-2.9-1.714c-1.077-.463-2.04-1.409-3.137-1.56A2.678,2.678,0,0,0,49.5,415.6c.393,1.111.979,2.157,1.43,3.286.439,1.1.115,2.541.611,3.645.487,1.085,1.559,1.909,2.1,2.986s1.347,1.975,1.941,3.02,1.186,2.054,1.834,3.061,1.064,2.158,1.772,3.122,1.569,1.8,2.341,2.712,1.353,2,2.194,2.848,1.553,1.878,2.466,2.645a36.081,36.081,0,0,0,2.789,2.328,32.573,32.573,0,0,0,3.128,1.865,30.258,30.258,0,0,0,3.336,1.461c1.111.42,2.518.209,3.7.49.286.62.515,1.419.789,2.046.059.137.239.249.311.363.17,1.2.6,2.369.772,3.569s.248,2.412.427,3.611.025,2.447.208,3.645.475,2.379.662,3.577.062,2.445.254,3.641.8,2.326,1,3.522.449,2.382.649,3.578-.271,2.5-.066,3.7.524,2.371.733,3.565.321,2.406.535,3.6,1.228,2.241,1.446,3.434.33,2.4.553,3.594-.2,2.5.026,3.7,1.241,2.245,1.473,3.434c0,.271-.255.312-.254.582-.92-.814-1.7-1.675-2.6-2.508s-2.445-.988-3.328-1.839-1.453-2.033-2.318-2.9-1.4-2.056-2.248-2.945-2.024-1.466-2.851-2.372-1.887-1.614-2.694-2.538-1.128-2.269-1.916-3.21-1.735-1.749-2.5-2.706-1.18-2.189-1.927-3.162-2.032-1.542-2.759-2.53-1.345-2.062-2.051-3.065-1.327-2.069-2.012-3.087S57.877,467.37,57.214,466.338ZM191.941,416.7c.182-.009.533.192.714.185-.175.1-.4.484-.581.582C192.079,417.374,191.945,416.789,191.941,416.7Zm-.078-110.025c.6.888,1.31,2,1.838,2.944s1.141,2.159,1.633,3.113c-.586-.892-1.134-2.154-1.675-3.091S192.316,307.637,191.863,306.673Z" fill="#102b4c"/><path d="M6.873,172.557c.36,1.165-.019,2.568.369,3.722s1.069,2.215,1.484,3.359.548,2.405.992,3.538,1.621,1.974,2.093,3.1.31,2.522.81,3.633.964,2.249,1.491,3.347S15.444,195.318,16,196.4s1.036,2.213,1.617,3.283,1.637,1.874,2.246,2.93,1.15,2.142,1.784,3.182,1,2.244,1.664,3.268,1.2,2.136,1.881,3.144,1.824,1.7,2.535,2.687c.147.2-.115.515.085.664-.181,1.1.06,2.222-.081,3.328s-.815,2.165-.9,3.278.108,2.254.076,3.371.521,2.22.556,3.339-.689,2.274-.579,3.391.765,2.149.955,3.26c.186,1.088.626,2.118.9,3.215a1.942,1.942,0,0,0,2.649,1.631,2.35,2.35,0,0,0,1.858-2.883c-.279-1.125-.911-2.18-1.092-3.3-.184-1.139-.187-2.317-.281-3.451s-.216-2.482-.231-3.624c.977-.633,2.386-.9,3.407-1.47s2.07-1.055,3.114-1.583,2.116-.971,3.169-1.478,2.108-1.006,3.158-1.513,2.156-.932,3.193-1.461,1.69-1.8,2.7-2.37,2.17-.906,3.139-1.547,1.719-1.568,2.629-2.3,2.247-.976,3.072-1.81a27.633,27.633,0,0,0,2.261-2.718,26.273,26.273,0,0,0,2.039-2.894,3.265,3.265,0,0,0-.386-3.088,2.134,2.134,0,0,0-2.665-.549c-1.059.414-2.21.7-3.333,1.137-1.071.417-2.028,1.185-3.136,1.631-1.074.433-2.2.775-3.286,1.241-1.072.459-2.146.912-3.215,1.409s-2.2.831-3.24,1.37-2.021,1.187-3.029,1.779-2.067,1.12-3.03,1.776c-.978.668-2.288.905-3.189,1.639-.918.749-1.6,2.1-2.416,2.925.183-1.227.62-2.617.85-3.842s.247-2.485.509-3.7,1.09-2.3,1.373-3.513.134-2.522.424-3.732.642-2.4.928-3.614.666-2.4.936-3.616.637-2.415.877-3.633.6-2.434.8-3.659-.474-2.577-.33-3.811.653-2.425.729-3.666.166-2.479.16-3.725c-.005-1.053.136-2.118.094-3.18s-.359-2.1-.433-3.155-.06-2.116-.162-3.172-.681-2.141-.808-3.193a18.4,18.4,0,0,0,.683-3.578,19.533,19.533,0,0,0,.312-3.638,23.915,23.915,0,0,0-.545-3.651,34.673,34.673,0,0,0-1.652-3.3c-.469-1.107-.832-2.27-1.388-3.366-.285-1.072-.609-2.121-.951-3.166s-.72-2.1-1.13-3.124-1.11-1.924-1.593-2.918-.733-2.11-1.293-3.065-1.177-1.876-1.817-2.785-1.406-1.7-2.124-2.554a2.03,2.03,0,0,0-1.565-.653c-1.438-.8-4.262-.238-4.373,1.954-.059,1.166.271,2.354.274,3.514s-.31,2.357-.246,3.515.66,2.3.786,3.45.7,2.243.885,3.39-.37,2.438-.121,3.574,1.067,2.137,1.377,3.258.517,2.268.887,3.371.876,2.149,1.306,3.232,1.114,2.035,1.6,3.093.178,2.506.721,3.537,1.4,1.9,1.994,2.9,1.761,1.625,2.411,2.594a2.832,2.832,0,0,0,1.929,1.223c.08,1.157-.421,2.54-.386,3.7s-.148,2.3-.166,3.462.227,2.314.148,3.471.394,2.375.246,3.526c-.165,1.28-1.175,2.435-1.391,3.707s-.062,2.606-.317,3.871-.286,2.58-.566,3.839-.817,2.462-1.109,3.717-.583,2.648-.875,3.9c-.3-1.217-.431-2.62-.79-3.815s-1.161-2.253-1.581-3.429-.665-2.419-1.147-3.572-.934-2.324-1.475-3.451-1.033-2.287-1.633-3.384-1.775-1.85-2.433-2.914-.884-2.4-1.6-3.425-1.265-2.183-2.033-3.173-1.856-1.715-2.676-2.664-1.893-1.636-2.762-2.54-1.658-1.848-2.574-2.707c-1.16-1.088-2.653-1.224-3.541-.361a2.874,2.874,0,0,0-.071,3.95C6.189,172.676,6.833,172.427,6.873,172.557Zm17.89,29.277c-.167-.283,0-1.061-.169-1.345.07-.011-.373.171-.3.154C24.385,200.941,24.671,201.535,24.763,201.834Z" fill="#102b4c"/><path d="M74.39,268.27c-.981.719-1.914,1.5-2.895,2.222s-1.667,1.841-2.648,2.56-1.972,1.424-2.953,2.143-2.346.815-3.326,1.534c.309-.4,1.116-.411,1.323-.94.432-1.1.877-2.255,1.391-3.444.479-1.11.336-2.532.838-3.7.486-1.128,1.343-2.121,1.807-3.286s.652-2.412,1.048-3.588.524-2.428.818-3.623a29.085,29.085,0,0,0,.615-3.623c.147-1.255,1-2.467.922-3.692a16.866,16.866,0,0,0-.7-3.728,7.842,7.842,0,0,0-1.953-3,7.111,7.111,0,0,0-2.892-2.187,7.249,7.249,0,0,0-3.666.149,6.751,6.751,0,0,0-3.368,2.43,11.663,11.663,0,0,0-1.867,3.644c-.466,1.274-1.394,2.41-1.9,3.693s-.488,2.757-.958,4c-.482,1.28-1.084,2.5-1.5,3.791-.406,1.277-.645,2.748-.958,4.1-.326-1.117-.777-2.362-1.137-3.47s-1.024-2.1-1.42-3.2-.882-2.138-1.315-3.221a4.725,4.725,0,0,0-3.194-3.087,5.917,5.917,0,0,0-1.176-1.669,24.031,24.031,0,0,0-1.793-3.983,5.911,5.911,0,0,0-1.56-2.844,4.375,4.375,0,0,0-3.052-.846,8.669,8.669,0,0,0-3.026-1.048,9.571,9.571,0,0,0-3.159.167,14.508,14.508,0,0,0-3.159.8,23.5,23.5,0,0,0-2.564,2.07c-.31.111-.728.09-1.037.211a5.2,5.2,0,0,0-2.681,2.643c-.114.072-.573-.275-.685-.195-1.018.028-1.765.953-2.619,1.492s-1.7.971-2.065,1.946a4.742,4.742,0,0,0-.355,3.022c.292,1.02.338,2.11.629,3.13s.995,1.923,1.286,2.943.512,2.061.8,3.081.743,2.056,1.035,3.076a36.807,36.807,0,0,0-4.343.776,39.322,39.322,0,0,0-3.913,1.967,33.994,33.994,0,0,0-3.3.969,20.589,20.589,0,0,0-3.022,1.643,6.863,6.863,0,0,0-2.623,3.008,8.674,8.674,0,0,0-.513,4c.138,1.285,1.238,2.326,1.845,3.5s.9,2.608,1.882,3.437c.946.8,2.224.746,3.336,1.037a10.642,10.642,0,0,0,3.373.5,25.431,25.431,0,0,0,3.707-.632,4.68,4.68,0,0,0,2.219,2.834,3.658,3.658,0,0,0,3.328.391c1.662-.6,3.425-.884,5.093-1.433.055,0,.38.064.435.058-.838,1.458-2.293,2.571-3.131,4.028-.128.223.207,1.033,0,1.422a4.817,4.817,0,0,0-2.2,1.253,18.511,18.511,0,0,0-2.133,2.95,25.2,25.2,0,0,0-1.933,3.129,25.386,25.386,0,0,0-1.649,3.363c-.329,1.225.046,2.57-.01,3.754a10.568,10.568,0,0,0,.056,3.7,6.932,6.932,0,0,0,2.042,3.179,8.6,8.6,0,0,0,3.408,1.714c.622.147,1.4-.341,2.04-.441,1.124.776,2.3,1.525,3.425,2.3,1.491,1.029,2.922,1.347,4.179.765a4.782,4.782,0,0,0,4.068-2.624c.594-.992,1.343-1.89,1.936-2.882s1.181-1.987,1.775-2.978.925-2.141,1.519-3.132,1.39-1.862,1.984-2.853,1.309-1.91,1.9-2.9.7-2.272,1.3-3.264,1.164-2,1.757-2.988,1.229-1.958,1.821-2.95,1.541-1.8,2.133-2.792c-.011.661.278,1.433.271,2.1-.461,1.161-1.477,2.176-1.82,3.377s-.161,2.534-.382,3.767a36.65,36.65,0,0,0-.481,3.7c-.081,1.064-.618,2.251-.616,3.512,0,1.137-.067,2.371.042,3.567.107,1.173,1.149,2.223,1.393,3.36a18.1,18.1,0,0,0,1.022,3.294c.479,1.133.461,2.526,1.208,3.371.853.966,2.175,1.016,3.2,1.328a5.494,5.494,0,0,0,3.217.011c1.087-.29,2.355-.332,3.266-1.087a9.1,9.1,0,0,0,1.838-2.933,15.781,15.781,0,0,0,1.5-3.265,20.366,20.366,0,0,0,.511-3.583,15.253,15.253,0,0,0,.437-3.787,28.888,28.888,0,0,0-.621-4.063c.868.282,1.978,1.243,2.841,1.484.9.252,2.055-.4,2.881-.135a3.7,3.7,0,0,0,3.418-.235c1.1-.666,2.507-1.373,2.836-2.658a6.35,6.35,0,0,0-.424-4.1c-.539-1.061-1.922-1.6-3.359-2.064-.934-.3-2.362-.633-3.677-1.062a3.6,3.6,0,0,1-2.55-2.363,3.005,3.005,0,0,1,.9-3.288,25.949,25.949,0,0,1,3.2-2.082c.962-.693,1.96-1.3,2.877-1.987.941-.7,1.894-1.4,2.769-2.153a30.636,30.636,0,0,0,2.179-2.766,22.849,22.849,0,0,0,2.52-2.455,4.685,4.685,0,0,0,.719-3.327,6.1,6.1,0,0,0-1.674-2.937,5.814,5.814,0,0,0-2.905-1.759A4.489,4.489,0,0,0,74.39,268.27ZM24.927,315.386s-.112.166-.108.162c.12.088.4-.3.528-.212C25.218,315.254,25.055,315.469,24.927,315.386Z" fill="#e12729"/><path d="M213.447,201.162a15.687,15.687,0,0,0-2.766-.77c-.909-.223-1.925.343-2.852.3-.429-.019-.808-.452-1.246-.384-.029-.449.284-.941.187-1.339a8.346,8.346,0,0,0-1.663-2.685,10.561,10.561,0,0,0-2.151-2.208,11.589,11.589,0,0,0-3.445-2c-1.22-.345-2.65.3-3.989.192a6.565,6.565,0,0,1-3.821-1.432c-.823-.634-1.155-1.853-2.232-3.348a17.3,17.3,0,0,0-2.561-2.635,12.649,12.649,0,0,0-3.161-1.783,9.593,9.593,0,0,0-3.416-1.272,9.411,9.411,0,0,0-3.578.773,7.676,7.676,0,0,0-2.55,1.771,15.616,15.616,0,0,0-2.054,2.335c-.623.847-1.287,1.621-1.958,2.416a5.274,5.274,0,0,0-1.262-3.969,4.589,4.589,0,0,0-3.688-2.048,16.962,16.962,0,0,0-3.514.276c-1.28-.736-2.948-.434-4.355.04a4.946,4.946,0,0,0-2.662-1.182,4.626,4.626,0,0,0-2.718.88c-1.207.746-2.324.283-3.431.058a13.78,13.78,0,0,1-3.253-1.23,12.549,12.549,0,0,0-3.6-.587,4.763,4.763,0,0,0-3.808.623c-1.2.658-2.852,1.192-3.187,2.691-.531,1.12-.09,2.551-.034,3.835-.459.254-.892.949-1.324,1.235-.149-.1-.31-.9-.541-1.057a6.353,6.353,0,0,0-3.008-.673,8.092,8.092,0,0,0-2.971.2,4.615,4.615,0,0,0-2.746,1.6,5.744,5.744,0,0,0-.963,3.092c-.054,1.2.193,2.383.246,3.564.053,1.2-.336,2.428-.184,3.6s.347,2.381.59,3.545,1.134,2.173,1.457,3.32.152,2.443.542,3.571.718,2.287,1.164,3.394,1,2.175,1.486,3.264,1.3,2.023,1.822,3.095.527,2.325,1.072,3.385c-.048.488.477.828.517,1.3a7.739,7.739,0,0,0,1.418,3.272,14.825,14.825,0,0,0,1.843,3.2c.893.9,2.184,1.331,3.1,2.068a13.2,13.2,0,0,0,2.728,1.737,20.076,20.076,0,0,0,2.938,1.571c1.049.288,2.212.177,3.314.465a27.907,27.907,0,0,1,3.226.906c1.185.463,2.117,1.618,3.3,1.936a35.094,35.094,0,0,0,3.7.783c1.221.19,2.522-.055,3.775.018,1.22.071,2.472.328,3.741.3,1.02-.02,1.99-.717,2.993-.84a15.968,15.968,0,0,0,3.042-.228,5.224,5.224,0,0,1,2.868-.02,21.839,21.839,0,0,1,2.93.455,27.957,27.957,0,0,0,3.472.649c1.156.122,2.351-.549,3.517-.572a26.857,26.857,0,0,0,3.456-.121,24.72,24.72,0,0,0,3.344-.867,25.586,25.586,0,0,0,6.944-2.6,26.481,26.481,0,0,0,2.752-2.526,27.47,27.47,0,0,0,2.856-2.393,29.39,29.39,0,0,0,2.029-3.124,30.519,30.519,0,0,0,2.017-3.114,33.373,33.373,0,0,0,1.876-3.26c.191-.507-.122-1.231-.093-1.69a18.04,18.04,0,0,0,2.691-.786,13.278,13.278,0,0,0,2.5-1.148,11.283,11.283,0,0,0,2.486-2.59c.755-.949,1.988-1.708,2.406-2.842a10.9,10.9,0,0,0,.642-3.727c-.015-1.284-1.069-2.286-1.553-3.323a8.087,8.087,0,0,0-2.08-2.712C215.147,203.031,214.575,201.679,213.447,201.162Z" fill="#e12729"/><path d="M221.9,205.05a9.626,9.626,0,0,0-1.538-3.308,8.428,8.428,0,0,0-2.76-2.295,11.919,11.919,0,0,0-3.219-1.732,19.751,19.751,0,0,0-3.652-.241,25.334,25.334,0,0,0-3.361-.034c.266-1.076-.17-1.88-.333-2.9a5.587,5.587,0,0,0-1.009-2.96,6.816,6.816,0,0,0-2.559-2.023c-.984-.393-2.138.154-3.2.148s-2.125.089-3.159.063a7.78,7.78,0,0,1-3.195-.755c-1.258-.635-2.054-2.125-2.933-3.4a20.439,20.439,0,0,0-2.555-3.631,9.518,9.518,0,0,0-3.015-1.691,10.127,10.127,0,0,0-3.374-.342,14.584,14.584,0,0,0-3.406-.01,23.923,23.923,0,0,0-3.313.907c-1.093.385-2.263,1.131-3.284,1.593a5.625,5.625,0,0,0-2.334-2.73,8.274,8.274,0,0,0-3.448-1.071,15.444,15.444,0,0,0-3.6.431,39.875,39.875,0,0,0-4.823,1.752c-1.687.661-2.932,1.249-4.245,1a14.421,14.421,0,0,1-4.125-1.735,29.715,29.715,0,0,0-2.826-1.052c-.931-.4-1.682-1.276-2.665-1.5a12.9,12.9,0,0,0-3.042-.409,11.32,11.32,0,0,0-3.528.574,10.655,10.655,0,0,0-2.895,2.036,9.211,9.211,0,0,0-1.98,2.771,8.609,8.609,0,0,0-1.513,3.062,9.049,9.049,0,0,0-3.3-1.057c-1.091-.014-2.075.77-3.177,1.327a5.23,5.23,0,0,0-2.788,2.848,9.308,9.308,0,0,0-.3,4.095c.094,1.293.4,2.546.591,3.849.192,1.286-.084,2.652.161,3.939s.947,2.48,1.2,3.757-.162,2.7.055,3.974c.188,1.108,1.118,2.09,1.318,3.2s-.27,2.346-.042,3.451.379,2.24.652,3.332.907,2.1,1.243,3.173,1,2.025,1.418,3.07.5,2.234,1.018,3.238a30.977,30.977,0,0,0,1.651,2.965,28.28,28.28,0,0,0,2.128,2.642,25.2,25.2,0,0,0,2.568,2.835,22.133,22.133,0,0,0,3.2,2.094,20.023,20.023,0,0,0,3.46,1.571,19.232,19.232,0,0,0,3.65,1.109,19.7,19.7,0,0,0,3.829.333,21.183,21.183,0,0,0,3.736-.721c.968.714,2.227.658,3.439.976,1.146.3,2.246,1.006,3.49,1.065a35.328,35.328,0,0,0,3.675.087c1.276-.076,2.524-.144,3.655-.246,1.474-.135,2.955-1.026,4.37-1.368a11.788,11.788,0,0,0,3.635,1.794,18.61,18.61,0,0,0,3.927.756,30.873,30.873,0,0,0,4.045.111c1.392-.155,2.662-.921,3.876-1.171a31.592,31.592,0,0,0,3.777-1.077,32.092,32.092,0,0,0,7.091-3.35c1.111-.707,2.535-1.03,3.547-1.864s1.344-2.419,2.238-3.377a23.135,23.135,0,0,0,2.221-2.824,20.484,20.484,0,0,0,2.065-2.986,13.343,13.343,0,0,0,1.029-3.519c.4,0,1.086.186,1.518-.064a26.731,26.731,0,0,0,3.268-1.984,29.029,29.029,0,0,0,2.686-2.72,24.4,24.4,0,0,0,2.472-2.9,18.491,18.491,0,0,0,1.755-3.387,13.436,13.436,0,0,0,.815-3.7A11.1,11.1,0,0,0,221.9,205.05Zm-40.173-20.266a5.14,5.14,0,0,1,3.251,1.315,20.3,20.3,0,0,1,2.5,2.674c.877,1.139,1.455,2.549,2.483,3.446a9.177,9.177,0,0,0,3.858,1.816c1.6.4,3.245.2,4.8.49.93-.189,1.829-.363,2.383.609,1.735.547,1.805,1.558.593,2.67-.438,1.183-1.608,1.932-2.5,2.775-.846.8-1.324,2.038-2.253,2.682a24.31,24.31,0,0,1-3,1.782,26.337,26.337,0,0,1-3.241,1.269,30.448,30.448,0,0,1-3.424.612,18.841,18.841,0,0,0-2.416-3.284c.848-.66,1.5-1.315,2.267-2.037s1.277-1.706,1.983-2.507,1.6-1.416,2.228-2.288a2.559,2.559,0,0,0-.892-3.456c-1.263-.739-2.405,0-3.2,1.095a26.835,26.835,0,0,1-2.764,2.733,25.153,25.153,0,0,1-3.122,2.225c-.365.273-.337.475-.552.849a11.9,11.9,0,0,0-3.12-.97c-1.084-.224-2.278.16-3.394.1s-2.221-.078-3.325-.1c-1.01-.025-3.218.379-5.531.423.858-.793,2.011-1.9,2.794-2.79a26.151,26.151,0,0,0,2.228-2.791,19.312,19.312,0,0,0,1.733-3.144,14.8,14.8,0,0,0,.6-3.577c.86-.024,1.3-.689,1.688-1.239a33.386,33.386,0,0,1,3.7-1.024A9.563,9.563,0,0,1,181.729,184.784Zm-33.56.475a20.148,20.148,0,0,0,3.576,1.538,9.139,9.139,0,0,0,3.836.24,12.216,12.216,0,0,0,3.493-.693c1.066-.425,2.13-1.1,3.246-1.431a6.764,6.764,0,0,1,3.4-.166c1.083.227,2.166.618,2.3,2.252a6.59,6.59,0,0,1-1.25,3.378,16.862,16.862,0,0,1-2.275,2.7c-.808.9-1.23,2.224-2.084,2.978-1.033.911-2.038,1.715-2.787,2.269a3.284,3.284,0,0,0-.993.972,12.2,12.2,0,0,1-2.793-1.074,2.751,2.751,0,0,0-.86-2.947c-.844-.623-1.852-1.251-2.815-2a31.08,31.08,0,0,0-2.991-1.726,11.155,11.155,0,0,0-2.993-1.654,5.1,5.1,0,0,0-3.393.282,7.237,7.237,0,0,0-2.319,2.462c-.158.214-.482.22-.613.444-.6-.716-.943-1.71-1.617-2.437-.653-.7-1.243-1.358-1.955-2.012a1.493,1.493,0,0,0,.092-.847c-.137-1.383-.473-2.443-.105-3.23a3.552,3.552,0,0,1,2.6-1.935,8.833,8.833,0,0,1,3.354-.234c1.058.2,2,1.1,3.012,1.479A22.515,22.515,0,0,1,148.169,185.259Zm-18.487,26.988c-.231-1.215-.568-2.413-.795-3.633s-.643-2.4-.862-3.624,0-2.518-.2-3.74-.632-2.408-.824-3.632-.137-2.485-.311-3.711c-.208-1.471-1.443-3.836.864-4.355.728-.164,1.7.656,2.57,1.316a19.637,19.637,0,0,1,1.962,2.023c.792.724,2.023,1,2.765,1.774s1.485,1.572,2.189,2.381,1.345,1.685,2.02,2.517c.025.031-.185.255-.16.284a26.9,26.9,0,0,0,.807,4.129c.432,1.354,1.08,2.641,1.564,3.907.542,1.419,1.37,2.654,1.744,3.836.393,1.247.49,2.587.883,3.833s.771,2.5,1.165,3.745,1.1,2.4,1.49,3.641.453,2.6.846,3.845c.46,1.454.525,2.746.946,4.275-.868-.737-.92-1.639-1.675-2.469a29.475,29.475,0,0,1-2.177-2.527c-.66-.912-1.685-1.574-2.263-2.548s-1.107-1.971-1.616-2.984-1.274-1.906-1.731-2.942-.353-2.305-.776-3.352-.765-2.126-1.171-3.175a3.139,3.139,0,0,0-3.46-1.8,2.273,2.273,0,0,0-1.5,3.186c.424,1.093,1.153,2.064,1.594,3.153s.5,2.336.966,3.409.709,2.274,1.227,3.323,1.579,1.826,2.158,2.842,1.088,2.074,1.744,3.043,1.48,1.8,2.226,2.7a31.921,31.921,0,0,0,2.459,2.463,28.693,28.693,0,0,0,2.291,2.629,13.745,13.745,0,0,1-3.474-.454c-1.079-.433-1.778-1.6-2.717-2.283-.924-.672-2.3-.91-3.091-1.778-.769-.837-.951-2.2-1.607-3.177a29.985,29.985,0,0,1-1.657-3.02c-.527-1.023-1.314-1.927-1.75-3s-1.128-2.08-1.48-3.175c-.361-1.12-.286-2.361-.564-3.462C130,214.5,129.891,213.342,129.682,212.247Zm34.622,25.06c.847-.952,1.532-1.82,2.291-2.83s1.321-2.172,2-3.244,1.693-1.962,2.278-3.089.921-2.384,1.414-3.558,1.164-2.284,1.563-3.5c.511-1.554-.876-2.516-2.107-2.828-1.195-.3-2.61-.13-3.1,1.371-.419,1.274-1.1,2.421-1.628,3.629-.539,1.223-.544,2.714-1.2,3.868s-1.376,2.321-2.143,3.409-1.972,2.225-2.844,3.239c-.151-1.221-.254-2.764-.4-3.985s-.1-2.468-.253-3.689-.453-2.424-.6-3.646-.623-2.4-.774-3.624a2.5,2.5,0,0,0-2.357-2.426,2.09,2.09,0,0,0-2.379,2.393c.145,1.179.612,2.319.758,3.5s-.057,2.4.088,3.58-.1,2.407.049,3.586.24,2.364.385,3.544.487,2.037.632,3.216c-.746-.492-.656-.933-1.135-2.341-.35-1.03-.679-2.071-1.007-3.111s-.952-1.987-1.272-3.028-.084-2.256-.411-3.293c-.374-1.185-.678-2.391-1.051-3.575s-.7-2.383-1.075-3.567-1.114-2.253-1.488-3.437-1.056-2.27-1.43-3.454-.335-2.5-.709-3.683c-.14-.442-.33-1.729-.8-3.205-.317-.985-1.195-1.944-1.427-3.033a12.1,12.1,0,0,1-.206-3.343c.1-1.306.751-2.539,1.993-2.62a6,6,0,0,1,3.221,1.631c-.021.212-.413.755-.38.988a6.752,6.752,0,0,0,1.563,2.936c.648.944,1.049,2.141,2.073,2.707.948.523,2.269.2,3.436.473,1.067.251,2.077,1.09,3.248,1.189,1.119.095,2.285.234,3.431.238s2.308-.366,3.424-.4c1.195-.041,2.339-.4,3.408-.435a27.393,27.393,0,0,1,3.414.428,17.885,17.885,0,0,1,4,.742,10.325,10.325,0,0,1,3.636,1.767,12.671,12.671,0,0,1,2.522,3.17,17.768,17.768,0,0,1,1.625,2.78,18.131,18.131,0,0,1,1,3.079,16.511,16.511,0,0,1,.176,3.226,16.774,16.774,0,0,1-.429,3.279,17.27,17.27,0,0,1-.737,3.232c-.411,1.039-.441,2.321-1.04,3.264s-1.751,1.507-2.519,2.323a19.718,19.718,0,0,1-5.322,3.635c-.967.459-1.811,1.455-2.834,1.76a2.311,2.311,0,0,0-1.952.245,31.47,31.47,0,0,1-3.42.244C166.363,237.142,165.435,237.288,164.3,237.307Zm39.644-12.742a6.809,6.809,0,0,1-1.135,2.929,16.076,16.076,0,0,1-1.954,2.582,27.111,27.111,0,0,1-2.732,1.773c-.955.737-1.732,1.545-2.5,2.033a28.078,28.078,0,0,1-3.126,1.454c-1.044.5-1.884,1.494-2.981,1.861a29.458,29.458,0,0,1-3.442.6c-.93.191-2.129.179-3.4.319a29.114,29.114,0,0,1-3.735.6,32.712,32.712,0,0,0,2.609-2.117,26.122,26.122,0,0,0,2.421-1.9,17.708,17.708,0,0,0,3.809-.09,16.991,16.991,0,0,0,3.613-1.01,16.638,16.638,0,0,0,3.114-2.095,16.089,16.089,0,0,0,2.4-2.832,2.471,2.471,0,0,0,.061-3.377,2.114,2.114,0,0,0-3.388.007,13.845,13.845,0,0,1-2.081,2.5,11.9,11.9,0,0,1-2.915,1.316,20.426,20.426,0,0,0,1.7-3.024,21.632,21.632,0,0,0,.839-3.436,20.651,20.651,0,0,0,.059-3.311,18.432,18.432,0,0,1,2.961-.562,26.988,26.988,0,0,1,3.319.125,15.87,15.87,0,0,1,3.362.374,5.871,5.871,0,0,1,2.465,2.276A3.661,3.661,0,0,1,203.948,224.565Zm12.478-15.313a11.949,11.949,0,0,1-1.11,2.929,15.339,15.339,0,0,1-1.713,2.678A19.932,19.932,0,0,1,211,216.7a23.383,23.383,0,0,1-2.416,1.969c-.209-.332-.169-.786-.453-1.1-.823-.9-2.216-1.138-3.368-1.69a15.583,15.583,0,0,0-3.4-1.459,25.872,25.872,0,0,0-3.675-.722c-1.255-.084-2.517.573-3.724.616-1.315.046-2.784.114-3.917.249-.211-.907-.551-2.341-.873-3.231a36.578,36.578,0,0,0,3.565-.825,31.516,31.516,0,0,0,3.258-1.16,29.3,29.3,0,0,0,2.933-1.836,26.1,26.1,0,0,0,2.551-2.307,23.418,23.418,0,0,0,2.647-2.187,2.712,2.712,0,0,0,.69-.008,26.536,26.536,0,0,1,3.3-.735,20.2,20.2,0,0,1,3.362.384,8.108,8.108,0,0,1,3.011,1.218,3.1,3.1,0,0,1,1.8,2.239A5.411,5.411,0,0,1,216.426,209.252Z" fill="#ba2027"/><path d="M85.4,267.846c-.81-1.247-2.305-1.585-3.457-1.982a8.106,8.106,0,0,0-3.78-.162,20.1,20.1,0,0,0-3.752.893c-1.316.445-2.671.668-3.755,1.088-.233.091-.787.075-1.018.168.738-.968,1.942-1.665,2.573-2.693a20.238,20.238,0,0,0,1.725-3.241,18.075,18.075,0,0,0,.544-3.831,19.455,19.455,0,0,0,.167-3.8,20.717,20.717,0,0,0-.065-3.886,18.44,18.44,0,0,0-1.667-3.508,14.917,14.917,0,0,0-2.324-3,12.356,12.356,0,0,0-2.81-2.445c-1.1-.7-1.932-1.641-2.97-1.811a7.27,7.27,0,0,0-3.461.519,9.744,9.744,0,0,0-2.87,1.87,15.142,15.142,0,0,0-2.221,2.577,20.2,20.2,0,0,0-1.917,2.816,21.924,21.924,0,0,0-1.5,3.078c-.39,1.094-.674,2.2-.965,3.336s-.971,1.71-1.181,2.865c-.309-1.013-.285-1.628-.655-2.622s-1.444-1.69-1.875-2.66-.686-1.993-1.179-2.934-.591-2.213-1.217-3.187a33.293,33.293,0,0,0-1.85-2.864c-.706-.881-1.945-1.3-2.752-2.066A18.265,18.265,0,0,0,38.751,238a12.268,12.268,0,0,0-3.232-.956,9.256,9.256,0,0,0-3.226-.595,10.33,10.33,0,0,0-3.124,1.005q-1.591.631-3.3,1.4c-1.079.483-2.375.563-3.454,1.114s-2.149,1.133-3.163,1.74a32.751,32.751,0,0,0-2.818,2.248,7.353,7.353,0,0,0-1.936,2.418,7.436,7.436,0,0,0-1.106,2.872c-.144,1.014-.864,2.085-.768,3.232.084,1.016,1.047,2.242,1.431,3.729a34,34,0,0,0,.988,3.769,30.24,30.24,0,0,0,1.56,3.64,31.674,31.674,0,0,0-3.311.792c-1.111.18-2.35-.274-3.4.054a18.381,18.381,0,0,0-2.934,1.65,15.015,15.015,0,0,0-2.988,1.549,13.869,13.869,0,0,0-2.476,2.377c-.729,1.057-.724,2.448-1.043,3.525a9.6,9.6,0,0,0-.424,3.507,10.617,10.617,0,0,0,.6,3.563A12.634,12.634,0,0,0,2.946,283.4a13.489,13.489,0,0,0,2.727,2.221,14.3,14.3,0,0,0,3.137,1.563,26.819,26.819,0,0,0,3.456,1.156,34.412,34.412,0,0,0,3.617.514,36.891,36.891,0,0,0,3.643.7c1.224.011,2.628-.439,3.846-.554-.679.834-1.192,2.1-1.906,2.934s-1.725,1.381-2.418,2.219-1.663,1.477-2.3,2.352a29.315,29.315,0,0,0-1.763,2.778,20.371,20.371,0,0,0-.96,3.147c-.409,1.121-1.163,2.058-1.21,3.01a8.432,8.432,0,0,0,.395,3.308c.364.945,1.413,1.627,2.109,2.513a21.827,21.827,0,0,0,1.829,2.662c.858.835,2.3,1.19,3.3,2.071.946.831,1.605,2.074,2.656,2.8a18.621,18.621,0,0,0,3.485,1.615c1.2.5,2.374,1.308,3.639,1.379a6.242,6.242,0,0,0,3.534-1.2,8.81,8.81,0,0,0,2.4-2.688,25.092,25.092,0,0,0,2.055-3.017c.566-1.126,1.306-2.133,1.858-3.132.543-.981,1.225-1.885,1.781-2.87s1.1-1.958,1.654-2.94.555-2.27,1.1-3.257,1.374-2.167,1.9-3.162c.007,1.28.261,2.805.35,4.076s.3,2.5.492,3.765.35,2.491.663,3.733c.276,1.1-.026,2.414.449,3.421a15.388,15.388,0,0,0,1.962,2.819,11.1,11.1,0,0,0,2.564,2.221,7.649,7.649,0,0,0,3.166.9,6.846,6.846,0,0,0,3.183-.169,9.809,9.809,0,0,0,3.191-1.014,11.684,11.684,0,0,0,2.68-2.647,11.9,11.9,0,0,0,2.036-3.2,15.571,15.571,0,0,0,1.041-3.714,19.93,19.93,0,0,0-.282-3.591,11,11,0,0,0,3.062.319c1.118-.015,2.1-.752,3.139-1.068,1.075-.326,2.479-.03,3.355-.683a8.763,8.763,0,0,0,2.217-2.655,9.149,9.149,0,0,0,.923-3.282,5.686,5.686,0,0,0-.895-3.583,6.294,6.294,0,0,0-2.578-2.618,14.525,14.525,0,0,0-3.634-.771c-1-.2-1.632-1.232-2.479-1.665-.878-.449-2.034-.586-2.873-1.059a21,21,0,0,0,3.176-1.11,29.331,29.331,0,0,0,2.483-2.081c.818-.663,1.564-1.447,2.356-2.177.777-.717,1.792-1.2,2.564-1.946.706-.676,1.484-1.465,2.351-2.25.794-.719,1.173-1.922,1.907-2.727a13.371,13.371,0,0,0,2.056-2.5,6.088,6.088,0,0,0,.771-3.1C85.879,270.2,86.082,268.9,85.4,267.846ZM66.888,247.707c.8.942,1.913,1.539,2.335,2.537a10.842,10.842,0,0,1,.9,3.383,13.018,13.018,0,0,1-.3,3.487,17.975,17.975,0,0,1-1.338,3.2,25.123,25.123,0,0,1-1.124,3.324c-.6,1-1.75,1.634-2.438,2.528-.77,1-1.6,1.956-2.373,2.966s-1.191,2.274-1.967,3.274-1.561,2-2.363,2.976-1.622,1.544-2.464,2.485c.452-1.15.719-2.036,1.2-3.17s.708-2.393,1.225-3.513,1.046-2.246,1.6-3.352,1.641-1.931,2.223-3.022.974-2.275,1.587-3.349a2.208,2.208,0,0,0-1.058-3.153c-1.08-.638-2.074-.555-2.874.849-.5.885-1.044,1.737-1.527,2.631s-1.043,1.742-1.506,2.647-1.445,1.832-1.887,2.748c.111-1.589,1.01-3.273,1.149-4.858a28.063,28.063,0,0,1,.253-3.528c.194-1.076-.272-2.429.032-3.649.284-1.143.835-2.28,1.22-3.4a21.882,21.882,0,0,1,1.888-3.072,8.021,8.021,0,0,1,2.17-2.613c.977-.788,1.877-1.585,3.127-1.076C65.434,245.335,65.9,246.546,66.888,247.707Zm-46.723.077a14.348,14.348,0,0,1,3.148-2.608c1.286-.592,2.563-1.2,3.7-1.795a25.942,25.942,0,0,1,3.508-1.558,6.476,6.476,0,0,1,3.778.023,7.543,7.543,0,0,1,3.571,1.47c.876.783,1.289,2.045,2.041,2.948a26.775,26.775,0,0,1,1.982,2.879,31.827,31.827,0,0,1,2.081,2.868c.509,1.049.98,2.146,1.391,3.254s.284,2.366.6,3.5.948,2.177,1.18,3.329.731,2.278.886,3.438.289,2.365.373,3.526c.086,1.186-.456,2.393-.44,3.55.017,1.2.227,2.373.176,3.519-.134-.058-.461.016-.594-.038-.682-1.071-1.542-2.032-2.194-3.085-.668-1.078-1.271-2.2-1.874-3.282-.613-1.1-1.105-2.288-1.615-3.426a31.374,31.374,0,0,1-1.39-3.529c-.364-1.179.14-2.563-.055-3.828a23.6,23.6,0,0,1-.528-3.671c0-1.608-1.5-1.93-2.752-1.931s-2.234.319-2.231,1.931c0,1.157-.478,2.309-.351,3.4a30.6,30.6,0,0,0,.431,3.386c.26,1.1,1.2,2.011,1.565,3.062s.542,2,1.007,3.025a30.68,30.68,0,0,0-3.738-1.367,34.138,34.138,0,0,0-3.79-1.544,37.428,37.428,0,0,0-4.05-.613c-.993-.169-2.138-.339-3.212-.452a18.246,18.246,0,0,1-1.612-3.028c-.7-1.211-1.247-2.389-1.449-2.838a20.837,20.837,0,0,1-1.6-3.59,11.24,11.24,0,0,1-.5-3.993C17.785,249.436,19.094,248.7,20.165,247.784Zm-3.246,35.55c-1.165-.069-2.459.484-3.692.293a16.133,16.133,0,0,1-3.6-.851,9.141,9.141,0,0,1-3.081-2.088A5.815,5.815,0,0,1,5.1,277.335a5.764,5.764,0,0,1,.282-3.723c.589-1.016,1.917-1.6,2.939-2.343a10.462,10.462,0,0,1,3.252-1.531,25.371,25.371,0,0,1,2.859-1.1,28.757,28.757,0,0,1,3.04-.351c1-.06,1.92.416,2.939.454a5.49,5.49,0,0,0,3.8.686,3.872,3.872,0,0,0,1.366-.749,34.406,34.406,0,0,1,4.166,1.087c1.331.449,2.412,1.533,3.659,2.151a28.68,28.68,0,0,1,3.719,1.933c-1.214-.087-2.435.1-3.641.095s-2.394.247-3.6.331-2.39.151-3.593.319-2.385.269-3.577.515c-1.607.332-1.8,1.389-1.425,2.611.358,1.174,1.258,2.743,2.8,2.425,1.439-.3,2.8-.756,4.243-.912s3.2-.847,4.659-.87c-.8.625-1.712,1.854-2.46,2.573s-1.78,1.016-2.469,1.782a18.144,18.144,0,0,1-3.617.6c-1.25.152-2.468.843-3.743.841S18.178,283.408,16.919,283.334ZM33.3,311.975c-.436.785-.251,2.1-.789,2.9a3.344,3.344,0,0,1-2.467,1.677,6.3,6.3,0,0,1-3.241-1.3,28.394,28.394,0,0,1-2.524-2.315c-1.053-.84-2.542-1.3-3.531-2.222a8.737,8.737,0,0,1-1.968-3.653,4.746,4.746,0,0,1,.373-3.838,21.038,21.038,0,0,1,1.738-3.7c.8-1.093,1.683-2.153,2.571-3.186s2.184-1.74,3.025-2.789c.7-.88,1.165-2.131,1.966-3.209.717-.963,1.312-2.24,2.108-3.238a17.516,17.516,0,0,0,4.2-2.343c1.014-.777,1.639-1.562,1.354-2.553a12.208,12.208,0,0,1,2.86-1.858,9.821,9.821,0,0,1,3.691-.688c-.924.8-1.725,2-2.583,2.857s-1.711,1.688-2.5,2.606-1.618,1.785-2.341,2.762-1.357,1.986-2.005,3.015-1.96,1.677-2.53,2.754-.886,2.3-1.374,3.412c-.616,1.408.557,2.424,1.573,3.085,1.091.71,2.062.957,2.728-.568.509-1.163,1.553-2.055,2.143-3.157s1.362-2.092,2.042-3.145.885-2.447,1.653-3.442,1.858-1.725,2.709-2.656,1.382-2.176,2.31-3.036,2.02-1.525,3.016-2.312c.014-.011-.142-.269-.128-.28l.663.382c-.106,1.167-.7,2.29-.816,3.468-.364,1.107-.77,2.189-1.21,3.271s-.629,2.273-1.125,3.331-.832,2.2-1.366,3.241-1.2,2.011-1.758,3.037-1.752,1.7-2.312,2.724c-.671,1.226-.7,2.8-1.373,4.028s-1.525,2.351-2.2,3.574S33.974,310.753,33.3,311.975Zm26.825,1.9c-1.327.985-2.168,1.94-3.136,1.908a4.043,4.043,0,0,1-3.178-2.036,13.493,13.493,0,0,1-1.392-3.544A31.54,31.54,0,0,1,52,306.457c-.176-1.289-.813-2.532-.881-3.7a26.554,26.554,0,0,1,.482-3.775c.012-.982.128-1.957.17-2.939s-.117-2.158-.054-3.139c.28,1.038.73,2.2,1.044,3.227s.165,2.209.515,3.228,1.066,1.9,1.45,2.91c.551,1.446,1.838,1.551,3.026,1.275,1.257-.293,1.983-.9,1.392-2.45-.413-1.085-.25-2.378-.622-3.473s-.943-2.127-1.276-3.236-.856-2.17-1.149-3.291-.452-2.723-.7-3.854a21.609,21.609,0,0,1,2.84,3.474,22.962,22.962,0,0,1,1.614,3.778c.319.9.764,1.917,1.185,3.048.363.976-.048,2.194.3,3.269A2.75,2.75,0,0,0,62.2,302.9c.359,1.361,1.338,2.6,1.44,3.927a11.368,11.368,0,0,1-.608,4.213C62.613,312.336,61.317,312.993,60.122,313.88ZM74.852,297.6a1.582,1.582,0,0,1-.306,2.547,7.753,7.753,0,0,1-2.958,1.463,6.538,6.538,0,0,1-5.1-1.551c-.283-1.021-.333-2.169-.659-3.113-.5-1.445-1.478-3-2-4.495a6.691,6.691,0,0,1,2.926,1.371,27.032,27.032,0,0,0,2.353,1.733c.726.366,2.083.146,3.248.376A4.146,4.146,0,0,1,74.852,297.6Zm-2.1-18.23c-.785.755-1.132,1.956-1.94,2.621a19.323,19.323,0,0,1-2.6,1.935,12.484,12.484,0,0,1-3.025,1.2,11.613,11.613,0,0,1-3.223.028c-.489-.019-1.129.549-1.47.732-.654-.839-1-2.014-1.784-2.718a2.056,2.056,0,0,0,1.154-.886,17.7,17.7,0,0,1,1.76-3.328,17.879,17.879,0,0,1,2.769-2.581c.973-.732,2.294-.958,3.437-1.564.964-.512,1.789-1.291,2.8-1.7s1.925-1.083,2.947-1.461a22.708,22.708,0,0,1,2.579-.994c.762-.149,1.357.567,2.244,1.575,1.058,1.2,1.176,1.652.608,2.209-.471.463-1.149,1.066-1.985,1.823C75.73,277.425,74.016,278.153,72.754,279.365Z" fill="#ba2027"/></g></g>
      </g>
    </g>
</g>

              </svg>