<?xml version="1.0" encoding="UTF-8"?><svg version="1.1" xmlns="http://www.w3.org/2000/svg" xmlns:xlink="http://www.w3.org/1999/xlink" viewBox="0 0 1500 1500" width="1500" height="1500" x="0px" y="0px">
              
              <!-- ITEM 0 -->
<g>
    <defs>
        
        <clipPath id="clip-path-id-viewbox-item-0">
            <rect x="0.0" y="0.0" width="15.799" height="27.858"/>
        </clipPath>
    </defs>
    <g transform="translate(778.0 1188.0) rotate(10.035589814963608 87.5 157.5) scale(11.076650420912717 11.307344389403402)">
      <g clip-path="url(#clip-path-id-viewbox-item-0)" transform="translate(-0.0 -0.0)">
      
<path style="fill:#FFFFFF;" d="M1.115,27.058c0,0-1.75-9,3-18.75s10.219-7.879,10.75-6C16.49,8.058,2.865,10.558,1.115,27.058z"/>
<path style="fill:#FFFFFF;" d="M1.115,27.058c0,0,0.784-10.131,6.75-11.125c2.625-0.438,2.813,2.312,0.125,4.125  C4.619,22.331,1.74,23.558,1.115,27.058z"/>
<path style="fill:#333333;" d="M1.115,27.857c-0.382,0-0.712-0.27-0.785-0.647c-0.073-0.378-1.746-9.376,3.066-19.253  c3.691-7.578,7.688-8.077,9.232-7.938c1.485,0.132,2.693,0.965,3.006,2.071c0.802,2.835-1.353,4.875-4.08,7.458  c-3.649,3.455-8.646,8.187-9.644,17.595c-0.042,0.394-0.365,0.698-0.762,0.715C1.138,27.857,1.126,27.857,1.115,27.857z   M12.238,1.601c-1.195,0-4.303,0.69-7.404,7.057c-2.167,4.449-2.942,8.765-3.156,12.082c2.077-6.011,5.843-9.576,8.776-12.354  c2.746-2.6,4.155-4.042,3.642-5.86c-0.093-0.328-0.653-0.828-1.609-0.913C12.417,1.606,12.334,1.601,12.238,1.601z"/>
<path style="fill:#333333;" d="M1.116,27.858c-0.034,0-0.068-0.002-0.103-0.007c-0.423-0.054-0.729-0.43-0.696-0.855  c0.034-0.439,0.907-10.768,7.416-11.853c1.374-0.227,2.431,0.24,2.834,1.251c0.534,1.341-0.342,3.12-2.13,4.326  c-0.562,0.379-1.109,0.729-1.636,1.065c-2.576,1.646-4.438,2.834-4.899,5.413C1.834,27.584,1.498,27.858,1.116,27.858z   M8.395,16.687c-0.166,0-0.317,0.021-0.397,0.034c-2.786,0.464-4.324,3.312-5.157,5.909c0.901-0.789,1.969-1.471,3.102-2.194  c0.516-0.329,1.052-0.672,1.602-1.042c1.343-0.906,1.712-1.972,1.538-2.407C8.985,16.745,8.67,16.687,8.395,16.687z"/>

      </g>
    </g>
</g>

<!-- ITEM 1 -->
<g>
    <defs>
        
        <clipPath id="clip-path-id-viewbox-item-1">
            <rect x="0.0" y="0.0" width="15.799" height="27.858"/>
        </clipPath>
    </defs>
    <g transform="translate(737.0 1196.0) rotate(-15.66450936081402 -87.5 157.5) scale(-11.076650420912717 11.307344389403402)">
      <g clip-path="url(#clip-path-id-viewbox-item-1)" transform="translate(-0.0 -0.0)">
      
<path style="fill:#FFFFFF;" d="M1.115,27.058c0,0-1.75-9,3-18.75s10.219-7.879,10.75-6C16.49,8.058,2.865,10.558,1.115,27.058z"/>
<path style="fill:#FFFFFF;" d="M1.115,27.058c0,0,0.784-10.131,6.75-11.125c2.625-0.438,2.813,2.312,0.125,4.125  C4.619,22.331,1.74,23.558,1.115,27.058z"/>
<path style="fill:#333333;" d="M1.115,27.857c-0.382,0-0.712-0.27-0.785-0.647c-0.073-0.378-1.746-9.376,3.066-19.253  c3.691-7.578,7.688-8.077,9.232-7.938c1.485,0.132,2.693,0.965,3.006,2.071c0.802,2.835-1.353,4.875-4.08,7.458  c-3.649,3.455-8.646,8.187-9.644,17.595c-0.042,0.394-0.365,0.698-0.762,0.715C1.138,27.857,1.126,27.857,1.115,27.857z   M12.238,1.601c-1.195,0-4.303,0.69-7.404,7.057c-2.167,4.449-2.942,8.765-3.156,12.082c2.077-6.011,5.843-9.576,8.776-12.354  c2.746-2.6,4.155-4.042,3.642-5.86c-0.093-0.328-0.653-0.828-1.609-0.913C12.417,1.606,12.334,1.601,12.238,1.601z"/>
<path style="fill:#333333;" d="M1.116,27.858c-0.034,0-0.068-0.002-0.103-0.007c-0.423-0.054-0.729-0.43-0.696-0.855  c0.034-0.439,0.907-10.768,7.416-11.853c1.374-0.227,2.431,0.24,2.834,1.251c0.534,1.341-0.342,3.12-2.13,4.326  c-0.562,0.379-1.109,0.729-1.636,1.065c-2.576,1.646-4.438,2.834-4.899,5.413C1.834,27.584,1.498,27.858,1.116,27.858z   M8.395,16.687c-0.166,0-0.317,0.021-0.397,0.034c-2.786,0.464-4.324,3.312-5.157,5.909c0.901-0.789,1.969-1.471,3.102-2.194  c0.516-0.329,1.052-0.672,1.602-1.042c1.343-0.906,1.712-1.972,1.538-2.407C8.985,16.745,8.67,16.687,8.395,16.687z"/>

      </g>
    </g>
</g>

              </svg>